<svg width="512" height="512" viewBox="0 0 512 512" fill="none" xmlns="http://www.w3.org/2000/svg">
<g clip-path="url(#clip0_920_3993)">
<path d="M256 512C397.385 512 512 397.385 512 256C512 114.615 397.385 0 256 0C114.615 0 0 114.615 0 256C0 397.385 114.615 512 256 512Z" fill="#F0F0F0"/>
<path d="M256 189.217H503.181C496.841 165.695 487.157 143.204 474.426 122.434H256V189.217ZM96.6432 456.348H415.356C438.782 437.694 458.772 415.094 474.425 389.565H37.5742C53.2284 415.093 73.218 437.693 96.6432 456.348ZM89.0432 61.939C68.8585 79.3182 51.4953 99.7267 37.5742 122.435H89.0432V61.939Z" fill="#338AF3"/>
<path d="M256 256V189.217H155.826V256H89.043V189.217H8.819C3.08 210.511 0 232.893 0 256C0 279.107 3.08 301.489 8.819 322.783H503.182C508.92 301.489 512 279.107 512 256H256ZM256 0C220.451 0 186.596 7.253 155.826 20.348V122.435H256V55.652H415.357C371.626 20.824 316.249 0 256 0Z" fill="#338AF3"/>
</g>
<defs>
<clipPath id="clip0_920_3993">
<rect width="512" height="512" fill="white"/>
</clipPath>
</defs>
</svg>
