<svg width="100" height="100" viewBox="0 0 100 100" fill="none" xmlns="http://www.w3.org/2000/svg">
<path fill-rule="evenodd" clip-rule="evenodd" d="M83.8628 51.801C82.5124 53.1508 80.3231 53.1508 78.9728 51.801C77.6231 50.452 77.6237 48.2576 78.9726 46.908C79.2927 46.5855 79.6738 46.3299 80.0935 46.1559C80.5133 45.9819 80.9635 45.8931 81.4179 45.8945C82.3382 45.8945 83.2124 46.2568 83.8632 46.908C85.2118 48.2576 85.2124 50.452 83.8628 51.801ZM84.964 45.8051C84.0151 44.8566 82.7601 44.3318 81.4177 44.3318C80.0728 44.3318 78.8138 44.8539 77.8618 45.8037C75.9013 47.7598 75.9046 50.9494 77.8622 52.9066C78.3292 53.3732 78.8835 53.7431 79.4936 53.9952C80.1037 54.2472 80.7576 54.3764 81.4177 54.3754C82.3257 54.3754 83.2132 54.1318 83.9933 53.6654L84.3845 53.4316L86.3981 55.4365C86.4703 55.5095 86.5562 55.5676 86.6508 55.6074C86.7455 55.6472 86.847 55.6679 86.9497 55.6684C87.052 55.6684 87.1533 55.6482 87.2478 55.6089C87.3422 55.5696 87.428 55.512 87.5001 55.4395C87.6464 55.2927 87.7285 55.0939 87.7285 54.8867C87.7284 54.6795 87.6462 54.4807 87.4999 54.334L85.4962 52.326L85.73 51.9346C86.9065 49.9635 86.5899 47.4305 84.964 45.8051ZM43.7183 5.48945C39.7427 7.46719 36.5901 11.0338 34.2589 14.7416C32.8015 17.0596 31.588 19.5441 30.5665 22.0824L30.3815 22.542L29.8976 22.4361C25.6597 21.509 21.4497 20.2387 17.4669 18.5105L16.6802 18.1691L17.2843 17.5603C24.3327 10.4564 33.4622 5.8166 43.3735 4.38496L46.9884 3.86289L43.7183 5.48945ZM49.2169 5.52402L48.5579 5.60664C42.8938 6.31758 38.4688 10.9807 35.5825 15.5727C34.2657 17.6678 33.1554 19.901 32.2106 22.1867L31.9341 22.8562L32.6466 22.9869C37.9081 23.9516 43.2761 24.4305 48.6231 24.5025L49.2169 24.5105V5.52402ZM51.4423 5.60664C57.1026 6.31855 61.5364 10.9803 64.4179 15.573C65.7325 17.6686 66.845 19.9016 67.7895 22.1867L68.0661 22.8562L67.3536 22.9869C62.0937 23.9514 56.7228 24.4303 51.377 24.5025L50.7833 24.5105V5.52383L51.4423 5.60664ZM65.7409 14.741C67.195 17.0586 68.4038 19.5461 69.4245 22.0824L69.6093 22.5418L70.0929 22.4361C74.331 21.5109 78.5433 20.242 82.5243 18.5103L83.3095 18.1687L82.7069 17.5605C75.6681 10.4568 66.529 5.8166 56.6265 4.38496L53.0222 3.86387L56.2812 5.48926C60.2536 7.47031 63.4132 11.0309 65.7409 14.741ZM82.2878 82.8629C75.2979 89.7309 66.3304 94.2121 56.6265 95.6148L53.0198 96.1361L56.2812 94.5106C60.2532 92.5307 63.4128 88.9674 65.7409 85.2586C67.0921 83.1059 68.2331 80.8113 69.2061 78.4648L69.3933 78.0137L69.8708 78.1164C74.038 79.0137 78.1782 80.2408 82.1058 81.9053L82.9138 82.2477L82.2878 82.8629ZM67.5485 78.3781L67.8353 77.7029L67.1134 77.5725C61.9302 76.6357 56.6423 76.1682 51.377 76.0984L50.7835 76.0906V94.4773L51.4427 94.3943C57.1019 93.6814 61.5351 89.0176 64.4179 84.4273C65.6253 82.5045 66.661 80.4672 67.5485 78.3781ZM48.5579 94.3941C42.8948 93.6822 38.4706 89.017 35.5827 84.4275C34.3728 82.5049 33.3388 80.4666 32.4435 78.3801L32.1532 77.7033L32.8778 77.5725C38.0646 76.6352 43.3546 76.168 48.6233 76.0984L49.2171 76.0906V94.4771L48.5579 94.3941ZM43.3735 95.6148L46.9921 96.1379L43.7183 94.5103C39.7431 92.534 36.5905 88.9643 34.2589 85.2582C32.9054 83.1066 31.7671 80.8115 30.7938 78.4648L30.6067 78.0139L30.1294 78.1164C25.9599 79.0125 21.8235 80.24 17.8942 81.9055L17.0864 82.2478L17.7124 82.8629C24.7022 89.7309 33.6698 94.2121 43.3735 95.6148ZM73.9952 41.9359V58.065H90.1269V41.9359H73.9952Z" fill="#88E6FF"/>
<path fill-rule="evenodd" clip-rule="evenodd" d="M79.387 51.3865C78.2659 50.2674 78.2659 48.4432 79.387 47.3223C79.6526 47.0541 79.969 46.8416 80.3177 46.6971C80.6664 46.5525 81.0404 46.4789 81.4178 46.4805C82.1805 46.4805 82.9065 46.7791 83.4487 47.3223C84.5698 48.4434 84.5698 50.2674 83.4487 51.3865C82.3274 52.5086 80.5081 52.5086 79.387 51.3865ZM86.2329 52.2348C87.5194 50.0799 87.2344 47.2424 85.3782 45.3906C84.3213 44.3301 82.9155 43.7457 81.4176 43.7457C79.9198 43.7457 78.5139 44.3301 77.4479 45.3887C75.261 47.5756 75.261 51.1346 77.4479 53.3207C78.5415 54.4143 79.9842 54.9609 81.4176 54.9609C82.4192 54.9609 83.4118 54.6953 84.2938 54.168L85.9846 55.8514C86.1109 55.9788 86.2611 56.08 86.4266 56.1491C86.5921 56.2182 86.7697 56.2539 86.9491 56.254C87.1284 56.2542 87.3061 56.2189 87.4717 56.1501C87.6374 56.0814 87.7878 55.9805 87.9143 55.8533C88.4473 55.3186 88.4473 54.4529 87.9143 53.9199L86.2329 52.2348ZM43.4573 4.96484C39.8918 6.73848 36.5747 9.95273 33.7627 14.4297C32.3661 16.6461 31.1163 19.1465 30.0227 21.8637C25.5659 20.8887 21.4125 19.5838 17.7 17.9729C24.5002 11.1197 33.4504 6.41035 43.4573 4.96484ZM82.2907 17.973C78.5875 19.584 74.4338 20.8889 69.968 21.8639C68.8745 19.1467 67.6249 16.6463 66.2372 14.4299C63.4252 9.95293 60.0989 6.73848 56.5426 4.96504C66.5405 6.41035 75.4999 11.1197 82.2907 17.973ZM92.2793 48.6326H95.4864C95.1555 37.7269 90.9836 27.7732 84.2665 20.0902C80.2784 21.9023 75.7848 23.3652 70.9422 24.4477C72.5596 29.1094 73.7358 34.3104 74.3881 39.7871H90.9102C91.6637 39.7871 92.2793 40.4 92.2793 41.1545V48.6326ZM70.7399 76.1109C75.509 77.1621 79.9473 78.5801 83.8895 80.3379C90.8274 72.5978 95.1553 62.477 95.4862 51.3674H92.2791V58.8455C92.2791 59.6 91.6635 60.2129 90.91 60.2129H74.3879C73.7172 65.9064 72.4674 71.3051 70.7399 76.1109ZM66.2372 85.5701C67.5329 83.5035 68.709 81.1934 69.7475 78.6893C74.1215 79.6312 78.2108 80.891 81.8772 82.4449C75.1323 89.0721 66.3383 93.6189 56.5426 95.035C60.0989 93.2625 63.4254 90.0473 66.2372 85.5701ZM30.2526 78.6895C31.2911 81.1936 32.4581 83.5037 33.7629 85.5703C36.5749 90.0473 39.892 93.2625 43.4575 95.0352C33.6618 93.6191 24.8678 89.0723 18.1231 82.4451C21.7893 80.891 25.8694 79.6313 30.2526 78.6895ZM7.72075 51.3674H4.51372C4.84458 62.477 9.1727 72.598 16.1104 80.3379C20.0526 78.5801 24.4817 77.1621 29.2508 76.1109C27.5233 71.3051 26.2827 65.9064 25.6028 60.2129H9.09009C8.33657 60.2129 7.72095 59.6 7.72095 58.8455L7.72075 51.3674ZM25.6028 39.7871C26.2553 34.3104 27.4315 29.1094 29.0579 24.4477C24.2153 23.3652 19.7125 21.9023 15.7336 20.0902C9.01645 27.7732 4.8354 37.7269 4.51372 48.6326H7.72075V41.1545C7.72075 40.4 8.33638 39.7871 9.08989 39.7871H25.6028ZM48.6309 26.6504V39.7871H28.3596C29.012 34.4859 30.1698 29.4705 31.7596 25.0035C37.0801 26.0117 42.7774 26.574 48.6309 26.6504ZM48.6309 23.9166V6.18809C44.0915 6.75781 39.6807 10.1504 36.0786 15.8846C34.8471 17.84 33.7354 20.0316 32.7522 22.4107C37.7694 23.3303 43.1174 23.8422 48.6309 23.9166ZM51.3692 23.9166C56.8735 23.8422 62.2307 23.3303 67.2481 22.4105C66.2649 20.0314 65.1438 17.8398 63.9215 15.8844C60.3194 10.1504 55.8995 6.75762 51.3692 6.18789V23.9166ZM51.3692 39.7871V26.6504C57.2227 26.574 62.9108 26.0117 68.2405 25.0037C69.8301 29.4705 70.9879 34.4859 71.6313 39.7873L51.3692 39.7871ZM51.3692 73.9496V60.2127H71.6311C70.9604 65.7381 69.729 70.9512 68.0381 75.5603C62.7637 74.5744 57.1401 74.024 51.3692 73.9496ZM51.3692 76.6844V93.8129C55.8995 93.2422 60.3194 89.8496 63.9215 84.1156C65.0518 82.3146 66.0903 80.3123 67.009 78.1492C62.0561 77.2541 56.7817 76.7561 51.3692 76.6844ZM48.6309 76.6844C43.2094 76.7561 37.9348 77.2541 32.9819 78.1492C33.91 80.3123 34.9391 82.3146 36.0786 84.1156C39.6807 89.8496 44.0915 93.2424 48.6309 93.8129V76.6844ZM48.6309 60.2127V73.9496C42.851 74.024 37.2364 74.5744 31.9618 75.5603C30.2709 70.9512 29.0395 65.7381 28.3596 60.2127H48.6309ZM74.5809 42.5219V57.4791H89.5409V42.5219H74.5809ZM26.825 42.5219H71.8518V57.4791H10.4592V42.5219H26.825ZM84.1102 15.8871C74.9946 6.77617 62.8833 1.75801 50 1.75801C37.1077 1.75801 24.9963 6.77617 15.8807 15.8871C6.77427 25 1.75708 37.1131 1.75708 50C1.75708 62.8869 6.77427 75 15.8807 84.1137C24.9963 93.2248 37.1077 98.242 50 98.242C62.8833 98.242 74.9946 93.2248 84.1102 84.1137C93.2258 75 98.243 62.8869 98.243 50C98.243 37.1131 93.2258 25 84.1102 15.8871Z" fill="#243570"/>
</svg>
