<svg width="512" height="512" viewBox="0 0 512 512" fill="none" xmlns="http://www.w3.org/2000/svg">
<path fill-rule="evenodd" clip-rule="evenodd" d="M218.173 300.362C221.865 300.362 224.874 303.138 226.729 306.088C229.023 309.736 230.065 314.231 230.065 318.511C230.065 322.792 229.022 327.288 226.73 330.938C224.876 333.89 221.867 336.67 218.174 336.67C214.467 336.67 211.446 333.904 209.579 330.942C207.279 327.293 206.235 322.795 206.235 318.512C206.235 314.229 207.278 309.732 209.579 306.085C211.447 303.123 214.468 300.362 218.173 300.362ZM198.26 318.511C198.26 325.156 200.094 332.084 204.242 337.37C207.681 341.753 212.512 344.671 218.173 344.671C223.818 344.671 228.635 341.743 232.061 337.371C236.205 332.082 238.039 325.154 238.039 318.51C238.039 311.867 236.206 304.941 232.062 299.654C228.636 295.283 223.819 292.358 218.174 292.358C212.514 292.358 207.683 295.273 204.243 299.655C200.094 304.941 198.26 311.868 198.26 318.511ZM293.874 300.362C297.566 300.362 300.575 303.138 302.43 306.088C304.724 309.736 305.766 314.231 305.766 318.511C305.766 322.792 304.723 327.288 302.431 330.938C300.577 333.89 297.569 336.67 293.875 336.67C290.168 336.67 287.147 333.904 285.28 330.942C282.98 327.293 281.936 322.795 281.936 318.512C281.936 314.229 282.979 309.732 285.28 306.085C287.148 303.123 290.169 300.362 293.874 300.362ZM273.961 318.511C273.961 325.159 275.806 332.083 279.96 337.369C283.395 341.74 288.224 344.672 293.874 344.672C299.524 344.672 304.354 341.74 307.788 337.369C311.941 332.084 313.787 325.16 313.787 318.511C313.787 311.864 311.942 304.942 307.789 299.658C304.353 295.288 299.524 292.359 293.874 292.359C288.224 292.359 283.395 295.288 279.959 299.658C275.806 304.942 273.961 311.864 273.961 318.511ZM251.989 296.361V340.671C251.989 342.874 253.799 344.672 256 344.672C258.201 344.672 260.01 342.874 260.01 340.671V296.361C260.008 295.299 259.584 294.281 258.832 293.531C258.081 292.781 257.062 292.36 256 292.36C254.938 292.36 253.919 292.781 253.167 293.531C252.415 294.281 251.991 295.299 251.989 296.361ZM293.874 155.33C297.568 155.33 300.576 158.109 302.43 161.061C304.724 164.713 305.765 169.211 305.765 173.493C305.765 177.772 304.722 182.265 302.429 185.912C300.574 188.862 297.566 191.637 293.873 191.637C290.168 191.637 287.147 188.876 285.279 185.916C282.978 182.27 281.934 177.774 281.934 173.493C281.934 169.208 282.977 164.707 285.278 161.057C287.146 158.094 290.167 155.33 293.874 155.33ZM273.961 173.494C273.961 180.14 275.805 187.062 279.959 192.344C283.395 196.714 288.225 199.641 293.874 199.641C299.523 199.641 304.353 196.714 307.789 192.344C311.943 187.061 313.787 180.14 313.787 173.494C313.787 166.844 311.942 159.919 307.788 154.632C304.354 150.261 299.525 147.329 293.874 147.329C288.223 147.329 283.394 150.261 279.96 154.632C275.806 159.918 273.961 166.844 273.961 173.494ZM251.989 195.639C251.989 197.85 253.792 199.64 256 199.64C258.208 199.64 260.01 197.85 260.01 195.639V151.329C260.01 149.126 258.201 147.328 256 147.328C253.799 147.328 251.989 149.126 251.989 151.329V195.639ZM267.892 246C267.892 250.28 266.85 254.774 264.556 258.423C262.701 261.373 259.693 264.149 256 264.149C252.308 264.149 249.299 261.373 247.444 258.423C245.15 254.774 244.108 250.28 244.108 246C244.108 241.72 245.15 237.225 247.444 233.577C249.299 230.627 252.307 227.851 256 227.851C259.692 227.851 262.701 230.627 264.556 233.577C266.849 237.225 267.892 241.72 267.892 246ZM236.087 246C236.087 252.647 237.931 259.569 242.085 264.853C245.52 269.223 250.35 272.152 256 272.152C261.65 272.152 266.479 269.223 269.915 264.853C274.069 259.57 275.913 252.647 275.913 246C275.913 239.354 274.069 232.432 269.915 227.15C266.479 222.78 261.649 219.853 256 219.853C250.35 219.853 245.521 222.78 242.085 227.15C237.931 232.432 236.087 239.354 236.087 246ZM217.703 219.853C217.176 219.849 216.654 219.949 216.167 220.149C215.679 220.348 215.236 220.642 214.863 221.013C214.49 221.385 214.194 221.827 213.993 222.314C213.792 222.801 213.69 223.322 213.692 223.849V268.15C213.689 268.677 213.791 269.199 213.992 269.687C214.192 270.174 214.488 270.617 214.861 270.989C215.234 271.361 215.678 271.656 216.165 271.855C216.653 272.054 217.176 272.155 217.703 272.151C219.917 272.151 221.666 270.354 221.666 268.15V223.849C221.666 221.647 219.914 219.853 217.703 219.853ZM191.25 246C191.25 250.28 190.208 254.774 187.914 258.423C186.059 261.373 183.051 264.149 179.358 264.149C175.665 264.149 172.657 261.373 170.802 258.423C168.508 254.774 167.466 250.28 167.466 246C167.466 241.72 168.508 237.225 170.802 233.577C172.657 230.627 175.665 227.851 179.358 227.851C183.051 227.851 186.059 230.627 187.914 233.577C190.208 237.225 191.25 241.72 191.25 246ZM159.445 246C159.445 252.647 161.29 259.569 165.443 264.853C168.879 269.223 173.708 272.152 179.358 272.152C185.008 272.152 189.837 269.223 193.273 264.853C197.427 259.57 199.271 252.647 199.271 246C199.271 239.354 197.427 232.432 193.273 227.15C189.837 222.78 185.007 219.853 179.358 219.853C173.709 219.853 168.879 222.78 165.443 227.15C161.29 232.432 159.445 239.354 159.445 246ZM332.642 227.851C336.334 227.851 339.343 230.627 341.198 233.577C343.492 237.225 344.534 241.72 344.534 246C344.534 250.28 343.492 254.774 341.198 258.423C339.343 261.373 336.335 264.149 332.642 264.149C328.95 264.149 325.941 261.373 324.086 258.423C321.792 254.774 320.75 250.28 320.75 246C320.75 241.72 321.792 237.225 324.086 233.577C325.941 230.627 328.949 227.851 332.642 227.851ZM312.729 246C312.729 252.647 314.573 259.569 318.727 264.853C322.163 269.223 326.992 272.152 332.642 272.152C338.292 272.152 343.121 269.223 346.557 264.853C350.711 259.57 352.555 252.647 352.555 246C352.555 239.354 350.711 232.432 346.557 227.15C343.121 222.78 338.291 219.853 332.642 219.853C326.993 219.853 322.163 222.78 318.727 227.15C314.573 232.432 312.729 239.354 312.729 246ZM290.334 223.849V268.15C290.331 268.677 290.433 269.199 290.634 269.686C290.834 270.174 291.13 270.616 291.503 270.989C291.876 271.361 292.319 271.655 292.807 271.855C293.295 272.054 293.817 272.155 294.344 272.151C296.558 272.151 298.308 270.354 298.308 268.15V223.849C298.308 221.647 296.555 219.853 294.344 219.853C293.817 219.849 293.295 219.95 292.808 220.149C292.321 220.348 291.878 220.642 291.505 221.014C291.132 221.385 290.836 221.827 290.635 222.314C290.434 222.801 290.332 223.322 290.334 223.849ZM230.065 173.494C230.065 177.81 229.057 182.353 226.72 186.026C224.852 188.96 221.844 191.639 218.173 191.639C214.49 191.639 211.469 188.975 209.587 186.03C207.242 182.359 206.234 177.813 206.234 173.494C206.234 169.173 207.243 164.624 209.586 160.949C211.466 158.002 214.487 155.331 218.173 155.331C221.846 155.331 224.855 158.017 226.721 160.953C229.057 164.628 230.065 169.175 230.065 173.494ZM218.173 199.64C223.818 199.64 228.635 196.717 232.062 192.347C236.207 187.061 238.039 180.135 238.039 173.493C238.039 166.848 236.206 159.917 232.061 154.627C228.635 150.255 223.819 147.327 218.173 147.327C212.512 147.327 207.681 150.245 204.242 154.629C200.093 159.917 198.26 166.847 198.26 173.493C198.26 180.136 200.093 187.061 204.242 192.345C207.682 196.727 212.514 199.64 218.173 199.64ZM136.553 149.034L133.921 149.359V255.842C133.921 290.765 152.028 322.445 175.819 346.931C187.465 358.917 200.8 369.563 215.016 378.346C227.393 385.994 241.158 392.691 255.175 396.705L256.001 396.941L256.827 396.705C270.844 392.691 284.608 385.994 296.985 378.346C311.2 369.563 324.536 358.917 336.182 346.931C359.973 322.446 378.08 290.765 378.08 255.842V149.359L375.448 149.034C345.51 145.34 317.021 132.654 292.442 115.462L291.668 114.92H220.335L219.561 115.462C194.98 132.655 166.492 145.34 136.553 149.034ZM56.033 256.002C56.033 265.936 47.959 274.01 38.025 274.01C28.091 274.01 20.017 265.935 20.017 256.002C20.017 246.067 28.089 237.989 38.025 237.989C47.961 237.989 56.033 246.067 56.033 256.002ZM237.992 38.008C237.992 28.08 246.071 20 256 20C265.929 20 274.008 28.08 274.008 38.008C274.008 47.945 265.94 56.03 256 56.03C246.06 56.03 237.992 47.945 237.992 38.008ZM256 455.969C265.937 455.969 274.008 464.057 274.008 473.991C274.008 483.922 265.932 491.999 256 491.999C246.068 491.999 237.992 483.922 237.992 473.991C237.992 464.057 246.062 455.969 256 455.969ZM455.967 256.002C455.967 246.067 464.039 237.989 473.975 237.989C483.912 237.989 491.983 246.066 491.983 256.002C491.983 265.936 483.909 274.01 473.975 274.01C464.041 274.01 455.967 265.936 455.967 256.002Z" fill="#88E6FF"/>
<path fill-rule="evenodd" clip-rule="evenodd" d="M293.874 333.67C289.64 333.67 284.935 327.182 284.935 318.511C284.935 309.84 289.64 303.361 293.874 303.361C298.061 303.361 302.766 309.84 302.766 318.511C302.766 327.182 298.061 333.67 293.874 333.67ZM293.874 289.36C281.03 289.36 270.961 302.162 270.961 318.511C270.961 334.86 281.029 347.671 293.874 347.671C306.718 347.671 316.786 334.86 316.786 318.511C316.787 302.162 306.718 289.36 293.874 289.36ZM263.01 296.361V340.671C263.01 344.529 259.858 347.672 256 347.672C252.142 347.672 248.99 344.529 248.99 340.671V296.361C248.99 292.489 252.142 289.36 256 289.36C259.858 289.36 263.01 292.488 263.01 296.361ZM218.173 333.67C213.939 333.67 209.234 327.182 209.234 318.511C209.234 309.84 213.939 303.361 218.173 303.361C222.36 303.361 227.065 309.84 227.065 318.511C227.065 327.182 222.361 333.67 218.173 333.67ZM218.173 289.36C205.282 289.36 195.26 302.162 195.26 318.511C195.26 334.86 205.281 347.671 218.173 347.671C231.017 347.671 241.038 334.86 241.038 318.511C241.039 302.162 231.017 289.36 218.173 289.36ZM332.642 230.85C336.829 230.85 341.534 237.328 341.534 246C341.534 254.671 336.829 261.149 332.642 261.149C328.455 261.149 323.75 254.67 323.75 246C323.75 237.329 328.455 230.85 332.642 230.85ZM332.642 275.151C345.486 275.151 355.555 262.349 355.555 246C355.555 229.651 345.487 216.854 332.642 216.854C319.798 216.854 309.73 229.651 309.73 246C309.73 262.349 319.798 275.151 332.642 275.151ZM179.358 261.149C175.171 261.149 170.466 254.67 170.466 246C170.466 237.329 175.171 230.85 179.358 230.85C183.545 230.85 188.25 237.328 188.25 246C188.25 254.671 183.545 261.149 179.358 261.149ZM179.358 216.854C166.514 216.854 156.445 229.651 156.445 246C156.445 262.349 166.513 275.151 179.358 275.151C192.202 275.151 202.271 262.349 202.271 246C202.271 229.651 192.202 216.854 179.358 216.854ZM294.344 275.151C293.423 275.155 292.51 274.977 291.659 274.626C290.807 274.276 290.033 273.761 289.382 273.11C288.73 272.459 288.214 271.686 287.862 270.835C287.511 269.983 287.331 269.071 287.334 268.15V223.849C287.332 222.928 287.512 222.017 287.864 221.166C288.215 220.315 288.732 219.543 289.383 218.892C290.035 218.242 290.809 217.727 291.66 217.377C292.511 217.027 293.423 216.849 294.344 216.853C298.202 216.853 301.307 219.982 301.307 223.849V268.15C301.308 272.022 298.202 275.151 294.344 275.151ZM217.703 216.854C221.561 216.854 224.666 219.983 224.666 223.85V268.151C224.666 272.023 221.561 275.152 217.703 275.152C216.782 275.156 215.869 274.978 215.018 274.627C214.166 274.277 213.392 273.762 212.741 273.111C212.089 272.46 211.572 271.687 211.221 270.836C210.87 269.984 210.69 269.072 210.693 268.151V223.85C210.691 222.929 210.87 222.017 211.222 221.167C211.574 220.316 212.09 219.543 212.742 218.893C213.393 218.242 214.167 217.728 215.019 217.378C215.87 217.028 216.782 216.85 217.703 216.854ZM256 261.149C251.813 261.149 247.108 254.67 247.108 246C247.108 237.329 251.813 230.85 256 230.85C260.187 230.85 264.892 237.328 264.892 246C264.892 254.671 260.187 261.149 256 261.149ZM256 216.854C243.156 216.854 233.087 229.651 233.087 246C233.087 262.349 243.155 275.151 256 275.151C268.844 275.151 278.912 262.349 278.912 246C278.912 229.651 268.844 216.854 256 216.854ZM293.874 158.33C298.061 158.33 302.766 164.813 302.766 173.494C302.766 182.16 298.061 188.639 293.874 188.639C289.64 188.639 284.935 182.16 284.935 173.494C284.935 164.813 289.64 158.33 293.874 158.33ZM270.961 173.494C270.961 189.843 281.029 202.64 293.874 202.64C306.718 202.64 316.786 189.843 316.786 173.494C316.786 157.14 306.718 144.329 293.874 144.329C281.03 144.328 270.961 157.139 270.961 173.494ZM248.99 195.639V151.329C248.99 147.471 252.142 144.328 256 144.328C259.858 144.328 263.01 147.471 263.01 151.329V195.639C263.01 199.511 259.858 202.64 256 202.64C252.142 202.64 248.99 199.511 248.99 195.639ZM218.173 158.33C222.36 158.33 227.065 164.559 227.065 173.494C227.065 182.424 222.36 188.639 218.173 188.639C213.939 188.639 209.234 182.424 209.234 173.494C209.234 164.559 213.939 158.33 218.173 158.33ZM218.173 202.64C231.017 202.64 241.038 189.843 241.038 173.494C241.038 157.14 231.017 144.329 218.173 144.329C205.282 144.329 195.26 157.14 195.26 173.494C195.26 189.843 205.282 202.64 218.173 202.64ZM473.975 271.011C465.694 271.011 458.966 264.278 458.966 256.002C458.966 247.722 465.694 240.989 473.975 240.989C482.256 240.989 488.983 247.722 488.983 256.002C488.984 264.278 482.256 271.011 473.975 271.011ZM375.08 255.842V152.011C346.71 148.511 317.728 136.81 290.722 117.92H221.279C194.273 136.81 165.291 148.511 136.921 152.011V255.842C136.921 323.319 206.693 379.702 256 393.821C305.307 379.702 375.08 323.319 375.08 255.842ZM271.008 473.992C271.008 482.263 264.28 489.001 256 489.001C247.719 489.001 240.991 482.264 240.991 473.992C240.991 465.712 247.719 458.97 256 458.97C264.28 458.969 271.008 465.711 271.008 473.992ZM459.014 414.551C459.014 422.832 452.286 429.569 444.006 429.569C435.725 429.569 428.997 422.832 428.997 414.551C428.997 406.271 435.725 399.543 444.006 399.543C452.286 399.542 459.014 406.27 459.014 414.551ZM83.05 414.551C83.05 422.832 76.275 429.569 68.041 429.569C59.761 429.569 52.986 422.832 52.986 414.551C52.986 406.271 59.761 399.543 68.041 399.543C76.275 399.542 83.05 406.27 83.05 414.551ZM38.025 271.011C29.745 271.011 23.017 264.278 23.017 256.002C23.017 247.722 29.745 240.989 38.025 240.989C46.306 240.989 53.034 247.722 53.034 256.002C53.033 264.278 46.305 271.011 38.025 271.011ZM52.986 97.449C52.986 89.173 59.761 82.431 68.041 82.431C76.274 82.431 83.05 89.173 83.05 97.449C83.05 105.73 76.275 112.462 68.041 112.462C59.761 112.462 52.986 105.73 52.986 97.449ZM240.992 38.008C240.992 29.742 247.72 23 256 23C264.28 23 271.008 29.742 271.008 38.009C271.008 46.294 264.28 53.031 256 53.031C247.72 53.031 240.992 46.293 240.992 38.008ZM428.997 97.449C428.997 89.173 435.725 82.431 444.006 82.431C452.287 82.431 459.014 89.173 459.014 97.449C459.014 105.73 452.286 112.462 444.006 112.462C435.725 112.462 428.997 105.73 428.997 97.449ZM473.975 226.992C460.425 226.992 448.992 236.369 445.84 249.001H389.053V176.758H444.005C447.863 176.758 450.968 173.62 450.968 169.762V125.612C463.624 122.46 472.987 111.032 472.987 97.449C472.987 81.453 460.002 68.43 444.005 68.43C428.008 68.43 414.976 81.453 414.976 97.449C414.976 111.032 424.386 122.46 436.994 125.612V162.761H389.052V145.692C389.052 142.032 386.276 139.002 382.653 138.71C346.614 135.84 316.173 118.921 297.025 105.221C295.827 104.376 294.398 103.921 292.932 103.918H263.01V66.171C275.619 63.028 285.029 51.6 285.029 38.008C285.029 22.021 271.997 8.99799 256 8.99799C240.003 8.99799 227.018 22.021 227.018 38.008C227.018 51.6 236.381 63.028 248.99 66.171V103.918H219.067C217.615 103.914 216.198 104.37 215.021 105.221C195.825 118.921 165.385 135.84 129.393 138.71C127.635 138.844 125.993 139.638 124.798 140.934C123.602 142.229 122.941 143.929 122.948 145.692V162.761H75.005V125.612C87.661 122.46 97.024 111.032 97.024 97.449C97.024 81.453 83.991 68.43 68.042 68.43C52.046 68.43 39.013 81.453 39.013 97.449C39.013 111.032 48.375 122.46 61.032 125.612V169.762C61.0305 170.682 61.2109 171.594 61.5629 172.444C61.9148 173.295 62.4314 174.067 63.0828 174.717C63.7342 175.367 64.5076 175.882 65.3587 176.232C66.2098 176.583 67.1217 176.761 68.042 176.758H122.948V249.001H66.16C63.055 236.369 51.622 226.992 38.025 226.992C22.029 226.992 8.99597 240.001 8.99597 256.002C8.99597 271.998 22.028 285.012 38.025 285.012C51.622 285.012 63.055 275.631 66.16 263.003H123.183C124.971 291.82 137.297 316.332 151.318 335.241H68.042C67.1213 335.238 66.209 335.417 65.3577 335.767C64.5064 336.118 63.7327 336.633 63.0813 337.284C62.4298 337.935 61.9134 338.708 61.5617 339.558C61.21 340.409 61.03 341.321 61.032 342.242V386.392C48.376 389.54 39.013 400.963 39.013 414.551C39.013 430.552 52.045 443.57 68.042 443.57C83.992 443.57 97.024 430.552 97.024 414.551C97.024 400.963 87.661 389.54 75.005 386.392V349.243H162.75C164.444 351.092 166.09 352.88 167.737 354.56C190.885 378.531 220.902 397.59 248.99 406.341V445.834C236.381 448.972 227.018 460.4 227.018 473.992C227.018 489.979 240.004 503.002 256 503.002C271.996 503.002 285.029 489.979 285.029 473.992C285.029 460.4 275.619 448.972 263.01 445.834V406.341C291.098 397.59 321.115 378.531 344.31 354.56C345.91 352.88 347.603 351.092 349.25 349.243H436.995V386.392C424.386 389.54 414.977 400.963 414.977 414.551C414.977 430.552 428.009 443.57 444.006 443.57C460.002 443.57 472.988 430.552 472.988 414.551C472.988 400.963 463.626 389.54 450.969 386.392V342.242C450.969 338.379 447.864 335.241 444.006 335.241H360.683C374.703 316.332 387.077 291.82 388.865 263.003H445.841C448.993 275.631 460.426 285.012 473.976 285.012C489.972 285.012 503.005 271.999 503.005 256.002C503.004 240.001 489.972 226.992 473.975 226.992Z" fill="#243570"/>
</svg>
