<svg width="300" height="300" viewBox="0 0 300 300" fill="none" xmlns="http://www.w3.org/2000/svg">
<path d="M268.269 124.038C270.659 124.038 272.596 122.101 272.596 119.712C272.596 117.322 270.659 115.385 268.269 115.385C265.88 115.385 263.942 117.322 263.942 119.712C263.942 122.101 265.88 124.038 268.269 124.038Z" fill="#223E90"/>
<path d="M248.077 213.462C250.467 213.462 252.404 211.524 252.404 209.135C252.404 206.745 250.467 204.808 248.077 204.808C245.687 204.808 243.75 206.745 243.75 209.135C243.75 211.524 245.687 213.462 248.077 213.462Z" fill="#223E90"/>
<path d="M240.865 34.6154C247.24 34.6154 252.404 39.7788 252.404 46.1538C252.404 52.5288 247.24 57.6923 240.865 57.6923C234.49 57.6923 229.327 52.5288 229.327 46.1538C229.327 39.7788 234.49 34.6154 240.865 34.6154Z" fill="#88E6FF"/>
<path d="M238.598 130.892L233.89 80.2327C182.486 79.2173 148.558 37.5692 148.558 37.5692C148.558 37.5692 114.629 79.2173 63.2307 80.2327L58.5172 130.892C55.5576 162.669 69.5942 193.638 95.4288 212.372L148.558 250.893L201.686 212.372C227.521 193.644 241.558 162.669 238.598 130.892Z" fill="white"/>
<path d="M217.004 134.088C219.254 158.244 208.587 181.788 188.948 196.033L148.558 225.312L108.173 196.033C88.5288 181.788 77.8615 158.244 80.1115 134.088L83.6942 95.5788C122.769 94.8115 148.558 63.15 148.558 63.15C148.558 63.15 174.352 94.8115 213.421 95.5788L217.004 134.088Z" fill="#88E6FF"/>
<path d="M197.596 271.154C199.986 271.154 201.923 269.217 201.923 266.827C201.923 264.437 199.986 262.5 197.596 262.5C195.207 262.5 193.269 264.437 193.269 266.827C193.269 269.217 195.207 271.154 197.596 271.154Z" fill="#223E90"/>
<path d="M193.269 37.5C195.659 37.5 197.596 35.5628 197.596 33.1731C197.596 30.7834 195.659 28.8462 193.269 28.8462C190.88 28.8462 188.942 30.7834 188.942 33.1731C188.942 35.5628 190.88 37.5 193.269 37.5Z" fill="#223E90"/>
<path d="M148.558 106.731C170.862 106.731 188.942 124.812 188.942 147.115C188.942 169.419 170.862 187.5 148.558 187.5C126.254 187.5 108.173 169.419 108.173 147.115C108.173 124.812 126.254 106.731 148.558 106.731Z" fill="white"/>
<path d="M177.502 153.421V157.742H162.248V136.425H167.169V153.421H177.502ZM156.802 148.944C157.108 149.648 157.264 150.49 157.264 151.471C157.264 152.671 157.039 153.687 156.589 154.517C156.139 155.347 155.544 156.017 154.8 156.531C154.062 157.038 153.214 157.408 152.25 157.638C151.292 157.869 150.299 157.985 149.279 157.985C145.873 157.985 142.404 156.846 140.181 155.342L142.344 151.051C142.425 151.149 142.685 151.339 143.123 151.621C143.562 151.898 144.11 152.181 144.762 152.458C145.408 152.74 146.135 152.988 146.937 153.208C147.739 153.433 148.547 153.542 149.372 153.542C151.108 153.542 151.979 153.012 151.979 151.95C151.979 151.552 151.853 151.217 151.593 150.958C151.328 150.698 150.97 150.462 150.508 150.254C150.047 150.04 149.504 149.85 148.876 149.665C147.179 149.187 145.645 148.763 144.266 148.09C141.98 146.975 141.081 145.429 141.081 143.18C141.081 142.062 141.295 141.069 141.71 140.209C142.131 139.349 142.703 138.623 143.424 138.034C144.145 137.446 144.981 136.996 145.933 136.696C147.596 136.168 149.471 136.124 151.143 136.459C153.286 136.874 154.829 137.544 156.635 138.588L154.472 142.673C154.414 142.592 154.201 142.442 153.843 142.223C153.479 142.003 153.029 141.773 152.493 141.53C151.951 141.288 151.362 141.08 150.722 140.901C150.081 140.723 149.441 140.63 148.801 140.63C147.036 140.63 146.158 141.219 146.158 142.401C146.158 142.759 146.251 143.065 146.441 143.301C147.393 144.513 150.217 144.651 153.393 145.927C154.212 146.261 154.91 146.671 155.481 147.162C156.048 147.651 156.499 148.26 156.802 148.944ZM136.235 148.944C136.546 149.648 136.696 150.49 136.696 151.471C136.696 152.671 136.471 153.687 136.021 154.517C135.571 155.347 134.977 156.017 134.239 156.531C133.494 157.038 132.646 157.408 131.683 157.638C130.725 157.869 129.733 157.985 128.712 157.985C125.318 157.985 121.836 156.845 119.614 155.342L121.777 151.051C121.858 151.149 122.117 151.339 122.556 151.621C123.663 152.312 125.089 152.858 126.369 153.208C127.171 153.433 127.979 153.542 128.804 153.542C130.546 153.542 131.417 153.012 131.417 151.95C131.417 151.552 131.285 151.217 131.025 150.958C130.765 150.698 130.402 150.462 129.946 150.254C128.34 149.511 125.969 149.198 123.698 148.09C121.381 146.959 120.514 145.4 120.514 143.18C120.514 142.062 120.727 141.069 121.148 140.209C121.569 139.349 122.135 138.623 122.856 138.034C124.964 136.315 127.982 135.94 130.575 136.459C132.724 136.872 134.286 137.558 136.067 138.588L133.904 142.673C133.846 142.592 133.639 142.442 133.275 142.223C132.917 142.003 132.467 141.773 131.925 141.53C131.383 141.288 130.794 141.08 130.154 140.901C129.514 140.723 128.873 140.63 128.233 140.63C126.473 140.63 125.59 141.219 125.59 142.401C125.59 142.984 125.812 143.481 126.715 143.948C127.085 144.138 127.552 144.311 128.112 144.473C129.959 145.007 131.17 145.262 132.825 145.926C133.644 146.26 134.342 146.671 134.914 147.161C135.482 147.649 135.933 148.259 136.235 148.944Z" fill="#223E90"/>
<path d="M103.846 250.962C106.236 250.962 108.173 249.024 108.173 246.635C108.173 244.245 106.236 242.308 103.846 242.308C101.457 242.308 99.5193 244.245 99.5193 246.635C99.5193 249.024 101.457 250.962 103.846 250.962Z" fill="#223E90"/>
<path d="M86.5383 43.2692C88.928 43.2692 90.8653 41.332 90.8653 38.9423C90.8653 36.5526 88.928 34.6154 86.5383 34.6154C84.1487 34.6154 82.2114 36.5526 82.2114 38.9423C82.2114 41.332 84.1487 43.2692 86.5383 43.2692Z" fill="#223E90"/>
<path d="M59.1347 253.846C70.2866 253.846 79.327 244.806 79.327 233.654C79.327 222.502 70.2866 213.462 59.1347 213.462C47.9828 213.462 38.9424 222.502 38.9424 233.654C38.9424 244.806 47.9828 253.846 59.1347 253.846Z" fill="#88E6FF"/>
<path d="M31.7307 138.462C34.1204 138.462 36.0577 136.524 36.0577 134.135C36.0577 131.745 34.1204 129.808 31.7307 129.808C29.341 129.808 27.4038 131.745 27.4038 134.135C27.4038 136.524 29.341 138.462 31.7307 138.462Z" fill="#223E90"/>
<path d="M148.558 228.196C147.949 228.197 147.357 228.004 146.864 227.647L106.479 198.368C86.1103 183.598 74.9059 158.865 77.2384 133.821L80.8211 95.3112C80.8867 94.6052 81.2101 93.9482 81.7294 93.4655C82.2487 92.9828 82.9276 92.7082 83.6364 92.6942C120.944 91.9615 146.07 61.6339 146.32 61.3275C146.59 60.9956 146.931 60.728 147.318 60.5442C147.705 60.3605 148.128 60.2651 148.556 60.2651C148.984 60.2651 149.407 60.3605 149.794 60.5442C150.181 60.728 150.522 60.9956 150.793 61.3275C151.042 61.6321 176.256 91.9633 213.476 92.6942C214.185 92.7081 214.864 92.9826 215.384 93.4653C215.903 93.948 216.226 94.6052 216.292 95.3112L219.874 133.821C222.208 158.863 211.005 183.596 190.64 198.368L150.249 227.646C149.758 228.004 149.165 228.197 148.558 228.196ZM86.3318 98.3677L82.9839 134.355C80.8395 157.379 91.1405 180.118 109.867 193.697L148.558 221.748L187.255 193.697C205.978 180.117 216.277 157.378 214.132 134.356L210.783 98.3677C191.043 97.3021 174.9 88.6621 164.673 81.4321C156.918 75.9496 151.413 70.5427 148.558 67.4908C145.704 70.5427 140.199 75.9496 132.444 81.4321C122.218 88.6621 106.075 97.3021 86.3318 98.3677Z" fill="#223E90"/>
<path d="M148.558 253.777C147.949 253.777 147.357 253.585 146.864 253.228L93.7354 214.707C80.6368 205.2 70.234 192.453 63.5474 177.714C56.8743 162.968 54.1509 146.741 55.6447 130.625L60.3581 79.965C60.4239 79.2591 60.7473 78.6021 61.2666 78.1195C61.7859 77.6368 62.4647 77.3622 63.1735 77.3481C88.9239 76.8393 110.115 65.6031 123.359 56.2662C137.818 46.0719 146.239 35.8477 146.322 35.7456C146.593 35.4142 146.934 35.1471 147.32 34.9636C147.707 34.7801 148.129 34.6848 148.557 34.6846H148.559C148.987 34.6847 149.41 34.78 149.796 34.9637C150.183 35.1474 150.524 35.4149 150.794 35.7467C150.876 35.8477 159.297 46.0719 173.757 56.2662C187.001 65.6031 208.194 76.8393 233.947 77.3481C234.656 77.3621 235.335 77.6366 235.854 78.1193C236.374 78.602 236.697 79.2591 236.763 79.965L241.47 130.625C242.964 146.741 240.241 162.969 233.568 177.715C226.882 192.454 216.479 205.202 203.38 214.706L150.251 253.227C149.759 253.585 149.166 253.777 148.558 253.777ZM65.8672 83.0314L61.3891 131.159C58.5385 161.763 72.2301 191.987 97.122 210.036L148.558 247.329L199.993 210.036C224.884 191.993 238.577 161.769 235.725 131.159L231.253 83.0314C205.139 81.8285 183.772 70.4123 170.282 60.8758C159.49 53.2466 152.042 45.7414 148.558 41.9406C145.072 45.7414 137.625 53.2466 126.834 60.8752C113.344 70.4123 91.9781 81.8285 65.8672 83.0314Z" fill="#223E90"/>
<path d="M148.558 190.385C124.699 190.385 105.288 170.974 105.288 147.115C105.288 123.257 124.699 103.846 148.558 103.846C172.416 103.846 191.827 123.257 191.827 147.115C191.827 170.974 172.416 190.385 148.558 190.385ZM148.558 109.615C127.88 109.615 111.058 126.438 111.058 147.115C111.058 167.793 127.88 184.615 148.558 184.615C169.235 184.615 186.058 167.793 186.058 147.115C186.058 126.438 169.235 109.615 148.558 109.615ZM240.865 60.5769C232.912 60.5769 226.442 54.1067 226.442 46.1539C226.442 38.201 232.912 31.7308 240.865 31.7308C248.818 31.7308 255.288 38.201 255.288 46.1539C255.288 54.1067 248.818 60.5769 240.865 60.5769ZM240.865 37.5C236.093 37.5 232.211 41.3821 232.211 46.1539C232.211 50.9256 236.093 54.8077 240.865 54.8077C245.637 54.8077 249.519 50.9256 249.519 46.1539C249.519 41.3821 245.637 37.5 240.865 37.5ZM59.1345 256.731C46.4099 256.731 36.0576 246.378 36.0576 233.654C36.0576 220.929 46.4099 210.577 59.1345 210.577C71.8592 210.577 82.2115 220.929 82.2115 233.654C82.2115 246.378 71.8592 256.731 59.1345 256.731ZM59.1345 216.346C49.5911 216.346 41.8268 224.11 41.8268 233.654C41.8268 243.197 49.5911 250.962 59.1345 250.962C68.678 250.962 76.4422 243.197 76.4422 233.654C76.4422 224.11 68.678 216.346 59.1345 216.346Z" fill="#223E90"/>
</svg>
