<svg width="100" height="100" viewBox="0 0 100 100" fill="none" xmlns="http://www.w3.org/2000/svg">
<path fill-rule="evenodd" clip-rule="evenodd" d="M32.1894 19.2303C32.2408 19.1416 32.2741 19.0436 32.2875 18.942C32.301 18.8404 32.2943 18.7371 32.2678 18.6381C32.2414 18.539 32.1957 18.4462 32.1333 18.3648C32.071 18.2835 31.9932 18.2152 31.9045 18.1639C31.725 18.0604 31.5118 18.0323 31.3117 18.0858C31.1116 18.1394 30.9409 18.2701 30.8371 18.4494L29.5781 20.6281L28.3191 18.4494C28.2679 18.3606 28.1996 18.2827 28.1182 18.2202C28.0369 18.1577 27.944 18.1119 27.8449 18.0853C27.7458 18.0588 27.6424 18.0521 27.5407 18.0655C27.439 18.079 27.3409 18.1123 27.2521 18.1637C27.1633 18.2149 27.0853 18.2831 27.0228 18.3644C26.9603 18.4457 26.9145 18.5385 26.8879 18.6375C26.8613 18.7366 26.8544 18.8399 26.8678 18.9415C26.8811 19.0432 26.9144 19.1413 26.9656 19.2301L28.2271 21.41H25.7068C25.4996 21.4101 25.301 21.4924 25.1544 21.6389C25.0079 21.7854 24.9255 21.984 24.9254 22.1912C24.9253 22.2939 24.9454 22.3955 24.9846 22.4904C25.0239 22.5853 25.0814 22.6714 25.154 22.744C25.2266 22.8166 25.3128 22.8742 25.4076 22.9134C25.5025 22.9526 25.6042 22.9728 25.7068 22.9727H28.2263L26.966 25.1543C26.864 25.3337 26.8371 25.5461 26.8912 25.7452C26.9452 25.9442 27.0759 26.1139 27.2545 26.217C27.4332 26.3202 27.6454 26.3485 27.8448 26.2958C28.0443 26.243 28.2148 26.1135 28.3191 25.9356L29.5783 23.7537L30.8375 25.9356C30.9062 26.0545 31.0051 26.1532 31.1241 26.2218C31.2431 26.2904 31.378 26.3265 31.5154 26.3264C31.6521 26.3264 31.7867 26.2887 31.9051 26.2205C32.2783 26.0059 32.4045 25.5262 32.1896 25.1539L30.9308 22.9725H33.4488C33.5515 22.9727 33.6532 22.9526 33.7481 22.9134C33.843 22.8742 33.9292 22.8166 34.0018 22.744C34.0744 22.6714 34.1319 22.5852 34.1711 22.4903C34.2103 22.3954 34.2304 22.2937 34.2303 22.191C34.2303 22.0884 34.21 21.9868 34.1708 21.892C34.1315 21.7972 34.0739 21.7111 34.0014 21.6385C33.9288 21.566 33.8426 21.5085 33.7478 21.4692C33.653 21.43 33.5514 21.4098 33.4488 21.4098H30.9297L32.1894 19.2303ZM51.8943 22.1912C51.8943 22.2939 51.9145 22.3955 51.9537 22.4903C51.993 22.5851 52.0506 22.6713 52.1231 22.7439C52.1957 22.8164 52.2819 22.874 52.3767 22.9132C52.4715 22.9525 52.5731 22.9727 52.6758 22.9727H55.1935L53.9347 25.1539C53.7203 25.5258 53.8478 26.0063 54.2199 26.2209C54.5926 26.436 55.0732 26.3098 55.2885 25.9362L56.5451 23.7531L57.806 25.9354C57.8748 26.0543 57.9736 26.1531 58.0926 26.2217C58.2116 26.2903 58.3466 26.3264 58.484 26.3264C58.621 26.326 58.7555 26.2896 58.874 26.2209C58.9925 26.1521 59.0909 26.0535 59.1594 25.9348C59.2278 25.8161 59.2639 25.6816 59.264 25.5446C59.2641 25.4075 59.2282 25.2729 59.1599 25.1541L57.9012 22.9727H60.4174C60.52 22.9729 60.6217 22.9528 60.7166 22.9136C60.8115 22.8744 60.8977 22.8168 60.9703 22.7442C61.0429 22.6716 61.1005 22.5854 61.1397 22.4905C61.1789 22.3956 61.199 22.2939 61.1988 22.1912C61.1988 22.0886 61.1786 21.987 61.1393 21.8922C61.1 21.7974 61.0425 21.7113 60.9699 21.6387C60.8974 21.5662 60.8112 21.5086 60.7164 21.4694C60.6216 21.4301 60.52 21.41 60.4174 21.41H57.9004L59.1601 19.2303C59.2634 19.0508 59.2912 18.8377 59.2374 18.6377C59.1836 18.4378 59.0526 18.2673 58.8732 18.1639C58.6937 18.0604 58.4805 18.0324 58.2803 18.086C58.0802 18.1395 57.9095 18.2703 57.8056 18.4496L56.5451 20.6287L55.2885 18.4489C55.2371 18.36 55.1688 18.282 55.0874 18.2195C55.006 18.157 54.913 18.1112 54.8139 18.0846C54.6137 18.0309 54.4003 18.059 54.2208 18.1626C54.0412 18.2662 53.9102 18.437 53.8565 18.6372C53.8029 18.8374 53.8309 19.0508 53.9345 19.2303L55.1943 21.41H52.6758C52.4686 21.4102 52.27 21.4926 52.1236 21.6391C51.9771 21.7855 51.8946 21.9841 51.8943 22.1912ZM78.6562 18.7106L72.8549 23.4219L71.048 20.7285C70.9322 20.5565 70.7529 20.4375 70.5494 20.3976C70.3459 20.3577 70.1349 20.4001 69.9627 20.5156C69.6045 20.7561 69.5115 21.2438 69.7515 21.6012L72.0349 25.0033C72.0955 25.0936 72.1742 25.1702 72.266 25.2283C72.3578 25.2864 72.4607 25.3246 72.5682 25.3407C72.6757 25.3567 72.7853 25.3502 72.8901 25.3215C72.9949 25.2927 73.0925 25.2425 73.1767 25.1739L79.6422 19.9239C79.8027 19.7933 79.9049 19.6044 79.9263 19.3986C79.9476 19.1928 79.8864 18.9869 79.756 18.8262C79.4849 18.4922 78.9908 18.4389 78.6562 18.7106ZM65.3804 22.1912C65.3804 18.2563 68.5838 15.0526 72.5189 15.0526C74.0525 15.0526 75.515 15.5323 76.7492 16.4422C76.8318 16.5029 76.9016 16.5794 76.9546 16.6671C77.0076 16.7548 77.0429 16.8521 77.0582 16.9535C77.0736 17.0548 77.0689 17.1582 77.0443 17.2577C77.0197 17.3572 76.9757 17.4509 76.9148 17.5334C76.8541 17.6162 76.7776 17.6861 76.6898 17.7393C76.6019 17.7925 76.5045 17.8278 76.403 17.8433C76.3015 17.8588 76.198 17.8541 76.0983 17.8296C75.9986 17.805 75.9047 17.7611 75.8221 17.7002C74.8662 16.9931 73.7079 16.6126 72.5189 16.6151C69.4449 16.6151 66.9433 19.1174 66.9433 22.191C66.9433 25.266 69.4439 27.7674 72.5189 27.7674C74.8881 27.7674 77.0045 26.2658 77.7851 24.0287C77.8188 23.9319 77.8713 23.8427 77.9395 23.7662C78.0077 23.6897 78.0903 23.6273 78.1826 23.5828C78.275 23.5382 78.3752 23.5123 78.4775 23.5065C78.5798 23.5007 78.6823 23.5152 78.7791 23.549C78.975 23.6173 79.1358 23.7606 79.2262 23.9474C79.3165 24.1341 79.329 24.3492 79.2609 24.5451C78.2619 27.4082 75.5506 29.3297 72.5189 29.3297C68.5828 29.3299 65.3804 26.1272 65.3804 22.1912ZM46.9336 21.41H44.417L45.6734 19.2309C45.7249 19.1421 45.7583 19.0441 45.7718 18.9425C45.7854 18.8408 45.7787 18.7374 45.7523 18.6383C45.7258 18.5392 45.6801 18.4463 45.6177 18.3649C45.5553 18.2835 45.4775 18.2152 45.3887 18.1639C45.2093 18.0604 44.9961 18.0324 44.7961 18.0859C44.5961 18.1395 44.4255 18.2703 44.3219 18.4496L43.0617 20.6276L41.8031 18.4492C41.7518 18.3604 41.6836 18.2826 41.6022 18.2202C41.5209 18.1577 41.428 18.1119 41.329 18.0854C41.2299 18.0589 41.1266 18.0521 41.0249 18.0655C40.9233 18.0789 40.8252 18.1121 40.7364 18.1634C40.6476 18.2147 40.5698 18.2829 40.5073 18.3643C40.4449 18.4456 40.3991 18.5385 40.3726 18.6376C40.346 18.7366 40.3392 18.8399 40.3526 18.9416C40.366 19.0433 40.3993 19.1413 40.4506 19.2301L41.7103 21.4098H39.1906C38.9835 21.4102 38.785 21.4926 38.6386 21.6391C38.4921 21.7855 38.4096 21.9839 38.4092 22.191C38.4093 22.3983 38.4916 22.597 38.6382 22.7435C38.7847 22.89 38.9834 22.9724 39.1906 22.9725H41.7094L40.4506 25.1539C40.2357 25.5262 40.3625 26.0059 40.7355 26.2207C40.9149 26.3243 41.1281 26.3524 41.3282 26.299C41.5283 26.2455 41.6991 26.1148 41.8029 25.9356L43.0617 23.7541L44.3219 25.9352C44.3729 26.0242 44.4411 26.1023 44.5224 26.1648C44.6037 26.2274 44.6966 26.2733 44.7958 26.2998C44.8949 26.3263 44.9983 26.333 45.1 26.3194C45.2018 26.3058 45.2998 26.2722 45.3885 26.2205C45.7625 26.0051 45.8879 25.5264 45.6728 25.1533L44.4174 22.9725H46.9336C47.0362 22.9726 47.1379 22.9524 47.2327 22.9132C47.3276 22.874 47.4138 22.8164 47.4864 22.7438C47.559 22.6713 47.6165 22.5851 47.6557 22.4902C47.695 22.3954 47.7151 22.2937 47.715 22.191C47.7148 21.9839 47.6324 21.7853 47.4859 21.6388C47.3394 21.4924 47.1407 21.4101 46.9336 21.41ZM4.08494 59.103C3.85232 58.5744 3.8408 58.0639 4.05193 57.5262C4.26287 56.9887 4.61385 56.6192 5.14314 56.3869L11.7428 53.4924C12.0029 53.3778 12.2839 53.3185 12.5681 53.3182C12.9683 53.3181 13.3599 53.4344 13.6952 53.6529C14.0304 53.8715 14.2949 54.1828 14.4562 54.549L26.2633 81.3871C26.4959 81.9158 26.5056 82.4268 26.2959 82.9649C26.0861 83.5024 25.7328 83.8711 25.2043 84.103L18.6047 86.9975C17.5691 87.4516 16.3467 86.976 15.8914 85.9408L4.08494 59.103ZM24.9844 31.5545C23.3912 31.5545 22.0974 30.261 22.0974 28.6678V15.7168C22.0974 14.1239 23.3908 12.8278 24.9844 12.8278H79.8711C81.4638 12.8278 82.7597 14.124 82.7597 15.7168V28.6678C82.7597 30.2608 81.4635 31.5545 79.8711 31.5545H24.9844Z" fill="#88E6FF"/>
<path fill-rule="evenodd" clip-rule="evenodd" d="M64.7945 22.1912C64.7945 17.9334 68.2597 14.4666 72.5189 14.4666C74.1795 14.4666 75.7636 14.9863 77.0968 15.9705C77.7052 16.4178 77.8338 17.2733 77.3863 17.8811C77.1712 18.1731 76.8489 18.3678 76.4903 18.4223C76.1317 18.4768 75.7661 18.3867 75.474 18.1717C74.6148 17.5369 73.5912 17.201 72.5187 17.201C69.7675 17.201 67.5291 19.4412 67.5291 22.191C67.5291 24.9432 69.7675 27.1815 72.5187 27.1815C74.6386 27.1815 76.5326 25.8375 77.2318 23.8358C77.4798 23.1229 78.2591 22.7477 78.9722 22.9959C79.6853 23.2461 80.0621 24.0254 79.814 24.7383C78.7324 27.8358 75.8002 29.9158 72.5187 29.9158C68.2597 29.9158 64.7945 26.4508 64.7945 22.1912ZM72.9838 22.5623L71.5347 20.4022C71.3319 20.1016 71.0183 19.8936 70.6625 19.8237C70.3067 19.7538 69.9378 19.8276 69.6363 20.0291C69.0115 20.451 68.8433 21.3004 69.265 21.9277L71.5484 25.3299C71.6736 25.5159 71.8425 25.6684 72.0404 25.7739C72.2382 25.8795 72.4589 25.9349 72.6832 25.9354C72.9957 25.9354 73.3007 25.8281 73.5461 25.6287L80.0115 20.3787C80.5968 19.9022 80.6869 19.0428 80.2109 18.4568C79.9824 18.175 79.6513 17.9955 79.2905 17.9578C78.9297 17.92 78.5686 18.0271 78.2867 18.2555L72.9838 22.5623ZM51.3084 22.1912C51.3084 21.4375 51.9213 20.824 52.6758 20.824H54.1791L53.4275 19.5236C53.0508 18.8692 53.275 18.0332 53.9273 17.6563C54.5816 17.2772 55.4177 17.502 55.7963 18.1563L56.5461 19.457L57.2986 18.1563C57.6754 17.502 58.5115 17.2793 59.1658 17.6563C59.8201 18.0332 60.0443 18.8692 59.6675 19.5236L58.9158 20.824H60.4174C60.7771 20.8283 61.1207 20.9743 61.3737 21.2302C61.6266 21.4862 61.7684 21.8315 61.7684 22.1913C61.7684 22.5511 61.6266 22.8965 61.3737 23.1524C61.1207 23.4084 60.7771 23.5543 60.4174 23.5586H58.9158L59.6675 24.8611C59.8484 25.1754 59.8972 25.5485 59.8031 25.8987C59.7091 26.2488 59.4798 26.5473 59.1658 26.7285C58.9585 26.8483 58.7234 26.9117 58.4839 26.9123C58.2438 26.9123 58.0078 26.8491 57.7998 26.7291C57.5917 26.609 57.4189 26.4364 57.2986 26.2285L56.5461 24.926L55.7963 26.2285C55.6143 26.5422 55.3154 26.7709 54.9651 26.8646C54.6148 26.9583 54.2416 26.9094 53.9273 26.7285C53.2748 26.3516 53.0508 25.5139 53.4275 24.8611L54.1791 23.5586H52.6758C52.3131 23.5586 51.9653 23.4145 51.7089 23.1581C51.4525 22.9016 51.3084 22.5539 51.3084 22.1912ZM24.3392 22.1912C24.3392 21.4375 24.9511 20.824 25.7066 20.824H27.2109L26.4584 19.5236C26.0816 18.8692 26.3039 18.0332 26.9591 17.6563C27.1145 17.5662 27.2861 17.5077 27.4641 17.4841C27.6421 17.4606 27.823 17.4723 27.9965 17.5188C28.17 17.5652 28.3325 17.6454 28.4749 17.7548C28.6173 17.8642 28.7367 18.0006 28.8263 18.1563L29.5781 19.457L30.3298 18.1563C30.7066 17.502 31.5427 17.2793 32.197 17.6563C32.8513 18.0332 33.0746 18.8692 32.6968 19.5236L31.9451 20.824H33.4484C33.8082 20.8283 34.1518 20.9743 34.4047 21.2302C34.6576 21.4862 34.7994 21.8315 34.7994 22.1913C34.7994 22.5511 34.6576 22.8965 34.4047 23.1524C34.1518 23.4084 33.8082 23.5543 33.4484 23.5586H31.9451L32.6968 24.8611C33.0746 25.5137 32.8513 26.3516 32.197 26.7285C31.9896 26.8481 31.7546 26.9114 31.5152 26.9123C31.275 26.9124 31.039 26.8492 30.8309 26.7292C30.6229 26.6092 30.45 26.4365 30.3298 26.2285L29.5781 24.926L28.8263 26.2285C28.6448 26.5422 28.3462 26.771 27.9961 26.8647C27.6461 26.9584 27.2731 26.9095 26.9591 26.7285C26.3039 26.3516 26.0816 25.5139 26.4584 24.8611L27.2109 23.5586H25.7066C25.527 23.5586 25.3492 23.5233 25.1833 23.4546C25.0174 23.3859 24.8666 23.2851 24.7397 23.1582C24.6127 23.0312 24.512 22.8804 24.4433 22.7145C24.3745 22.5486 24.3392 22.3708 24.3392 22.1912ZM37.8234 22.1912C37.8234 21.4375 38.4373 20.824 39.1908 20.824H40.6951L39.9433 19.5236C39.5666 18.8692 39.789 18.0332 40.4431 17.6563C40.5985 17.5662 40.7701 17.5077 40.9481 17.4841C41.1261 17.4605 41.307 17.4722 41.4805 17.5187C41.654 17.5651 41.8166 17.6454 41.959 17.7548C42.1013 17.8642 42.2208 18.0006 42.3103 18.1563L43.0619 19.457L43.8144 18.1563C44.1912 17.502 45.0265 17.2793 45.6808 17.6563C46.3351 18.0332 46.5603 18.8692 46.1806 19.5236L45.4308 20.824H46.9332C47.2957 20.8242 47.6434 20.9683 47.8998 21.2247C48.1561 21.481 48.3003 21.8287 48.3005 22.1912C48.3006 22.3708 48.2653 22.5487 48.1966 22.7146C48.1279 22.8805 48.0272 23.0313 47.9002 23.1583C47.7732 23.2853 47.6225 23.386 47.4565 23.4547C47.2906 23.5234 47.1128 23.5587 46.9332 23.5586H45.4308L46.1806 24.8611C46.5601 25.5137 46.3349 26.3516 45.6808 26.7285C45.4736 26.8485 45.2385 26.9119 44.999 26.9123C44.7589 26.9123 44.5231 26.849 44.3152 26.729C44.1073 26.609 43.9347 26.4364 43.8146 26.2285L43.0621 24.926L42.3105 26.2285C41.9338 26.8828 41.0976 27.1055 40.4433 26.7285C39.789 26.3516 39.5668 25.5139 39.9435 24.8611L40.6953 23.5586H39.191C38.8284 23.5585 38.4806 23.4143 38.2242 23.1579C37.9678 22.9016 37.8236 22.5538 37.8234 22.1912ZM22.6834 15.7168V28.6678C22.6834 29.9373 23.7144 30.9686 24.9843 30.9686H79.8711C81.14 30.9686 82.1738 29.9373 82.1738 28.6678V15.7168C82.1738 14.4471 81.14 13.4137 79.8711 13.4137H24.9843C23.7144 13.4139 22.6834 14.4473 22.6834 15.7168ZM88.1091 20.992C88.2646 20.9921 88.4136 21.0539 88.5236 21.1638C88.6335 21.2737 88.6953 21.4227 88.6955 21.5781V22.8047C88.6955 22.8817 88.6804 22.9579 88.6509 23.0291C88.6215 23.1002 88.5783 23.1648 88.5238 23.2192C88.4694 23.2736 88.4047 23.3167 88.3335 23.3461C88.2624 23.3755 88.1861 23.3906 88.1091 23.3904H84.9076V20.9918L88.1091 20.992ZM95.5037 22.1912C95.5037 24.0879 93.9627 25.6289 92.0677 25.6289C91.4722 25.6289 90.9035 25.4785 90.4017 25.201C91.0349 24.5953 91.4291 23.7461 91.4291 22.8047V21.5781C91.4291 20.6367 91.0347 19.7891 90.4017 19.1836C90.9117 18.9019 91.4851 18.7546 92.0677 18.7557C93.9627 18.7557 95.5037 20.2967 95.5037 22.1912ZM24.9843 33.7031H79.8711C82.648 33.7031 84.9076 31.4432 84.9076 28.6678V26.125H87.3123C88.4785 27.5389 90.205 28.3631 92.0677 28.3631C95.4705 28.3631 98.2383 25.5938 98.2383 22.1912C98.2383 18.7891 95.4705 16.0215 92.0677 16.0215C90.205 16.0215 88.4785 16.8457 87.3123 18.2578H84.9076V15.7168C84.9076 12.9393 82.648 10.6795 79.8711 10.6795H24.9843C22.2084 10.6795 19.9486 12.9391 19.9486 15.7168V28.6678C19.9486 31.4432 22.2084 33.7031 24.9843 33.7031ZM91.4392 63.3651L65.4607 73.3963C65.1832 73.5039 64.9002 73.6153 64.6115 73.7266C60.8082 75.2108 56.0757 77.0565 52.4295 76.0002L38.5795 71.9902C36.2455 71.3145 33.9527 71.5117 31.7693 72.576L25.9738 75.3985L17.8431 56.9121C21.9213 54.9842 25.925 53.084 29.8865 51.1445C36.499 47.9043 40.3179 46.4746 48.2244 52.0721C48.3566 52.1656 48.5056 52.2361 48.6617 52.2774L61.2177 55.6328C62.3783 55.9432 63.3533 56.6914 63.9607 57.742C64.5681 58.7926 64.7318 60.0094 64.4211 61.1717C64.1105 62.3319 63.3625 63.3063 62.3121 63.9137C61.2609 64.5213 60.0441 64.6854 58.8828 64.3744L42.1943 59.9156C41.4656 59.7203 40.7158 60.1557 40.5211 60.8844C40.3254 61.6131 40.7591 62.3629 41.4896 62.5582L58.1771 67.017C60.0425 67.5152 61.997 67.2535 63.6814 66.2807C65.3631 65.308 66.564 63.7436 67.0638 61.8764C67.2775 61.08 67.3527 60.2529 67.2863 59.4311L84.6502 54.3234C90.3787 52.6361 94.3566 53.2746 95.2902 56.0268C96.1773 58.6365 94.2695 62.2713 91.4392 63.3651ZM25.7498 82.752C25.9041 82.3574 25.8959 82.0096 25.7267 81.6231L13.9197 54.785C13.8041 54.5228 13.6148 54.3 13.3748 54.1436C13.1347 53.9872 12.8544 53.904 12.5679 53.9041C12.3713 53.9041 12.1718 53.9451 11.9779 54.0291L5.37829 56.9236C4.99235 57.0938 4.75172 57.3457 4.59723 57.7402C4.44293 58.1326 4.45114 58.4805 4.62106 58.867L16.4273 85.7049C16.7535 86.449 17.6248 86.7867 18.3689 86.4609L24.9685 83.5664C25.3556 83.3963 25.5972 83.1443 25.7498 82.752ZM97.8808 55.1483C97.199 53.1385 95.5724 51.6815 93.3027 51.0428C90.8631 50.3572 87.6908 50.5779 83.8783 51.7008L66.5541 56.7967C66.4835 56.6529 66.4082 56.5114 66.3281 56.3727C65.355 54.691 63.791 53.4899 61.9238 52.99L49.6029 49.6988C40.5957 43.3983 35.7732 45.2145 28.6838 48.6891C24.7591 50.6109 20.7884 52.4957 16.7416 54.4078L16.4236 53.6832C15.49 51.5621 13.0033 50.5934 10.8806 51.5252L4.28102 54.4197C3.23434 54.8785 2.46422 55.6832 2.04997 56.7459C1.63454 57.8106 1.65934 58.9236 2.11891 59.9686L13.9234 86.8067C14.6172 88.3807 16.1636 89.3203 17.7828 89.3203C18.3451 89.3203 18.9195 89.2047 19.4662 88.9647L26.0658 86.0701C27.1134 85.6113 27.8824 84.8067 28.2988 83.7442C28.7123 82.6817 28.6865 81.5662 28.2281 80.5215L27.0757 77.9022L32.966 75.0332C34.5447 74.2658 36.1326 74.1289 37.8207 74.6172L51.6677 78.6272C52.6869 78.9223 53.7398 79.0488 54.8068 79.0488C58.4943 79.0471 62.3574 77.5412 65.6049 76.2756C65.8906 76.1645 66.1718 76.0527 66.4449 75.9475L92.4234 65.9162C96.6404 64.2871 99.2418 59.1541 97.8808 55.1483Z" fill="#243570"/>
</svg>
