<svg width="100" height="100" viewBox="0 0 100 100" fill="none" xmlns="http://www.w3.org/2000/svg">
<path fill-rule="evenodd" clip-rule="evenodd" d="M37.4322 54.4229C37.4322 63.8357 45.0919 71.4955 54.5048 71.4955C63.9187 71.4955 71.5775 63.8367 71.5775 54.4229C71.5775 45.009 63.9187 37.3512 54.5048 37.3512C45.0919 37.3512 37.4322 45.0098 37.4322 54.4229ZM54.7369 17.5732V5.29434L65.4201 17.5732H54.7369ZM54.5048 33.1961C66.2099 33.1961 75.7335 42.7174 75.7335 54.4229C75.7335 66.1295 66.2115 75.6514 54.5048 75.6514C42.799 75.6514 33.2781 66.1283 33.2781 54.4229C33.2781 42.7186 42.8003 33.1961 54.5048 33.1961ZM77.3386 73.9328L74.0164 77.257C73.2205 78.0533 73.2203 79.3481 74.0164 80.1442L89.2863 95.4158C90.0816 96.2113 91.3779 96.2106 92.1734 95.416L95.5003 92.0938C96.2935 91.3016 96.2931 89.9986 95.5005 89.2063L80.2259 73.9326C80.0364 73.743 79.8114 73.5926 79.5637 73.4902C79.316 73.3877 79.0504 73.3352 78.7824 73.3356C78.5142 73.3351 78.2487 73.3876 78.0009 73.4901C77.7531 73.5926 77.5281 73.7431 77.3386 73.9328ZM72.9501 76.1131L68.9162 72.0781L69.3921 71.6662C70.2334 70.9387 71.0209 70.1512 71.7484 69.31L72.1605 68.8328L76.1947 72.8682L72.9501 76.1131ZM19.2005 33.3846C17.1992 33.3846 14.9576 33.1606 13.0548 32.5074C12.0818 32.1734 10.3542 31.4231 10.3542 30.1793C10.3542 25.3008 14.3226 21.3357 19.2005 21.3357C24.0777 21.3357 28.0441 25.302 28.0441 30.1793C28.0441 31.4229 26.3167 32.1732 25.3439 32.5072C23.4419 33.1606 21.2013 33.3846 19.2005 33.3846Z" fill="#88E6FF"/>
<path fill-rule="evenodd" clip-rule="evenodd" d="M8.20591 43.5893C8.20591 42.8355 8.81899 42.2227 9.57349 42.2227H27.9407C28.303 42.223 28.6504 42.3671 28.9066 42.6233C29.1628 42.8795 29.3069 43.2269 29.3073 43.5893C29.3072 43.9518 29.1633 44.2994 28.907 44.5559C28.6508 44.8123 28.3032 44.9565 27.9407 44.9568H9.57349C9.21081 44.9567 8.86303 44.8126 8.60658 44.5562C8.35013 44.2997 8.20601 43.9519 8.20591 43.5893ZM19.2004 21.9217C23.7534 21.9217 27.4581 25.6244 27.4581 30.1793C27.4581 31.4172 24.0649 32.7986 19.2004 32.7986C14.3331 32.7986 10.9401 31.4172 10.9401 30.1793C10.9401 25.6246 14.6458 21.9217 19.2004 21.9217ZM16.118 13.54C16.118 11.8416 17.5012 10.4604 19.2004 10.4604C20.8989 10.4604 22.2821 11.8416 22.2821 13.54C22.2821 15.2395 20.8989 16.6225 19.2004 16.6225C17.5012 16.6225 16.118 15.2393 16.118 13.54ZM12.11 34.4529C14.0032 35.1496 16.5206 35.5328 19.2004 35.5328C24.27 35.5328 30.1922 34.1303 30.1922 30.1793C30.1922 24.5014 25.8663 19.816 20.3391 19.2453C23.0026 18.7141 25.0161 16.3586 25.0161 13.5398C25.0161 10.3334 22.4069 7.72598 19.2004 7.72598C15.993 7.72598 13.3838 10.3334 13.3838 13.5398C13.3838 16.3586 15.3975 18.7141 18.0618 19.2453C12.5319 19.816 8.20591 24.5014 8.20591 30.1793C8.20591 31.4715 8.88423 33.2646 12.11 34.4529ZM8.20591 53.4957C8.20586 53.3161 8.2412 53.1382 8.3099 52.9723C8.37861 52.8063 8.47935 52.6556 8.60635 52.5286C8.73335 52.4016 8.88413 52.3008 9.05008 52.2321C9.21602 52.1634 9.39388 52.1281 9.57349 52.1281H25.837C26.0166 52.128 26.1945 52.1633 26.3604 52.232C26.5264 52.3007 26.6772 52.4014 26.8042 52.5285C26.9312 52.6555 27.032 52.8063 27.1007 52.9722C27.1693 53.1382 27.2046 53.3161 27.2045 53.4957C27.2045 53.6753 27.1692 53.853 27.1004 54.0189C27.0317 54.1848 26.9309 54.3355 26.8039 54.4624C26.6769 54.5893 26.5262 54.6899 26.3602 54.7586C26.1943 54.8272 26.0165 54.8624 25.837 54.8623H9.57349C9.21092 54.8624 8.86316 54.7185 8.60669 54.4622C8.35023 54.2059 8.20606 53.8583 8.20591 53.4957ZM8.20591 63.402C8.20588 63.2224 8.24124 63.0445 8.30996 62.8786C8.37867 62.7126 8.47941 62.5619 8.60641 62.4349C8.7334 62.3079 8.88417 62.2071 9.05011 62.1384C9.21604 62.0697 9.39389 62.0343 9.57349 62.0344H27.2569C27.6196 62.0344 27.9674 62.1785 28.2239 62.435C28.4803 62.6914 28.6244 63.0393 28.6245 63.402C28.6245 64.1574 28.0106 64.7686 27.2569 64.7686H9.57349C9.21092 64.7687 8.86316 64.6247 8.60669 64.3685C8.35023 64.1122 8.20606 63.7645 8.20591 63.402ZM34.2821 73.3074C34.2823 73.4871 34.247 73.665 34.1783 73.831C34.1097 73.997 34.009 74.1478 33.8819 74.2748C33.7549 74.4019 33.6041 74.5026 33.4381 74.5713C33.2721 74.6399 33.0941 74.6752 32.9145 74.675H9.57349C9.39258 74.6772 9.21305 74.6434 9.04529 74.5757C8.87753 74.5079 8.72488 74.4076 8.59619 74.2804C8.4675 74.1533 8.36533 74.0018 8.2956 73.8349C8.22587 73.6679 8.18996 73.4888 8.18996 73.3079C8.18996 73.127 8.22587 72.9479 8.2956 72.7809C8.36533 72.614 8.4675 72.4626 8.59619 72.3354C8.72488 72.2082 8.87753 72.1079 9.04529 72.0402C9.21305 71.9724 9.39258 71.9387 9.57349 71.9408H32.9145C33.0941 71.9406 33.2719 71.9758 33.4379 72.0444C33.6039 72.1129 33.7547 72.2136 33.8817 72.3405C34.0087 72.4674 34.1095 72.6182 34.1782 72.7841C34.2469 72.95 34.2822 73.1278 34.2821 73.3074ZM49.3057 59.2029L63.0592 48.0346C63.6456 47.5594 64.5067 47.6477 64.9809 48.2359C65.0942 48.3751 65.179 48.5353 65.2303 48.7073C65.2816 48.8792 65.2985 49.0596 65.28 49.2382C65.2614 49.4167 65.2079 49.5898 65.1223 49.7476C65.0368 49.9053 64.921 50.0447 64.7815 50.1576L49.868 62.2689C49.6246 62.4669 49.3206 62.5753 49.0069 62.576C48.7823 62.5758 48.5612 62.5204 48.3629 62.4148C48.1647 62.3092 47.9954 62.1566 47.87 61.9703L42.6 54.1207C42.4999 53.9717 42.43 53.8044 42.3945 53.6284C42.3591 53.4523 42.3587 53.2711 42.3933 53.0949C42.428 52.9187 42.4971 52.7511 42.5966 52.6016C42.6961 52.4521 42.8241 52.3238 42.9733 52.2238C43.1222 52.1237 43.2893 52.0539 43.4651 52.0184C43.641 51.9829 43.8221 51.9823 43.9981 52.0168C44.1742 52.0513 44.3417 52.1201 44.4912 52.2193C44.6406 52.3185 44.7691 52.4462 44.8692 52.5951L49.3057 59.2029ZM69.4284 54.4228C69.4284 46.1945 62.7358 39.4994 54.5049 39.4994C46.2766 39.4994 39.5815 46.1947 39.5815 54.4228C39.5815 62.651 46.2768 69.3473 54.5049 69.3473C62.7358 69.3473 69.4284 62.6512 69.4284 54.4228ZM36.8461 54.4228C36.8461 64.1592 44.7684 72.0814 54.5047 72.0814C64.243 72.0814 72.1633 64.1592 72.1633 54.4228C72.1633 44.6865 64.243 36.7652 54.5047 36.7652C44.7684 36.7652 36.8461 44.6865 36.8461 54.4228ZM95.0862 91.6793L91.7592 95.0016C91.1987 95.5695 90.2704 95.5695 89.7006 95.0016L74.4307 79.7299C73.8627 79.1619 73.8627 78.2373 74.4307 77.6711L77.753 74.3469C78.0379 74.0639 78.4092 73.9213 78.7823 73.9213C79.1553 73.9213 79.5276 74.0637 79.8116 74.3469L95.0862 89.6205C95.6467 90.1867 95.6467 91.1113 95.0862 91.6793ZM4.49106 88.6951H65.7686V74.9021C62.427 76.7475 58.5862 77.7998 54.5047 77.7998C41.6161 77.7998 31.1297 67.3145 31.1297 54.423C31.1297 41.5344 41.6161 31.048 54.5047 31.048C58.5862 31.048 62.427 32.0994 65.7686 33.9449V19.7227H53.9561C53.5935 19.7224 53.2458 19.5782 52.9894 19.3218C52.7329 19.0654 52.5888 18.7177 52.5885 18.3551V4.57383H4.49106V88.6951ZM55.3227 6.86035L64.1336 16.9873H55.3227V6.86035ZM75.1475 54.4228C75.1475 43.0424 65.8881 33.782 54.5047 33.782C43.1233 33.782 33.8639 43.0424 33.8639 54.4228C33.8639 65.8062 43.1233 75.0656 54.5047 75.0656C65.8881 75.0656 75.1475 65.8062 75.1475 54.4228ZM75.3663 72.8682L72.95 75.2844L69.7756 72.1092C70.6384 71.3632 71.4459 70.5557 72.1918 69.693L75.3663 72.8682ZM97.0163 87.6869L81.7454 72.4133C80.6516 71.3195 79.0967 70.9621 77.6997 71.3352L73.87 67.5055C76.401 63.7686 77.8817 59.2672 77.8817 54.4228C77.8817 46.7781 74.1944 39.9801 68.5028 35.7119V18.3549C68.5024 18.0247 68.3834 17.7057 68.1674 17.4561L54.9874 2.3082C54.859 2.16084 54.7005 2.04269 54.5226 1.9617C54.3447 1.88071 54.1516 1.83876 53.9561 1.83867H3.12368C2.76115 1.83893 2.41355 1.98313 2.15729 2.23957C1.90103 2.49601 1.75708 2.84372 1.75708 3.20625V90.0617C1.75698 90.4243 1.90089 90.772 2.15717 91.0285C2.41346 91.285 2.76111 91.4291 3.12368 91.4293H67.1352C67.3148 91.4294 67.4927 91.394 67.6586 91.3253C67.8246 91.2566 67.9753 91.1559 68.1023 91.0289C68.2293 90.9019 68.3301 90.7511 68.3988 90.5851C68.4675 90.4192 68.5028 90.2413 68.5028 90.0617V74.7045L71.417 77.6187C71.0438 79.0148 71.4014 80.5699 72.4969 81.6635L87.7706 96.9371C88.1588 97.3262 88.6201 97.6347 89.128 97.8448C89.6359 98.0549 90.1803 98.1624 90.7299 98.1613C91.8051 98.1613 92.8805 97.7533 93.6985 96.9371L97.0163 93.6129C98.652 91.9779 98.652 89.3201 97.0163 87.6869Z" fill="#243570"/>
</svg>
