<svg xmlns="http://www.w3.org/2000/svg" width="159" height="164" fill="none" viewBox="0 0 159 164">
  <defs/>
  <g clip-path="url(#clip0)">
    <rect width="100" height="100" x="18.93" y="60" fill="#DAE0EE" rx="20"/>
    <circle cx="118.93" cy="105" r="40" fill="#AAB7DC" fill-opacity=".45"/>
    <path fill="#DDD" d="M87.1 59.22h1.31a3.54 3.54 0 013.53 3.55v13.81H10.4c-4.63 0-8.4-1.78-8.4-6.45v-2.46a8.42 8.42 0 018.4-8.45H87.1z"/>
    <path fill="#EEF2FE" d="M75.8 76.12l-73.44-1.5v60.5l2.48 6.25h85.01v-63.5l-14.04-1.75z"/>
    <path fill="#D39CF1" d="M88.38 29.74a22.6 22.6 0 01-25.2 22.5 22.26 22.26 0 01-13.84-7.09 22.6 22.6 0 01-6.01-15.4 22.59 22.59 0 0124.3-22.6 22.64 22.64 0 0120.74 22.58z"/>
    <path fill="#FADF6B" d="M57.33 56.86c0 12.51-10.08 20.66-22.53 20.66-.9 0-1.8-.06-2.67-.16-2.84-.34-5.52.79-7.94-.51a22.6 22.6 0 01-11.91-19.99 22.59 22.59 0 0124.3-22.59 22.64 22.64 0 0120.74 22.58z"/>
    <path fill="#70CDE9" d="M77.4 118.33h14.8a3.68 3.68 0 003.66-3.69v-13.5a3.67 3.67 0 00-3.67-3.68H77.41a10.4 10.4 0 00-10.38 10.43 10.4 10.4 0 0010.38 10.44z"/>
    <path fill="#fff" d="M77.18 112.07c2.3 0 4.15-1.87 4.15-4.18 0-2.3-1.86-4.17-4.15-4.17a4.16 4.16 0 00-4.15 4.17c0 2.3 1.86 4.18 4.15 4.18z"/>
    <path fill="#1F3474" d="M60.49 35.97c0-1.15-.93-2.08-2.07-2.08-1.15 0-2.08.93-2.08 2.08 0 3.97 3.19 7.29 7.44 8.12v.6c0 1.16.92 2.1 2.07 2.1s2.08-.94 2.08-2.1v-.6c4.24-.83 7.43-4.15 7.43-8.12 0-3.96-3.19-7.28-7.44-8.11v-8.17c1.93.63 3.3 2.1 3.3 3.82 0 1.15.92 2.09 2.07 2.09 1.14 0 2.07-.94 2.07-2.09 0-3.96-3.19-7.28-7.43-8.12v-.6a2.08 2.08 0 10-4.15 0v.6c-4.25.84-7.44 4.16-7.44 8.12 0 3.96 3.19 7.29 7.44 8.12v8.16c-1.93-.62-3.29-2.1-3.29-3.82zm10.72 0c0 1.72-1.36 3.2-3.29 3.82v-7.64c1.93.63 3.3 2.1 3.3 3.82zM60.5 23.51c0-1.72 1.36-3.2 3.29-3.82v7.64c-1.93-.63-3.29-2.1-3.29-3.82z"/>
    <path fill="#1F3474" d="M43.33 31.83c1.14 0 2.07-.94 2.07-2.09A20.53 20.53 0 0165.85 9.17 20.53 20.53 0 0186.3 29.74a20.53 20.53 0 01-22.88 20.43 2.08 2.08 0 00-.49 4.14 24.7 24.7 0 0027.51-24.57A24.7 24.7 0 0065.86 5a24.7 24.7 0 00-24.6 24.74c0 1.15.93 2.09 2.08 2.09zM32.73 58.74v8.17c-1.93-.63-3.29-2.1-3.29-3.82 0-1.15-.93-2.09-2.07-2.09-1.15 0-2.08.94-2.08 2.1 0 3.95 3.19 7.28 7.44 8.1v.61c0 1.16.93 2.1 2.07 2.1 1.15 0 2.08-.94 2.08-2.1v-.6c4.25-.83 7.43-4.16 7.43-8.12 0-3.96-3.18-7.28-7.43-8.11V46.8c1.93.63 3.28 2.1 3.28 3.82a2.08 2.08 0 104.15 0c0-3.96-3.18-7.29-7.43-8.12v-.6a2.08 2.08 0 10-4.15 0v.6c-4.25.83-7.44 4.16-7.44 8.12 0 3.96 3.2 7.28 7.44 8.11zm7.43 4.35c0 1.72-1.35 3.2-3.28 3.82v-7.64c1.93.63 3.28 2.1 3.28 3.82zm-7.43-16.28v7.64c-1.93-.63-3.29-2.1-3.29-3.82 0-1.72 1.36-3.2 3.29-3.82zM16.67 72.39c.43 0 .86-.13 1.24-.4a2.1 2.1 0 00.43-2.93 20.47 20.47 0 01-3.99-12.2c0-7.3 3.72-13.9 9.95-17.66a2.1 2.1 0 00.72-2.86 2.07 2.07 0 00-2.85-.71A24.92 24.92 0 0010.2 56.86c0 5.33 1.66 10.4 4.8 14.68.41.56 1.04.85 1.67.85z"/>
    <path fill="#1F3474" d="M30.51 36.74a20.53 20.53 0 0124.74 20.12c0 4.43-1.37 8.65-3.98 12.2a2.1 2.1 0 001.66 3.33c.64 0 1.27-.3 1.67-.85a24.63 24.63 0 004.8-14.68 24.7 24.7 0 00-29.75-24.2 2.09 2.09 0 00.86 4.08zM63.36 57.14a2.08 2.08 0 000 4.17H88.4c.8 0 1.45.66 1.45 1.46v2.67h-27.8a2.08 2.08 0 000 4.17h27.8v1.4a2.08 2.08 0 104.15 0v-8.24c0-3.1-2.51-5.63-5.6-5.63H63.36z"/>
    <path fill="#1F3474" d="M91.94 122.08c-1.15 0-2.08.93-2.08 2.09v13.66a3 3 0 01-2.98 3H10.4a6.35 6.35 0 01-6.32-6.37v-58.4a10.38 10.38 0 006.32 2.15h76.48a3 3 0 012.98 3v10.41a2.08 2.08 0 104.15 0V81.21c0-3.96-3.2-7.18-7.13-7.18H10.4a6.35 6.35 0 01-6.32-6.34v-.02c0-2.5 1.46-4.77 3.73-5.8a2.1 2.1 0 001.03-2.76 2.07 2.07 0 00-2.74-1.04 10.56 10.56 0 00-6.17 9.6v66.8c0 5.8 4.7 10.53 10.47 10.53h76.48a7.16 7.16 0 007.13-7.17v-13.66c0-1.16-.93-2.09-2.07-2.09z"/>
    <path fill="#1F3474" d="M92.2 95.37H77.4a12.5 12.5 0 00-12.44 12.52 12.5 12.5 0 0012.45 12.53h3.76c1.14 0 2.07-.94 2.07-2.09s-.93-2.09-2.07-2.09H77.4a8.34 8.34 0 01-8.3-8.35c0-4.6 3.72-8.35 8.3-8.35h14.78c.88 0 1.6.72 1.6 1.6v13.5c0 .89-.72 1.6-1.6 1.6h-4.1c-1.15 0-2.08.94-2.08 2.09s.93 2.09 2.07 2.09h4.11a5.76 5.76 0 005.74-5.78v-13.5a5.76 5.76 0 00-5.74-5.77z"/>
    <path fill="#1F3474" d="M70.95 107.9c0 3.44 2.8 6.25 6.23 6.25a6.25 6.25 0 000-12.52 6.25 6.25 0 00-6.23 6.26zm8.3 0c0 1.14-.93 2.08-2.07 2.08a2.08 2.08 0 010-4.18c1.14 0 2.08.94 2.08 2.1zM20.86 30.3c1.15 0 2.07-.94 2.07-2.09V17.64c0-1.15-.92-2.09-2.07-2.09s-2.07.94-2.07 2.09v10.57c0 1.15.92 2.09 2.07 2.09zM31.23 26.12c1.15 0 2.07-.93 2.07-2.08V13.47c0-1.16-.92-2.09-2.07-2.09s-2.07.93-2.07 2.09v10.57c0 1.15.92 2.08 2.07 2.08z"/>
  </g>
  <defs>
    <clipPath id="clip0">
      <path fill="#fff" d="M0 0h159v164H0z"/>
    </clipPath>
  </defs>
</svg>
