<svg xmlns="http://www.w3.org/2000/svg" width="170" height="164" fill="none" viewBox="0 0 170 164">
  <defs/>
  <rect width="100" height="100" x="63.17" y="57" fill="#DAE0EE" rx="20"/>
  <circle cx="43.17" cy="105" r="40" fill="#AAB7DC" fill-opacity=".45"/>
  <path fill="#FADF6B" d="M132.63 92l-53.4 12.86-15.29 3.69-1.08-1.87-8.62-14.84-1.08-1.87 48.76-50.9a4.32 4.32 0 016.86.8l26.57 45.83a4.27 4.27 0 01-2.72 6.3z"/>
  <path fill="#8BD87C" d="M67.76 77.8a30.12 30.12 0 0030.2-30.03 30.12 30.12 0 00-30.2-30.04 30.12 30.12 0 00-30.2 30.04 30.12 30.12 0 0030.2 30.03z"/>
  <path fill="#DDD" d="M133.26 56.35a12.8 12.8 0 01-4.73 17.6L115.6 51.62a13 13 0 0117.67 4.72z"/>
  <path fill="#D39CF1" d="M79.23 104.86L93.2 128.9l-9.34 5.37a4.33 4.33 0 01-5.89-1.57l-14.02-24.16 15.3-3.7z"/>
  <path fill="#fff" d="M78.54 64.93a6.45 6.45 0 006.47-6.44c0-3.55-2.9-6.43-6.47-6.43a6.45 6.45 0 00-6.47 6.43c0 3.56 2.9 6.44 6.47 6.44z"/>
  <path fill="#DDD" d="M46.74 96.16l7.46-4.29 8.62 14.85-7.46 4.29-8.62-14.85z"/>
  <path fill="#fff" d="M56.98 43.47a6.45 6.45 0 006.47-6.43c0-3.56-2.9-6.44-6.47-6.44a6.45 6.45 0 00-6.47 6.44c0 3.55 2.9 6.43 6.47 6.43z"/>
  <path fill="#FADF6B" d="M55.4 110.97l2.16 3.74-7.48 4.29a4.33 4.33 0 01-5.9-1.59l-8.62-14.85a4.31 4.31 0 011.58-5.88l7.48-4.29 2.16 3.74 8.62 14.84z"/>
  <path fill="#1F3474" d="M137.22 84.63l-5.82-10.07a14.99 14.99 0 003.73-19.28 15.15 15.15 0 00-18.65-6.42l-5.85-10.06a6.45 6.45 0 00-7.8-2.82c-.94.34-1.8.9-2.48 1.62l-1.47 1.52a32.13 32.13 0 00-8.6-14.42 32.37 32.37 0 00-31.55-7.84 32.36 32.36 0 00-14.4 8.7 32.11 32.11 0 00-7.54 31.48 32.14 32.14 0 008.9 14.23 32.38 32.38 0 0014.89 7.84L51.6 88.5a2.14 2.14 0 00-.33 2.55l-3.73 2.15-1.08-1.87a2.13 2.13 0 00-2.93-.77l-7.48 4.29a6.44 6.44 0 00-2.35 8.8l8.62 14.84a6.34 6.34 0 003.93 3 6.35 6.35 0 004.9-.64l7.48-4.29a2.14 2.14 0 00.77-2.92l-1.07-1.86 3.73-2.15h.01v.02l14.03 24.14a6.42 6.42 0 006.43 3.17 6.48 6.48 0 002.39-.8l9.33-5.37c.5-.3.86-.76 1.02-1.31.15-.55.07-1.14-.22-1.63l-12.5-21.56 50.59-12.2a6.47 6.47 0 004.93-6.62 6.4 6.4 0 00-.86-2.83zm-5.82-27.2a10.71 10.71 0 01-2.2 13.38l-10.54-18.2a10.84 10.84 0 0112.74 4.81zm-91.68-9.66a27.8 27.8 0 014.73-15.5 28.17 28.17 0 0143.14-4.23 27.85 27.85 0 016.07 30.4 27.92 27.92 0 01-10.32 12.52 28.14 28.14 0 01-35.4-3.48 27.85 27.85 0 01-8.22-19.71zM49 117.13a2.18 2.18 0 01-2.4-.16 2.1 2.1 0 01-.54-.63l-8.62-14.85a2.15 2.15 0 01.77-2.94l5.61-3.22 1.08 1.87 4.31 7.42 5.4 9.3-5.61 3.21zm7.18-9.07l-3.24-5.58-3.23-5.58 3.73-2.15 6.47 11.16-3.73 2.15zm34.07 20.06l-7.48 4.29a2.02 2.02 0 01-1.62.21 2.14 2.14 0 01-1.31-.98l-12.58-21.67 10.92-2.64 12.07 20.79zm43.35-39.44a2.13 2.13 0 01-1.47 1.25L65 106.08l-.26-.47-8.63-14.85v-.01h-.02l-.26-.46 9.99-10.45c.65.04 1.3.1 1.94.1 8.58 0 16.8-3.4 22.86-9.43a32.14 32.14 0 009.3-26.24l3.55-3.71a2.08 2.08 0 011.81-.67 2.17 2.17 0 011.62 1.05l6.82 11.74v.02l12.94 22.31.01.01v.02l6.82 11.73a2.07 2.07 0 01.11 1.91zM127.1 35.85l4.74-17.59 4.16 1.11-4.74 17.59-4.16-1.11zM124.73 44.64l1.58-5.86 4.16 1.11-1.57 5.86-4.17-1.1zM143.38 48.04l11.21-6.44 2.16 3.72-11.2 6.44-2.17-3.72zM135.92 52.34l5.6-3.22 2.16 3.72-5.6 3.22-2.16-3.72zM148.04 71.93l1.12-4.15 17.67 4.72-1.11 4.14-17.68-4.71zM139.2 69.57l1.12-4.14L146.2 67l-1.12 4.15-5.89-1.58z"/>
  <path fill="#1F3474" d="M39.72 86.39h4.32v-4.3h4.31V77.8h-4.31v-4.29h-4.32v4.3h-4.31v4.28h4.31v4.3zM89.33 19.87h4.3v-4.29h4.32V11.3h-4.31V7h-4.31v4.3H85v4.28h4.32v4.3zM106.58 30.6h4.31v-4.29h4.31v-4.3h-4.3v-4.28h-4.32v4.29h-4.31v4.29h4.3v4.3zM78.54 49.91a8.66 8.66 0 00-7.97 5.3 8.54 8.54 0 001.87 9.35 8.64 8.64 0 0014.73-6.07 8.65 8.65 0 00-8.63-8.58zm0 12.87a4.33 4.33 0 01-3.98-2.64 4.27 4.27 0 013.14-5.86 4.33 4.33 0 015.16 4.21 4.28 4.28 0 01-4.32 4.3zM56.98 45.62a8.66 8.66 0 007.97-5.3 8.54 8.54 0 00-1.87-9.35 8.64 8.64 0 00-14.73 6.07 8.65 8.65 0 008.63 8.58zm0-12.87a4.33 4.33 0 013.98 2.65 4.27 4.27 0 01-3.14 5.85 4.33 4.33 0 01-5.16-4.21 4.28 4.28 0 014.32-4.3zM48.98 63.41l34.5-34.32 3.05 3.03-34.5 34.32-3.05-3.03z"/>
</svg>
