<svg width="246" height="340" viewBox="0 0 246 340" fill="none" xmlns="http://www.w3.org/2000/svg">
<g clip-path="url(#clip0_1222_19033)">
<path d="M241.846 77.4409C151.275 86.6341 122.392 23.1895 122.392 23.1895C121.385 25.3516 91.9157 89.9681 2.94629 80.9564V229.277C2.94629 277.405 81.2618 293.597 119.768 336.914C152.654 294.372 241.161 274.005 241.846 225.778C242.531 177.551 241.846 77.4409 241.846 77.4409Z" fill="url(#paint0_linear_1222_19033)"/>
<g style="mix-blend-mode:overlay">
<path d="M242.646 125.074H192.174L182.123 135.125H151.16L138.22 122.194H119.38V122.862H137.948L150.879 135.794H182.403L192.447 125.751H242.646V125.074Z" fill="url(#paint1_linear_1222_19033)"/>
<path d="M242.646 102.19H192.174L182.123 112.241H151.16L138.22 99.3098H119.38V99.9783H137.948L150.879 112.91H182.403L192.447 102.858H242.646V102.19Z" fill="url(#paint2_linear_1222_19033)"/>
<path d="M242.646 110.153H192.174L182.123 120.205H151.16L138.22 107.265H119.38V107.934H137.948L150.879 120.873H182.403L192.447 110.822H242.646V110.153Z" fill="url(#paint3_linear_1222_19033)"/>
<path d="M181.471 127.368H154.007V128.037H181.471V127.368Z" fill="url(#paint4_linear_1222_19033)"/>
<path d="M179.878 104.286H152.414V104.955H179.878V104.286Z" fill="url(#paint5_linear_1222_19033)"/>
<path d="M242.638 117.416H193.8V118.084H242.638V117.416Z" fill="url(#paint6_linear_1222_19033)"/>
<path d="M138.484 114.899H119.776V115.567H138.484V114.899Z" fill="url(#paint7_linear_1222_19033)"/>
<path d="M192.315 103.617C192.097 103.619 191.884 103.556 191.703 103.437C191.521 103.317 191.379 103.146 191.295 102.946C191.21 102.745 191.187 102.524 191.229 102.311C191.27 102.097 191.374 101.901 191.527 101.747C191.68 101.592 191.876 101.487 192.089 101.444C192.302 101.401 192.523 101.422 192.724 101.505C192.925 101.588 193.097 101.729 193.218 101.909C193.339 102.09 193.404 102.302 193.404 102.52C193.404 102.81 193.289 103.088 193.085 103.293C192.881 103.499 192.604 103.615 192.315 103.617Z" fill="url(#paint8_linear_1222_19033)"/>
<path d="M138.484 100.729C138.286 100.731 138.092 100.673 137.926 100.564C137.761 100.455 137.631 100.299 137.555 100.117C137.478 99.9338 137.458 99.7324 137.496 99.5379C137.534 99.3435 137.63 99.1648 137.77 99.0246C137.91 98.8845 138.089 98.7892 138.283 98.751C138.478 98.7127 138.679 98.7332 138.862 98.8098C139.045 98.8864 139.2 99.0156 139.31 99.1811C139.419 99.3466 139.476 99.5408 139.474 99.7389C139.472 100.001 139.367 100.252 139.182 100.437C138.997 100.622 138.746 100.727 138.484 100.729Z" fill="url(#paint9_linear_1222_19033)"/>
<path d="M154.007 128.763C154.595 128.763 155.072 128.286 155.072 127.698C155.072 127.11 154.595 126.634 154.007 126.634C153.419 126.634 152.942 127.11 152.942 127.698C152.942 128.286 153.419 128.763 154.007 128.763Z" fill="url(#paint10_linear_1222_19033)"/>
<path d="M181.199 128.763C181.787 128.763 182.263 128.286 182.263 127.698C182.263 127.11 181.787 126.634 181.199 126.634C180.611 126.634 180.134 127.11 180.134 127.698C180.134 128.286 180.611 128.763 181.199 128.763Z" fill="url(#paint11_linear_1222_19033)"/>
<path d="M106.869 122.194L93.9375 135.125H62.9744L52.9229 125.074H2.51709V125.751H52.6423L62.6938 135.794H94.2181L107.15 122.862H125.718V122.194H106.869Z" fill="url(#paint12_linear_1222_19033)"/>
<path d="M106.869 99.3098L93.9375 112.241H62.9744L52.9229 102.19H2.51709V102.858H52.6423L62.6938 112.91H94.2181L107.15 99.9783H125.718V99.3098H106.869Z" fill="url(#paint13_linear_1222_19033)"/>
<path d="M106.869 107.265L93.9375 120.205H62.9744L52.9229 110.153H2.51709V110.822H52.6423L62.6938 120.873H94.2181L107.15 107.934H125.718V107.265H106.869Z" fill="url(#paint14_linear_1222_19033)"/>
<path d="M91.0903 127.368H63.6262V128.037H91.0903V127.368Z" fill="url(#paint15_linear_1222_19033)"/>
<path d="M92.6831 104.286H65.219V104.955H92.6831V104.286Z" fill="url(#paint16_linear_1222_19033)"/>
<path d="M51.2889 117.416H2.51709V118.084H51.2889V117.416Z" fill="url(#paint17_linear_1222_19033)"/>
<path d="M125.322 114.899H106.613V115.567H125.322V114.899Z" fill="url(#paint18_linear_1222_19033)"/>
<path d="M52.7827 103.617C53.0001 103.619 53.2131 103.556 53.3947 103.437C53.5763 103.317 53.7182 103.146 53.8026 102.946C53.8869 102.745 53.9098 102.524 53.8684 102.311C53.827 102.097 53.7231 101.901 53.57 101.747C53.4168 101.592 53.2212 101.487 53.0081 101.444C52.795 101.401 52.5739 101.422 52.3728 101.505C52.1718 101.588 51.9999 101.729 51.8789 101.909C51.7579 102.09 51.6934 102.302 51.6934 102.52C51.6934 102.81 51.8079 103.088 52.0119 103.293C52.216 103.499 52.493 103.615 52.7827 103.617Z" fill="url(#paint19_linear_1222_19033)"/>
<path d="M106.613 100.729C106.811 100.731 107.006 100.673 107.171 100.564C107.336 100.455 107.466 100.299 107.542 100.117C107.619 99.9338 107.639 99.7324 107.601 99.5379C107.563 99.3435 107.468 99.1648 107.327 99.0246C107.187 98.8845 107.009 98.7892 106.814 98.751C106.62 98.7127 106.418 98.7332 106.235 98.8098C106.053 98.8864 105.897 99.0156 105.788 99.1811C105.679 99.3466 105.621 99.5408 105.623 99.7389C105.625 100.001 105.73 100.252 105.915 100.437C106.101 100.622 106.351 100.727 106.613 100.729Z" fill="url(#paint20_linear_1222_19033)"/>
<path d="M91.0904 128.763C91.6784 128.763 92.155 128.286 92.155 127.698C92.155 127.11 91.6784 126.634 91.0904 126.634C90.5025 126.634 90.0259 127.11 90.0259 127.698C90.0259 128.286 90.5025 128.763 91.0904 128.763Z" fill="url(#paint21_linear_1222_19033)"/>
<path d="M63.8905 128.763C64.4784 128.763 64.9551 128.286 64.9551 127.698C64.9551 127.11 64.4784 126.634 63.8905 126.634C63.3025 126.634 62.8259 127.11 62.8259 127.698C62.8259 128.286 63.3025 128.763 63.8905 128.763Z" fill="url(#paint22_linear_1222_19033)"/>
</g>
<g style="mix-blend-mode:overlay">
<path d="M172.6 295.388L173.722 294.719H151.16L138.228 281.779H119.38V282.448H137.948L150.879 295.388H172.6Z" fill="url(#paint23_linear_1222_19033)"/>
<path d="M182.403 272.504L192.455 262.452H219.589L220.414 261.784H192.174L182.123 271.835H151.16L138.228 258.912H119.38V259.58H137.948L150.879 272.52L182.403 272.504Z" fill="url(#paint24_linear_1222_19033)"/>
<path d="M182.403 280.459L192.455 270.407H209.711C210 270.185 210.288 269.97 210.536 269.739H192.174L182.123 279.79H151.16L138.228 266.859H119.38V267.527H137.948L150.879 280.459H182.403Z" fill="url(#paint25_linear_1222_19033)"/>
<path d="M181.471 286.962H154.007V287.63H181.471V286.962Z" fill="url(#paint26_linear_1222_19033)"/>
<path d="M179.878 263.872H152.414V264.54H179.878V263.872Z" fill="url(#paint27_linear_1222_19033)"/>
<path d="M200.947 277.009H193.775V277.678H200.031L200.947 277.009Z" fill="url(#paint28_linear_1222_19033)"/>
<path d="M138.484 274.492H119.776V275.161H138.484V274.492Z" fill="url(#paint29_linear_1222_19033)"/>
<path d="M192.315 263.22C192.921 263.22 193.412 262.728 193.412 262.122C193.412 261.516 192.921 261.024 192.315 261.024C191.708 261.024 191.217 261.516 191.217 262.122C191.217 262.728 191.708 263.22 192.315 263.22Z" fill="url(#paint30_linear_1222_19033)"/>
<path d="M138.484 260.323C138.286 260.325 138.092 260.267 137.926 260.158C137.761 260.049 137.631 259.893 137.555 259.71C137.478 259.528 137.458 259.326 137.496 259.132C137.534 258.937 137.63 258.759 137.77 258.618C137.91 258.478 138.089 258.383 138.283 258.345C138.478 258.306 138.679 258.327 138.862 258.404C139.045 258.48 139.2 258.609 139.31 258.775C139.419 258.94 139.476 259.135 139.474 259.333C139.472 259.595 139.367 259.845 139.182 260.031C138.997 260.216 138.746 260.321 138.484 260.323Z" fill="url(#paint31_linear_1222_19033)"/>
<path d="M154.007 288.348C153.796 288.35 153.589 288.289 153.412 288.172C153.236 288.056 153.098 287.89 153.017 287.695C152.935 287.5 152.913 287.285 152.954 287.078C152.995 286.871 153.097 286.68 153.246 286.531C153.395 286.382 153.586 286.28 153.793 286.239C154 286.198 154.215 286.22 154.41 286.302C154.605 286.383 154.771 286.521 154.887 286.698C155.004 286.874 155.065 287.081 155.063 287.292C155.063 287.572 154.952 287.841 154.754 288.039C154.556 288.237 154.287 288.348 154.007 288.348Z" fill="url(#paint32_linear_1222_19033)"/>
<path d="M181.199 288.348C180.934 288.325 180.687 288.203 180.507 288.007C180.327 287.81 180.228 287.554 180.228 287.288C180.228 287.022 180.327 286.765 180.507 286.569C180.687 286.373 180.934 286.251 181.199 286.227C181.346 286.214 181.494 286.232 181.634 286.279C181.774 286.327 181.902 286.403 182.011 286.503C182.12 286.602 182.207 286.724 182.267 286.859C182.326 286.994 182.357 287.14 182.357 287.288C182.357 287.435 182.326 287.581 182.267 287.717C182.207 287.852 182.12 287.973 182.011 288.073C181.902 288.173 181.774 288.249 181.634 288.296C181.494 288.343 181.346 288.361 181.199 288.348Z" fill="url(#paint33_linear_1222_19033)"/>
<path d="M106.869 281.779L93.9293 294.719H62.9744L52.923 284.668H44.0269C44.1671 284.89 44.2827 285.113 44.4065 285.336H52.6589L62.7103 295.388H94.2346L107.166 282.448H125.734V281.779H106.869Z" fill="url(#paint34_linear_1222_19033)"/>
<path d="M106.869 258.912L93.9292 271.852H62.9743L52.9229 261.8H19.8472C20.3753 262.007 20.9117 262.229 21.4481 262.469H52.6423L62.6938 272.52H94.218L107.15 259.58H125.718V258.912H106.869Z" fill="url(#paint35_linear_1222_19033)"/>
<path d="M106.869 266.859L93.9374 279.79H62.9743L52.9228 269.739H29.3787L30.1461 270.407H52.6422L62.6937 280.459H94.218L107.15 267.527H125.717V266.859H106.869Z" fill="url(#paint36_linear_1222_19033)"/>
<path d="M91.0903 286.962H63.6262V287.63H91.0903V286.962Z" fill="url(#paint37_linear_1222_19033)"/>
<path d="M92.6831 263.872H65.219V264.54H92.6831V263.872Z" fill="url(#paint38_linear_1222_19033)"/>
<path d="M37.0947 277.009C37.3175 277.224 37.5321 277.455 37.7549 277.678H51.2889V277.009H37.0947Z" fill="url(#paint39_linear_1222_19033)"/>
<path d="M125.322 274.492H106.613V275.161H125.322V274.492Z" fill="url(#paint40_linear_1222_19033)"/>
<path d="M52.7826 263.22C53.3888 263.22 53.8802 262.728 53.8802 262.122C53.8802 261.516 53.3888 261.024 52.7826 261.024C52.1765 261.024 51.6851 261.516 51.6851 262.122C51.6851 262.728 52.1765 263.22 52.7826 263.22Z" fill="url(#paint41_linear_1222_19033)"/>
<path d="M106.613 260.323C106.811 260.325 107.006 260.267 107.171 260.158C107.336 260.049 107.466 259.893 107.542 259.71C107.619 259.528 107.639 259.326 107.601 259.132C107.563 258.937 107.468 258.759 107.327 258.618C107.187 258.478 107.009 258.383 106.814 258.345C106.62 258.306 106.418 258.327 106.235 258.404C106.053 258.48 105.897 258.609 105.788 258.775C105.679 258.94 105.621 259.135 105.623 259.333C105.625 259.595 105.73 259.845 105.915 260.031C106.101 260.216 106.351 260.321 106.613 260.323Z" fill="url(#paint42_linear_1222_19033)"/>
<path d="M91.0903 288.348C91.3015 288.35 91.5085 288.289 91.6848 288.172C91.8611 288.056 91.9988 287.89 92.0804 287.695C92.162 287.5 92.1838 287.285 92.143 287.078C92.1022 286.871 92.0006 286.68 91.8512 286.531C91.7019 286.382 91.5114 286.28 91.3042 286.239C91.0969 286.198 90.8822 286.22 90.6873 286.302C90.4925 286.383 90.3263 286.521 90.2099 286.698C90.0936 286.874 90.0323 287.081 90.034 287.292C90.034 287.572 90.1452 287.841 90.3433 288.039C90.5414 288.237 90.8101 288.348 91.0903 288.348Z" fill="url(#paint43_linear_1222_19033)"/>
<path d="M63.8987 288.348C64.1638 288.325 64.4105 288.203 64.5902 288.007C64.7699 287.81 64.8696 287.554 64.8696 287.288C64.8696 287.022 64.7699 286.765 64.5902 286.569C64.4105 286.373 64.1638 286.251 63.8987 286.227C63.7516 286.214 63.6033 286.232 63.4635 286.279C63.3236 286.327 63.1951 286.403 63.0861 286.503C62.9772 286.602 62.8902 286.724 62.8307 286.859C62.7712 286.994 62.7405 287.14 62.7405 287.288C62.7405 287.435 62.7712 287.581 62.8307 287.717C62.8902 287.852 62.9772 287.973 63.0861 288.073C63.1951 288.173 63.3236 288.249 63.4635 288.296C63.6033 288.343 63.7516 288.361 63.8987 288.348Z" fill="url(#paint44_linear_1222_19033)"/>
</g>
<path d="M241.846 77.4409C151.275 86.6341 122.392 23.1895 122.392 23.1895C121.385 25.3516 91.9157 89.9681 2.94629 80.9564V229.277C2.94629 277.405 81.2618 293.597 119.768 336.914C152.654 294.372 241.161 274.005 241.846 225.778C242.531 177.551 241.846 77.4409 241.846 77.4409Z" stroke="url(#paint45_linear_1222_19033)" stroke-width="7.13" stroke-linecap="round" stroke-linejoin="round"/>
<path d="M221.578 173.218C221.198 169.917 220.687 166.46 219.102 163.522C216.106 157.819 214.027 157.324 211.848 154.873C213.631 157.621 216.106 160.766 217.575 164.85C218.648 167.575 219.264 170.458 219.399 173.383C219.537 176.539 219.26 179.7 218.574 182.783C218.246 184.273 217.751 185.721 217.097 187.099C216.788 187.754 216.423 188.38 216.007 188.972C215.612 189.505 215.155 189.99 214.646 190.417L213.944 190.994L214.06 191.968C214.267 193.906 214.377 195.853 214.39 197.802C214.39 199.775 214.39 201.755 214.241 203.719C214.028 207.66 213.54 211.581 212.781 215.454C212.781 215.595 212.715 215.735 212.69 215.875C212.694 216.667 212.619 217.458 212.467 218.235C210.729 226.758 208.278 235.12 205.139 243.232C206.08 241.972 206.976 240.671 207.829 239.329C210.02 235.794 211.86 232.055 213.325 228.163C214.804 224.284 215.928 220.279 216.684 216.197C217.449 212.136 217.907 208.023 218.054 203.893C218.112 201.83 218.104 199.767 218.004 197.695C217.914 195.896 217.79 194.147 217.551 192.315C218.59 191.155 219.414 189.819 219.985 188.37C220.649 186.755 221.126 185.068 221.404 183.344C221.944 179.994 222.002 176.585 221.578 173.218Z" fill="url(#paint46_linear_1222_19033)"/>
<path d="M72.1181 141.282L64.4434 144.426L48.4006 227.775L81.889 249.752L174.688 252.227L202.597 215.917L194.923 165.329L175.364 148.956C175.364 148.956 172.575 137.799 157.209 140.589C141.843 143.378 72.1181 141.282 72.1181 141.282Z" fill="url(#paint47_linear_1222_19033)"/>
<path d="M90.9255 196.76C88.2761 196.76 85.7065 196.408 83.2167 195.706C80.7589 194.972 78.7798 194.03 77.2795 192.881L79.913 187.04C81.3494 188.093 83.0571 188.939 85.0362 189.577C87.0153 190.216 88.9943 190.535 90.9734 190.535C93.1759 190.535 94.8038 190.216 95.8572 189.577C96.9106 188.907 97.4373 188.029 97.4373 186.944C97.4373 186.146 97.1181 185.492 96.4797 184.981C95.8732 184.438 95.0752 184.007 94.0856 183.688C93.128 183.369 91.8193 183.018 90.1594 182.635C87.6058 182.028 85.515 181.422 83.8871 180.815C82.2591 180.209 80.8546 179.235 79.6736 177.895C78.5244 176.554 77.9499 174.766 77.9499 172.532C77.9499 170.585 78.4766 168.829 79.5299 167.265C80.5833 165.669 82.1634 164.408 84.2701 163.483C86.4088 162.557 89.0103 162.094 92.0746 162.094C94.2133 162.094 96.3041 162.349 98.347 162.86C100.39 163.371 102.177 164.105 103.71 165.063L101.316 170.952C98.2193 169.196 95.123 168.318 92.0268 168.318C89.8562 168.318 88.2442 168.67 87.1908 169.372C86.1694 170.074 85.6586 171 85.6586 172.149C85.6586 173.298 86.2492 174.16 87.4302 174.734C88.6432 175.277 90.4786 175.82 92.9365 176.362C95.4901 176.969 97.5809 177.575 99.2088 178.182C100.837 178.788 102.225 179.746 103.374 181.055C104.556 182.363 105.146 184.135 105.146 186.369C105.146 188.285 104.603 190.04 103.518 191.636C102.465 193.2 100.869 194.445 98.73 195.371C96.5914 196.297 93.9899 196.76 90.9255 196.76Z" fill="white"/>
<path d="M121.459 196.76C118.809 196.76 116.24 196.408 113.75 195.706C111.292 194.972 109.313 194.03 107.813 192.881L110.446 187.04C111.883 188.093 113.59 188.939 115.569 189.577C117.548 190.216 119.528 190.535 121.507 190.535C123.709 190.535 125.337 190.216 126.39 189.577C127.444 188.907 127.97 188.029 127.97 186.944C127.97 186.146 127.651 185.492 127.013 184.981C126.406 184.438 125.608 184.007 124.619 183.688C123.661 183.369 122.352 183.018 120.693 182.635C118.139 182.028 116.048 181.422 114.42 180.815C112.792 180.209 111.388 179.235 110.207 177.895C109.058 176.554 108.483 174.766 108.483 172.532C108.483 170.585 109.01 168.829 110.063 167.265C111.117 165.669 112.697 164.408 114.803 163.483C116.942 162.557 119.544 162.094 122.608 162.094C124.747 162.094 126.837 162.349 128.88 162.86C130.923 163.371 132.711 164.105 134.243 165.063L131.849 170.952C128.753 169.196 125.656 168.318 122.56 168.318C120.389 168.318 118.777 168.67 117.724 169.372C116.703 170.074 116.192 171 116.192 172.149C116.192 173.298 116.782 174.16 117.963 174.734C119.176 175.277 121.012 175.82 123.47 176.362C126.023 176.969 128.114 177.575 129.742 178.182C131.37 178.788 132.759 179.746 133.908 181.055C135.089 182.363 135.679 184.135 135.679 186.369C135.679 188.285 135.137 190.04 134.051 191.636C132.998 193.2 131.402 194.445 129.263 195.371C127.125 196.297 124.523 196.76 121.459 196.76Z" fill="white"/>
<path d="M140.979 162.669H148.736V189.865H165.542V196.185H140.979V162.669Z" fill="white"/>
<path d="M81.8889 78.1836C81.8889 78.1836 68.2806 50.6205 73.8675 41.8729C79.4544 33.1253 89.9102 38.0355 89.9102 38.0355C89.9102 38.0355 94.7957 15.754 123.407 11.8753C152.018 7.9967 157.242 0.0166016 157.242 0.0166016C157.242 0.0166016 158.983 3.85398 156.54 10.4807L159.338 9.08602C159.338 9.08602 182.709 40.4452 155.847 76.4093L81.8889 78.1836Z" fill="url(#paint48_linear_1222_19033)"/>
<path d="M83.3331 74.5443C81.7761 70.6932 80.2192 66.842 78.6622 62.9909C76.335 57.2142 73.9748 50.8929 75.8564 44.9759C76.4353 42.9976 77.6398 41.2603 79.2894 40.0244C80.121 39.418 81.0953 39.037 82.1176 38.9184C83.14 38.7998 84.1756 38.9477 85.1239 39.3477C81.4433 42.8632 80.0074 48.2933 80.4695 53.3768C80.9316 58.4603 83.0855 63.2798 85.7015 67.6123C84.3977 63.1477 83.0773 58.5346 83.5972 53.8967C84.1171 49.2589 86.9642 44.5797 91.4535 43.3419C88.5982 46.3293 88.3341 50.9176 88.6889 55.0273C89.0438 59.137 89.8525 63.4035 88.5569 67.3317C87.5171 70.5089 85.1156 73.4632 85.586 76.7725" fill="#2D396C"/>
<path d="M100.515 53.0303C98.5835 42.0545 102.223 29.7254 111.243 23.206C123.027 14.706 140.465 17.6521 151.985 8.78076C148.568 14.4914 142.552 18.0895 136.561 20.9861C130.57 23.8827 124.249 26.3832 119.231 30.7817C114.214 35.1803 110.797 42.1123 112.629 48.4997C113.883 39.5541 122.136 33.2575 130.43 29.6842C138.723 26.1109 147.867 24.1468 155.187 18.8322C150.704 23.6801 145.759 28.0801 140.423 31.9701C137.948 33.7691 135.365 35.4939 133.499 37.9118C130.454 41.8647 129.786 47.0968 129.216 52.0565C130.149 44.2249 137.972 39.4055 144.896 35.6259C151.82 31.8463 159.503 26.6225 159.882 18.7662C160.708 24.6172 157.663 30.3196 154.37 35.1968C150.201 41.428 145.507 47.292 140.341 52.7249C148.943 48.0956 155.872 40.8781 160.147 32.0939C161.367 46.7948 157.558 61.4741 149.344 73.7274C149.583 69.989 146.373 66.8036 142.858 65.5327C139.342 64.2618 135.497 64.3609 131.783 63.9317C125.803 63.2348 120.073 61.1307 115.064 57.7919" fill="#2D396C"/>
<path d="M96.8918 108.14V130.124L68.6355 142.676C68.6355 142.676 88.8622 159.775 119.215 159.775C149.567 159.775 168.407 141.282 168.407 141.282L138.402 127.698L139.45 98.3938L96.8918 108.14Z" fill="url(#paint49_linear_1222_19033)"/>
<path d="M153.396 134.473L138.401 127.698L139.45 98.3938L96.8918 108.14V130.124L82.2932 136.611C87.1374 141.166 99.1942 150.004 119.916 150.004C139.053 149.98 149.039 140.456 153.396 134.473Z" fill="url(#paint50_linear_1222_19033)"/>
<path style="mix-blend-mode:multiply" opacity="0.36" d="M138.641 121.146L139.417 99.3594L137.147 98.9055L96.8918 108.14V119.206C100.969 124.331 109.568 134.061 116.788 135.356C123.374 136.495 132.955 127.368 138.641 121.146Z" fill="url(#paint51_linear_1222_19033)"/>
<path d="M68.6356 142.676L59.9128 146.167C59.9128 146.167 42.8137 142.676 31.3016 157.72C22.2239 169.521 23.2803 189.08 29.5604 194.353C29.5604 194.353 20.8375 251.914 77.0035 269.359C77.0035 269.359 82.9371 271.101 87.121 268.311C91.305 265.522 161.079 221.215 161.079 221.215L165.263 212.137C165.263 212.137 126.196 204.809 85.0249 221.215L65.838 184.236L68.6356 142.676Z" fill="url(#paint52_linear_1222_19033)"/>
<path d="M65.838 184.194L68.6356 142.676L59.9128 146.167C59.9128 146.167 42.8137 142.676 31.3016 157.72C22.2239 169.521 23.2803 189.08 29.5604 194.353C28.4214 204.62 29.2903 215.01 32.1186 224.945C41.2558 210.586 55.7045 200.428 72.3079 196.688L65.838 184.194Z" fill="url(#paint53_linear_1222_19033)"/>
<g style="mix-blend-mode:multiply">
<path d="M67.2573 193.412C70.9213 202.977 81.9218 207.912 87.7563 216.082L89.217 215.372L89.5141 215.24C88.1144 207.815 85.5904 200.646 82.0291 193.982C79.2233 188.758 75.7655 183.815 73.9417 178.17C70.9956 169.092 72.5553 159.264 74.1398 149.864C69.7948 158.108 66.7522 166.974 65.1199 176.148L53.1374 167.747C57.9883 173.14 62.4321 178.886 66.432 184.937C64.0223 183.608 61.5466 182.255 58.8315 181.785C56.1165 181.314 53.0548 181.908 51.2063 183.955C58.9306 182.684 67.1417 188.329 68.7262 195.987L67.2573 193.412Z" fill="url(#paint54_linear_1222_19033)"/>
</g>
<path d="M168.408 141.282L183.41 146.167C183.41 146.167 204.339 144.079 214.77 158.727C224.788 172.756 215.818 190.474 215.818 190.474C215.818 190.474 216.866 242.102 188.255 264.746C188.255 264.746 169.423 267.222 108.371 254.975L161.046 221.14L165.23 212.063L176.396 189.039" fill="url(#paint55_linear_1222_19033)"/>
<path d="M151.663 74.6515C151.663 74.6515 155.847 70.8141 158.636 75.6996C161.426 80.585 154.452 97.6758 149.22 95.9345L151.663 74.6515Z" fill="url(#paint56_linear_1222_19033)"/>
<path d="M86.3453 74.6515C86.3453 74.6515 82.1613 70.8141 79.372 75.6996C76.5827 80.585 83.556 97.6758 88.788 95.9345L86.3453 74.6515Z" fill="url(#paint57_linear_1222_19033)"/>
<path d="M95.4972 216.635L82.0458 198.983C79.9152 196.183 76.8838 194.203 73.4633 193.379C66.754 191.729 55.6793 189.096 52.5846 188.378C48.0458 187.33 51.8832 192.917 62.0006 195.36L68.6026 197.448C68.6026 197.448 52.5516 194.658 51.1569 194.972C49.7623 195.286 52.5516 201.953 67.9011 203.002L71.7385 204.05L74.2142 206.839C74.2142 206.839 59.5662 205.444 58.1632 205.791C56.7603 206.137 59.5662 210.321 65.1448 211.023C68.4303 211.43 71.6918 212.011 74.9157 212.764L81.5176 222.535C81.5176 222.535 91.305 217.65 95.4972 216.635Z" fill="url(#paint58_linear_1222_19033)"/>
<path d="M119.041 39.3972C99.1034 39.3972 80.8408 45.6691 86.0728 79.339C86.1801 80.0322 86.3039 80.7254 86.4277 81.4186C86.535 92.188 90.0505 112.472 112.439 124.727C114.326 125.756 116.448 126.279 118.597 126.244C120.746 126.209 122.85 125.618 124.702 124.529C134.127 119.025 151.11 105.904 152.356 82.3016H151.894C152.067 81.3278 152.224 80.3375 152.356 79.3472C156.895 45.0006 138.987 39.3972 119.041 39.3972Z" fill="url(#paint59_linear_1222_19033)"/>
<path d="M86.4276 81.4846C86.8568 91.3875 89.8359 101.109 95.5053 109.056C98.3596 113.005 101.786 116.507 105.672 119.446L108.651 121.558C109.666 122.219 110.739 122.821 111.779 123.448C112.76 124.104 113.83 124.615 114.956 124.967C116.631 125.47 118.397 125.598 120.127 125.341C121.857 125.084 123.51 124.449 124.966 123.481C127.067 122.225 129.092 120.847 131.032 119.355C134.94 116.438 138.467 113.041 141.529 109.246C144.61 105.429 147.112 101.181 148.956 96.6361C150.781 92.0517 151.926 87.2253 152.356 82.3099C152.23 87.2829 151.328 92.2056 149.683 96.9001C147.993 101.61 145.582 106.028 142.536 109.997C139.491 113.969 135.933 117.521 131.956 120.56C129.982 122.1 127.915 123.516 125.767 124.802C123.564 126.26 120.982 127.04 118.34 127.046C117.023 127.037 115.714 126.84 114.453 126.46C113.223 126.07 112.051 125.515 110.97 124.81C109.898 124.158 108.808 123.539 107.76 122.846L104.715 120.642C100.759 117.555 97.3091 113.868 94.4903 109.716C91.6773 105.573 89.5666 100.995 88.2432 96.1657C86.9422 91.3834 86.3309 86.4398 86.4276 81.4846Z" fill="url(#paint60_linear_1222_19033)"/>
<path d="M114.511 75.6997H126.072" stroke="#2D396C" stroke-width="2.83" stroke-miterlimit="10"/>
<path d="M140.885 75.6997H152.447" stroke="#2D396C" stroke-width="2.83" stroke-miterlimit="10"/>
<path d="M84.8928 75.6997H96.4627" stroke="#2D396C" stroke-width="2.83" stroke-miterlimit="10"/>
<path style="mix-blend-mode:multiply" d="M161.079 221.173C163.956 220.06 166.961 219.311 170.025 218.945C173.107 218.546 176.231 218.594 179.3 219.086C182.393 219.582 185.336 220.76 187.916 222.535C189.191 223.43 190.345 224.487 191.349 225.679L192.075 226.587L192.694 227.553C193.111 228.198 193.494 228.864 193.841 229.55C192.212 226.974 190.051 224.776 187.503 223.105C184.944 221.507 182.09 220.438 179.111 219.96C176.11 219.477 173.061 219.366 170.033 219.63C168.513 219.741 167.001 219.934 165.502 220.208C164.058 220.447 162.565 220.777 161.079 221.173Z" fill="url(#paint61_linear_1222_19033)"/>
<path style="mix-blend-mode:multiply" d="M85.0248 221.173C82.378 222.288 79.8826 223.733 77.5976 225.473C75.3043 227.181 73.1892 229.117 71.2845 231.25C70.7976 231.769 70.3767 232.347 69.9146 232.9L69.2379 233.725L68.6107 234.608L67.3646 236.358L66.2423 238.19L65.6728 239.106C65.4995 239.419 65.3427 239.741 65.1777 240.055L64.1792 241.978C63.5272 243.257 63.0073 244.61 62.3801 245.914C62.8258 244.544 63.2631 243.15 63.783 241.788L64.6743 239.799C64.8311 239.469 64.9714 239.131 65.1282 238.809L65.6563 237.852L66.7209 235.937L67.934 234.113L68.553 233.214L69.2379 232.388C69.7083 231.827 70.1374 231.233 70.6326 230.688C72.5802 228.491 74.7985 226.55 77.2345 224.912C78.4446 224.097 79.7041 223.358 81.0059 222.7C82.2977 222.073 83.6426 221.562 85.0248 221.173Z" fill="url(#paint62_linear_1222_19033)"/>
<path d="M214.803 158.727C204.339 144.079 183.443 146.167 183.443 146.167L168.44 141.282L176.462 189.08L169.513 203.406C176.428 201.397 183.73 201.113 190.78 202.581C199.139 204.231 206.938 208.052 213.986 212.913C215.23 205.495 215.865 197.988 215.884 190.466C215.884 190.466 224.821 172.748 214.803 158.727Z" fill="url(#paint63_linear_1222_19033)"/>
<g style="mix-blend-mode:multiply">
<path d="M167.112 207.301C168.647 203.051 170.33 199.049 173.095 195.475C176.132 191.547 180.118 189.113 184.648 187.396C187.394 186.038 190.494 185.565 193.52 186.043C191.671 183.996 188.609 183.41 185.894 183.873C183.179 184.335 180.704 185.688 178.294 187.017C182.296 180.965 186.743 175.22 191.597 169.827L179.614 178.228C177.982 169.056 174.939 160.193 170.594 151.952C172.179 161.352 173.738 171.189 170.792 180.25C168.96 185.894 165.511 190.838 162.705 196.061C160.111 200.916 158.065 206.045 156.606 211.353C158.694 211.46 160.733 211.65 162.837 211.881C164.157 210.693 165.527 209.521 166.889 208.349C166.934 207.994 167.009 207.644 167.112 207.301Z" fill="url(#paint64_linear_1222_19033)"/>
</g>
<path d="M112.109 71.0784H94.0613C92.6575 71.0784 91.5195 72.2163 91.5195 73.6201V84.7279C91.5195 86.1317 92.6575 87.2696 94.0613 87.2696H112.109C113.513 87.2696 114.651 86.1317 114.651 84.7279V73.6201C114.651 72.2163 113.513 71.0784 112.109 71.0784Z" fill="url(#paint65_linear_1222_19033)"/>
<path d="M144.5 71.0784H126.452C125.048 71.0784 123.91 72.2163 123.91 73.6201V84.7279C123.91 86.1317 125.048 87.2696 126.452 87.2696H144.5C145.904 87.2696 147.042 86.1317 147.042 84.7279V73.6201C147.042 72.2163 145.904 71.0784 144.5 71.0784Z" fill="url(#paint66_linear_1222_19033)"/>
<path d="M113.586 99.4336C113.586 99.4336 115.872 93.1453 118.158 93.1453C120.444 93.1453 123.3 98.8642 123.3 98.8642L113.586 99.4336Z" fill="url(#paint67_linear_1222_19033)"/>
<mask id="mask0_1222_19033" style="mask-type:luminance" maskUnits="userSpaceOnUse" x="85" y="39" width="69" height="88">
<path d="M119.041 39.3972C99.1034 39.3972 80.8408 45.6691 86.0728 79.339C86.1801 80.0322 86.3039 80.7254 86.4277 81.4186C86.535 92.188 90.0505 112.472 112.439 124.727C114.326 125.756 116.448 126.279 118.597 126.244C120.746 126.209 122.85 125.618 124.702 124.529C134.127 119.025 151.11 105.904 152.356 82.3016H151.894C152.067 81.3278 152.224 80.3375 152.356 79.3472C156.895 45.0006 138.987 39.3972 119.041 39.3972Z" fill="white"/>
</mask>
<g mask="url(#mask0_1222_19033)">
<path opacity="0.47" d="M86.7495 96.3884C86.7495 96.3884 105.73 99.1695 105.73 132.485C105.714 132.485 88.1359 103.766 86.7495 96.3884Z" fill="url(#paint68_linear_1222_19033)"/>
<path opacity="0.47" d="M151.894 96.3884C151.894 96.3884 132.914 99.1695 132.914 132.485C132.93 132.485 150.508 103.766 151.894 96.3884Z" fill="url(#paint69_linear_1222_19033)"/>
</g>
<mask id="mask1_1222_19033" style="mask-type:luminance" maskUnits="userSpaceOnUse" x="24" y="142" width="142" height="128">
<path d="M68.6356 142.676L59.9128 146.167C59.9128 146.167 42.8137 142.676 31.3016 157.72C22.2239 169.521 23.2803 189.08 29.5604 194.353C29.5604 194.353 20.8375 251.914 77.0035 269.359C77.0035 269.359 82.9371 271.101 87.121 268.311C91.305 265.522 161.079 221.215 161.079 221.215L165.263 212.137C165.263 212.137 126.196 204.809 85.0249 221.215L65.838 184.236L68.6356 142.676Z" fill="white"/>
</mask>
<g mask="url(#mask1_1222_19033)">
<g style="mix-blend-mode:multiply">
<path d="M150.054 209.438C152.117 212.112 149.064 215.669 146.307 217.625L89.184 258.252C86.5267 260.15 83.5971 262.122 80.3374 261.973C78.0515 261.866 75.9553 260.719 73.9665 259.597L59.5413 251.485C61.75 255.236 64.5539 258.602 67.8432 261.453C64.9629 261.936 62.2029 262.97 59.7146 264.499C62.5424 267.189 65.428 269.827 68.3714 272.413C69.9558 273.807 71.6723 275.227 73.6942 275.714C76.6568 276.374 79.6359 274.888 82.3097 273.477C99.9864 263.992 117.388 254.021 134.515 243.562C150.351 233.89 167.046 222.395 172.525 204.677C169.327 206.591 165.723 207.728 162.005 207.994C158.286 208.261 154.558 207.65 151.118 206.212" fill="url(#paint70_linear_1222_19033)"/>
</g>
<path d="M31.3016 157.679C29.5518 160.415 28.2195 163.397 27.3487 166.526C26.4846 169.609 25.9887 172.783 25.8715 175.983C25.7381 179.139 26.0155 182.298 26.6967 185.383C27.0243 186.872 27.5199 188.32 28.1739 189.699C28.4933 190.354 28.8688 190.981 29.2962 191.572C29.6942 192.103 30.151 192.588 30.6579 193.016L31.3593 193.594L31.2438 194.568C31.0364 196.506 30.9263 198.453 30.9137 200.402C30.9137 202.374 30.9137 204.347 31.0623 206.319C31.2748 210.257 31.7629 214.176 32.5229 218.046C33.2912 221.902 34.3477 225.695 35.6836 229.393C37.0335 233.074 38.6898 236.635 40.6351 240.038C42.636 243.413 44.9367 246.6 47.5093 249.562C50.1241 252.52 52.9962 255.24 56.0919 257.69C62.4907 262.52 69.5319 266.433 77.0118 269.318C69.0313 267.479 61.4417 264.235 54.5982 259.737C53.7729 259.159 52.9477 258.532 52.1225 257.93L50.8846 257.005L49.7045 255.999C48.9288 255.314 48.1118 254.67 47.369 253.952L45.1492 251.773C42.2818 248.763 39.7193 245.476 37.4992 241.961C35.3176 238.418 33.4878 234.67 32.036 230.771C30.5575 226.895 29.4333 222.892 28.6773 218.813C27.9124 214.749 27.4545 210.633 27.3074 206.501C27.2496 204.437 27.2579 202.374 27.3569 200.311C27.4391 198.223 27.6291 196.141 27.9263 194.072L28.5123 195.624C27.1265 194.338 26.0537 192.751 25.3763 190.986C24.7159 189.369 24.2397 187.684 23.9569 185.96C23.4091 182.612 23.3424 179.202 23.7589 175.835C24.1612 172.506 24.9934 169.244 26.2346 166.13C27.4432 163.051 29.1556 160.196 31.3016 157.679Z" fill="url(#paint71_linear_1222_19033)"/>
</g>
<g style="mix-blend-mode:multiply">
<path d="M204.933 243.051C198.797 248.724 191.821 253.414 184.252 256.956L187.025 251.559C180.423 256.865 171.098 257.08 162.639 256.353C155.417 255.73 148.247 254.602 141.183 252.978C138.707 252.417 136.157 251.707 134.449 249.859C132.229 247.449 132.146 243.645 133.376 240.608C133.735 239.743 134.174 238.914 134.688 238.132L108.387 255.025C169.455 267.238 188.271 264.796 188.271 264.796C195.607 258.978 200.947 251.286 204.933 243.051Z" fill="url(#paint72_linear_1222_19033)"/>
</g>
<path d="M59.5221 279.727C58.9011 279.727 58.2988 279.645 57.7152 279.48C57.139 279.308 56.6751 279.087 56.3235 278.818L56.9408 277.449C57.2775 277.696 57.6778 277.894 58.1417 278.044C58.6056 278.193 59.0695 278.268 59.5334 278.268C60.0496 278.268 60.4312 278.193 60.6781 278.044C60.925 277.886 61.0485 277.681 61.0485 277.426C61.0485 277.239 60.9737 277.086 60.824 276.966C60.6819 276.839 60.4948 276.738 60.2629 276.663C60.0384 276.588 59.7316 276.506 59.3426 276.416C58.744 276.274 58.2539 276.132 57.8723 275.99C57.4907 275.847 57.1615 275.619 56.8847 275.305C56.6153 274.991 56.4806 274.572 56.4806 274.048C56.4806 273.592 56.6041 273.18 56.851 272.813C57.0979 272.439 57.4683 272.144 57.9621 271.927C58.4634 271.71 59.0732 271.601 59.7915 271.601C60.2928 271.601 60.7829 271.661 61.2617 271.781C61.7406 271.901 62.1596 272.073 62.5187 272.297L61.9576 273.678C61.2318 273.266 60.506 273.06 59.7803 273.06C59.2715 273.06 58.8936 273.143 58.6467 273.307C58.4073 273.472 58.2876 273.689 58.2876 273.958C58.2876 274.228 58.426 274.43 58.7028 274.564C58.9871 274.691 59.4174 274.819 59.9935 274.946C60.5921 275.088 61.0822 275.23 61.4638 275.372C61.8454 275.515 62.1708 275.739 62.4402 276.046C62.717 276.353 62.8554 276.768 62.8554 277.292C62.8554 277.74 62.7282 278.152 62.4739 278.526C62.2269 278.893 61.8528 279.185 61.3515 279.402C60.8502 279.619 60.2404 279.727 59.5221 279.727Z" fill="white"/>
<path d="M69.889 276.596C69.889 276.618 69.8778 276.775 69.8554 277.067H65.2875C65.3698 277.441 65.5643 277.737 65.8711 277.954C66.1779 278.171 66.5595 278.279 67.0159 278.279C67.3301 278.279 67.607 278.234 67.8464 278.145C68.0933 278.047 68.3215 277.898 68.531 277.696L69.4626 278.706C68.8939 279.357 68.0634 279.682 66.971 279.682C66.2901 279.682 65.6878 279.551 65.164 279.289C64.6403 279.02 64.2362 278.65 63.9519 278.178C63.6676 277.707 63.5254 277.172 63.5254 276.573C63.5254 275.982 63.6638 275.451 63.9407 274.98C64.225 274.501 64.6103 274.13 65.0967 273.868C65.5905 273.599 66.1405 273.464 66.7465 273.464C67.3376 273.464 67.8726 273.592 68.3514 273.846C68.8303 274.1 69.2044 274.467 69.4738 274.946C69.7506 275.417 69.889 275.967 69.889 276.596ZM66.7577 274.789C66.3612 274.789 66.0282 274.901 65.7589 275.125C65.4895 275.35 65.3249 275.657 65.265 276.046H68.2392C68.1794 275.664 68.0147 275.361 67.7454 275.137C67.476 274.905 67.1468 274.789 66.7577 274.789Z" fill="white"/>
<path d="M73.9727 279.682C73.3293 279.682 72.7494 279.551 72.2331 279.289C71.7243 279.02 71.324 278.65 71.0322 278.178C70.7479 277.707 70.6057 277.172 70.6057 276.573C70.6057 275.975 70.7479 275.44 71.0322 274.968C71.324 274.497 71.7243 274.13 72.2331 273.868C72.7494 273.599 73.3293 273.464 73.9727 273.464C74.6087 273.464 75.1624 273.599 75.6338 273.868C76.1126 274.13 76.4606 274.508 76.6776 275.002L75.3195 275.732C75.0053 275.178 74.5526 274.901 73.9615 274.901C73.5051 274.901 73.1273 275.051 72.828 275.35C72.5287 275.649 72.379 276.057 72.379 276.573C72.379 277.09 72.5287 277.497 72.828 277.797C73.1273 278.096 73.5051 278.246 73.9615 278.246C74.5601 278.246 75.0128 277.969 75.3195 277.415L76.6776 278.156C76.4606 278.635 76.1126 279.009 75.6338 279.278C75.1624 279.547 74.6087 279.682 73.9727 279.682Z" fill="white"/>
<path d="M83.7687 273.554V279.592H82.1076V278.874C81.8757 279.136 81.5988 279.338 81.2771 279.48C80.9554 279.615 80.6074 279.682 80.2333 279.682C79.4402 279.682 78.8117 279.454 78.3478 278.998C77.8839 278.541 77.652 277.864 77.652 276.966V273.554H79.4028V276.708C79.4028 277.681 79.8106 278.167 80.6261 278.167C81.0451 278.167 81.3818 278.032 81.6362 277.763C81.8906 277.486 82.0178 277.078 82.0178 276.54V273.554H83.7687Z" fill="white"/>
<path d="M87.063 274.351C87.2725 274.059 87.553 273.839 87.9047 273.689C88.2639 273.539 88.6754 273.464 89.1393 273.464V275.081C88.9447 275.066 88.8138 275.058 88.7465 275.058C88.2452 275.058 87.8523 275.2 87.568 275.485C87.2837 275.761 87.1415 276.18 87.1415 276.742V279.592H85.3907V273.554H87.063V274.351Z" fill="white"/>
<path d="M96.0402 276.596C96.0402 276.618 96.029 276.775 96.0065 277.067H91.4386C91.521 277.441 91.7155 277.737 92.0223 277.954C92.329 278.171 92.7106 278.279 93.167 278.279C93.4813 278.279 93.7581 278.234 93.9976 278.145C94.2445 278.047 94.4727 277.898 94.6822 277.696L95.6137 278.706C95.0451 279.357 94.2145 279.682 93.1221 279.682C92.4413 279.682 91.8389 279.551 91.3152 279.289C90.7914 279.02 90.3874 278.65 90.1031 278.178C89.8188 277.707 89.6766 277.172 89.6766 276.573C89.6766 275.982 89.815 275.451 90.0919 274.98C90.3762 274.501 90.7615 274.13 91.2479 273.868C91.7417 273.599 92.2916 273.464 92.8977 273.464C93.4888 273.464 94.0237 273.592 94.5026 273.846C94.9815 274.1 95.3556 274.467 95.6249 274.946C95.9018 275.417 96.0402 275.967 96.0402 276.596ZM92.9089 274.789C92.5123 274.789 92.1794 274.901 91.91 275.125C91.6407 275.35 91.4761 275.657 91.4162 276.046H94.3904C94.3305 275.664 94.1659 275.361 93.8965 275.137C93.6272 274.905 93.298 274.789 92.9089 274.789Z" fill="white"/>
<path d="M103.089 279.727C102.468 279.727 101.866 279.645 101.282 279.48C100.706 279.308 100.242 279.087 99.8905 278.818L100.508 277.449C100.844 277.696 101.245 277.894 101.709 278.044C102.173 278.193 102.636 278.268 103.1 278.268C103.617 278.268 103.998 278.193 104.245 278.044C104.492 277.886 104.616 277.681 104.616 277.426C104.616 277.239 104.541 277.086 104.391 276.966C104.249 276.839 104.062 276.738 103.83 276.663C103.605 276.588 103.299 276.506 102.91 276.416C102.311 276.274 101.821 276.132 101.439 275.99C101.058 275.847 100.729 275.619 100.452 275.305C100.182 274.991 100.048 274.572 100.048 274.048C100.048 273.592 100.171 273.18 100.418 272.813C100.665 272.439 101.035 272.144 101.529 271.927C102.03 271.71 102.64 271.601 103.358 271.601C103.86 271.601 104.35 271.661 104.829 271.781C105.308 271.901 105.727 272.073 106.086 272.297L105.525 273.678C104.799 273.266 104.073 273.06 103.347 273.06C102.838 273.06 102.461 273.143 102.214 273.307C101.974 273.472 101.855 273.689 101.855 273.958C101.855 274.228 101.993 274.43 102.27 274.564C102.554 274.691 102.984 274.819 103.561 274.946C104.159 275.088 104.649 275.23 105.031 275.372C105.412 275.515 105.738 275.739 106.007 276.046C106.284 276.353 106.422 276.768 106.422 277.292C106.422 277.74 106.295 278.152 106.041 278.526C105.794 278.893 105.42 279.185 104.919 279.402C104.417 279.619 103.807 279.727 103.089 279.727Z" fill="white"/>
<path d="M110.415 279.682C109.779 279.682 109.206 279.551 108.697 279.289C108.196 279.02 107.803 278.65 107.519 278.178C107.235 277.707 107.092 277.172 107.092 276.573C107.092 275.975 107.235 275.44 107.519 274.968C107.803 274.497 108.196 274.13 108.697 273.868C109.206 273.599 109.779 273.464 110.415 273.464C111.051 273.464 111.619 273.599 112.12 273.868C112.622 274.13 113.015 274.497 113.299 274.968C113.583 275.44 113.725 275.975 113.725 276.573C113.725 277.172 113.583 277.707 113.299 278.178C113.015 278.65 112.622 279.02 112.12 279.289C111.619 279.551 111.051 279.682 110.415 279.682ZM110.415 278.246C110.863 278.246 111.23 278.096 111.514 277.797C111.806 277.49 111.952 277.082 111.952 276.573C111.952 276.064 111.806 275.66 111.514 275.361C111.23 275.054 110.863 274.901 110.415 274.901C109.966 274.901 109.595 275.054 109.303 275.361C109.012 275.66 108.866 276.064 108.866 276.573C108.866 277.082 109.012 277.49 109.303 277.797C109.595 278.096 109.966 278.246 110.415 278.246Z" fill="white"/>
<path d="M117.814 279.682C117.17 279.682 116.59 279.551 116.074 279.289C115.565 279.02 115.165 278.65 114.873 278.178C114.589 277.707 114.447 277.172 114.447 276.573C114.447 275.975 114.589 275.44 114.873 274.968C115.165 274.497 115.565 274.13 116.074 273.868C116.59 273.599 117.17 273.464 117.814 273.464C118.45 273.464 119.003 273.599 119.475 273.868C119.954 274.13 120.302 274.508 120.519 275.002L119.161 275.732C118.846 275.178 118.394 274.901 117.803 274.901C117.346 274.901 116.968 275.051 116.669 275.35C116.37 275.649 116.22 276.057 116.22 276.573C116.22 277.09 116.37 277.497 116.669 277.797C116.968 278.096 117.346 278.246 117.803 278.246C118.401 278.246 118.854 277.969 119.161 277.415L120.519 278.156C120.302 278.635 119.954 279.009 119.475 279.278C119.003 279.547 118.45 279.682 117.814 279.682Z" fill="white"/>
<path d="M124.075 277.224L123.234 278.055V279.592H121.483V271.265H123.234V275.978L125.793 273.554H127.88L125.366 276.113L128.105 279.592H125.983L124.075 277.224Z" fill="white"/>
<path d="M134.544 276.596C134.544 276.618 134.532 276.775 134.51 277.067H129.942C130.024 277.441 130.219 277.737 130.526 277.954C130.832 278.171 131.214 278.279 131.67 278.279C131.985 278.279 132.262 278.234 132.501 278.145C132.748 278.047 132.976 277.898 133.186 277.696L134.117 278.706C133.548 279.357 132.718 279.682 131.626 279.682C130.945 279.682 130.342 279.551 129.819 279.289C129.295 279.02 128.891 278.65 128.606 278.178C128.322 277.707 128.18 277.172 128.18 276.573C128.18 275.982 128.318 275.451 128.595 274.98C128.88 274.501 129.265 274.13 129.751 273.868C130.245 273.599 130.795 273.464 131.401 273.464C131.992 273.464 132.527 273.592 133.006 273.846C133.485 274.1 133.859 274.467 134.128 274.946C134.405 275.417 134.544 275.967 134.544 276.596ZM131.412 274.789C131.016 274.789 130.683 274.901 130.413 275.125C130.144 275.35 129.979 275.657 129.92 276.046H132.894C132.834 275.664 132.669 275.361 132.4 275.137C132.131 274.905 131.801 274.789 131.412 274.789Z" fill="white"/>
<path d="M139.604 279.301C139.432 279.428 139.218 279.525 138.964 279.592C138.717 279.652 138.455 279.682 138.178 279.682C137.46 279.682 136.903 279.499 136.506 279.132C136.117 278.766 135.922 278.227 135.922 277.516V275.036H134.991V273.689H135.922V272.219H137.673V273.689H139.177V275.036H137.673V277.494C137.673 277.748 137.737 277.946 137.864 278.088C137.999 278.223 138.186 278.29 138.425 278.29C138.702 278.29 138.938 278.216 139.132 278.066L139.604 279.301Z" fill="white"/>
<path d="M142.618 279.682C142.117 279.682 141.627 279.622 141.148 279.503C140.669 279.375 140.287 279.218 140.003 279.031L140.587 277.774C140.856 277.946 141.181 278.088 141.563 278.201C141.945 278.305 142.319 278.358 142.685 278.358C143.426 278.358 143.796 278.174 143.796 277.808C143.796 277.636 143.695 277.512 143.493 277.437C143.291 277.363 142.981 277.299 142.562 277.247C142.068 277.172 141.66 277.086 141.338 276.989C141.017 276.891 140.736 276.719 140.497 276.472C140.265 276.225 140.149 275.874 140.149 275.417C140.149 275.036 140.257 274.699 140.474 274.407C140.699 274.108 141.021 273.876 141.44 273.711C141.866 273.547 142.367 273.464 142.943 273.464C143.37 273.464 143.793 273.513 144.212 273.61C144.638 273.7 144.99 273.827 145.267 273.992L144.683 275.238C144.152 274.938 143.572 274.789 142.943 274.789C142.569 274.789 142.289 274.841 142.102 274.946C141.915 275.051 141.821 275.185 141.821 275.35C141.821 275.537 141.922 275.668 142.124 275.743C142.326 275.818 142.648 275.889 143.089 275.956C143.583 276.038 143.987 276.128 144.301 276.225C144.616 276.315 144.889 276.483 145.121 276.73C145.353 276.977 145.469 277.321 145.469 277.763C145.469 278.137 145.356 278.47 145.132 278.762C144.908 279.054 144.578 279.282 144.144 279.446C143.718 279.604 143.209 279.682 142.618 279.682Z" fill="white"/>
<path d="M149.851 271.736H151.669V278.111H155.608V279.592H149.851V271.736Z" fill="white"/>
<path d="M159.002 273.464C159.937 273.464 160.656 273.689 161.157 274.138C161.658 274.579 161.909 275.249 161.909 276.147V279.592H160.27V278.84C159.941 279.402 159.328 279.682 158.43 279.682C157.966 279.682 157.562 279.604 157.218 279.446C156.881 279.289 156.623 279.072 156.443 278.795C156.264 278.519 156.174 278.204 156.174 277.853C156.174 277.292 156.383 276.85 156.802 276.528C157.229 276.207 157.883 276.046 158.766 276.046H160.158C160.158 275.664 160.042 275.372 159.81 275.17C159.578 274.961 159.23 274.856 158.766 274.856C158.445 274.856 158.127 274.908 157.812 275.013C157.506 275.111 157.244 275.245 157.027 275.417L156.398 274.194C156.727 273.962 157.12 273.782 157.577 273.655C158.041 273.528 158.516 273.464 159.002 273.464ZM158.867 278.504C159.167 278.504 159.432 278.436 159.664 278.302C159.896 278.159 160.061 277.954 160.158 277.684V277.067H158.957C158.239 277.067 157.88 277.303 157.88 277.774C157.88 277.999 157.966 278.178 158.138 278.313C158.317 278.44 158.561 278.504 158.867 278.504Z" fill="white"/>
<path d="M169.377 273.554L166.65 279.963C166.373 280.659 166.029 281.149 165.617 281.433C165.213 281.717 164.723 281.859 164.147 281.859C163.833 281.859 163.522 281.811 163.216 281.714C162.909 281.616 162.658 281.482 162.464 281.31L163.103 280.064C163.238 280.183 163.391 280.277 163.563 280.344C163.743 280.412 163.919 280.445 164.091 280.445C164.33 280.445 164.525 280.385 164.675 280.266C164.824 280.154 164.959 279.963 165.079 279.693L165.101 279.637L162.486 273.554H164.293L165.988 277.651L167.694 273.554H169.377Z" fill="white"/>
<path d="M175.842 276.596C175.842 276.618 175.831 276.775 175.808 277.067H171.24C171.323 277.441 171.517 277.737 171.824 277.954C172.131 278.171 172.512 278.279 172.969 278.279C173.283 278.279 173.56 278.234 173.799 278.145C174.046 278.047 174.274 277.898 174.484 277.696L175.415 278.706C174.847 279.357 174.016 279.682 172.924 279.682C172.243 279.682 171.641 279.551 171.117 279.289C170.593 279.02 170.189 278.65 169.905 278.178C169.62 277.707 169.478 277.172 169.478 276.573C169.478 275.982 169.617 275.451 169.893 274.98C170.178 274.501 170.563 274.13 171.049 273.868C171.543 273.599 172.093 273.464 172.699 273.464C173.29 273.464 173.825 273.592 174.304 273.846C174.783 274.1 175.157 274.467 175.427 274.946C175.703 275.417 175.842 275.967 175.842 276.596ZM172.711 274.789C172.314 274.789 171.981 274.901 171.712 275.125C171.442 275.35 171.278 275.657 171.218 276.046H174.192C174.132 275.664 173.968 275.361 173.698 275.137C173.429 274.905 173.1 274.789 172.711 274.789Z" fill="white"/>
<path d="M178.68 274.351C178.889 274.059 179.17 273.839 179.521 273.689C179.881 273.539 180.292 273.464 180.756 273.464V275.081C180.562 275.066 180.431 275.058 180.363 275.058C179.862 275.058 179.469 275.2 179.185 275.485C178.9 275.761 178.758 276.18 178.758 276.742V279.592H177.007V273.554H178.68V274.351Z" fill="white"/>
<path d="M209.199 98.2369H207.969V97.7418C207.892 94.9274 206.719 92.2544 204.701 90.2912C202.683 88.3281 199.978 87.2297 197.163 87.2297C194.347 87.2297 191.643 88.3281 189.625 90.2912C187.607 92.2544 186.434 94.9274 186.356 97.7418V98.2369H184.788C184.21 98.2369 183.637 98.3509 183.102 98.5724C182.567 98.7938 182.082 99.1184 181.672 99.5276C181.263 99.9368 180.939 100.423 180.717 100.957C180.496 101.492 180.382 102.065 180.382 102.644V114.857C180.382 119.263 182.132 123.488 185.247 126.604C188.363 129.719 192.588 131.469 196.994 131.469C201.4 131.469 205.625 129.719 208.74 126.604C211.856 123.488 213.606 119.263 213.606 114.857V102.644C213.606 102.065 213.492 101.492 213.27 100.957C213.049 100.423 212.724 99.9368 212.315 99.5276C211.906 99.1184 211.42 98.7938 210.885 98.5724C210.351 98.3509 209.778 98.2369 209.199 98.2369ZM188.642 97.7418C188.642 95.4809 189.54 93.3125 191.139 91.7138C192.738 90.1151 194.906 89.217 197.167 89.217C199.428 89.217 201.596 90.1151 203.195 91.7138C204.794 93.3125 205.692 95.4809 205.692 97.7418V98.2369H188.626L188.642 97.7418ZM197.167 122.656C196.529 122.657 195.904 122.47 195.372 122.116C194.84 121.763 194.426 121.259 194.18 120.67C193.935 120.08 193.87 119.431 193.993 118.805C194.117 118.178 194.423 117.603 194.874 117.15C195.325 116.698 195.9 116.39 196.526 116.265C197.152 116.14 197.802 116.203 198.392 116.447C198.982 116.691 199.486 117.105 199.841 117.636C200.196 118.166 200.385 118.791 200.385 119.429C200.385 119.854 200.302 120.274 200.139 120.666C199.976 121.058 199.738 121.414 199.437 121.714C199.137 122.013 198.78 122.251 198.388 122.413C197.995 122.574 197.575 122.657 197.151 122.656H197.167Z" fill="white"/>
</g>
<defs>
<linearGradient id="paint0_linear_1222_19033" x1="122.549" y1="-2.84695" x2="122.549" y2="547.037" gradientUnits="userSpaceOnUse">
<stop stop-color="#2D396C"/>
<stop offset="0.99" stop-color="#0E153E"/>
</linearGradient>
<linearGradient id="paint1_linear_1222_19033" x1="170.784" y1="128.292" x2="124.785" y2="124.496" gradientUnits="userSpaceOnUse">
<stop stop-color="#BAFFCA"/>
<stop offset="0.98" stop-color="#999999" stop-opacity="0"/>
</linearGradient>
<linearGradient id="paint2_linear_1222_19033" x1="172.666" y1="105.565" x2="126.667" y2="101.761" gradientUnits="userSpaceOnUse">
<stop stop-color="#BAFFCA"/>
<stop offset="0.98" stop-color="#999999" stop-opacity="0"/>
</linearGradient>
<linearGradient id="paint3_linear_1222_19033" x1="172.014" y1="113.471" x2="126.006" y2="109.667" gradientUnits="userSpaceOnUse">
<stop stop-color="#BAFFCA"/>
<stop offset="0.98" stop-color="#999999" stop-opacity="0"/>
</linearGradient>
<linearGradient id="paint4_linear_1222_19033" x1="170.817" y1="127.962" x2="124.81" y2="124.158" gradientUnits="userSpaceOnUse">
<stop stop-color="#BAFFCA"/>
<stop offset="0.98" stop-color="#999999" stop-opacity="0"/>
</linearGradient>
<linearGradient id="paint5_linear_1222_19033" x1="172.699" y1="105.161" x2="126.7" y2="101.357" gradientUnits="userSpaceOnUse">
<stop stop-color="#BAFFCA"/>
<stop offset="0.98" stop-color="#999999" stop-opacity="0"/>
</linearGradient>
<linearGradient id="paint6_linear_1222_19033" x1="171.972" y1="113.933" x2="125.973" y2="110.129" gradientUnits="userSpaceOnUse">
<stop stop-color="#BAFFCA"/>
<stop offset="0.98" stop-color="#999999" stop-opacity="0"/>
</linearGradient>
<linearGradient id="paint7_linear_1222_19033" x1="171.576" y1="118.744" x2="125.569" y2="114.948" gradientUnits="userSpaceOnUse">
<stop stop-color="#BAFFCA"/>
<stop offset="0.98" stop-color="#999999" stop-opacity="0"/>
</linearGradient>
<linearGradient id="paint8_linear_1222_19033" x1="173.053" y1="100.927" x2="127.055" y2="97.1311" gradientUnits="userSpaceOnUse">
<stop stop-color="#BAFFCA"/>
<stop offset="0.98" stop-color="#999999" stop-opacity="0"/>
</linearGradient>
<linearGradient id="paint9_linear_1222_19033" x1="172.922" y1="102.578" x2="126.914" y2="98.7816" gradientUnits="userSpaceOnUse">
<stop stop-color="#BAFFCA"/>
<stop offset="0.98" stop-color="#999999" stop-opacity="0"/>
</linearGradient>
<linearGradient id="paint10_linear_1222_19033" x1="170.718" y1="129.085" x2="124.719" y2="125.28" gradientUnits="userSpaceOnUse">
<stop stop-color="#BAFFCA"/>
<stop offset="0.98" stop-color="#999999" stop-opacity="0"/>
</linearGradient>
<linearGradient id="paint11_linear_1222_19033" x1="170.908" y1="126.856" x2="124.9" y2="123.052" gradientUnits="userSpaceOnUse">
<stop stop-color="#BAFFCA"/>
<stop offset="0.98" stop-color="#999999" stop-opacity="0"/>
</linearGradient>
<linearGradient id="paint12_linear_1222_19033" x1="74.3049" y1="128.301" x2="120.304" y2="124.496" gradientUnits="userSpaceOnUse">
<stop stop-color="#BAFFCA"/>
<stop offset="0.98" stop-color="#999999" stop-opacity="0"/>
</linearGradient>
<linearGradient id="paint13_linear_1222_19033" x1="72.4234" y1="105.565" x2="118.431" y2="101.761" gradientUnits="userSpaceOnUse">
<stop stop-color="#BAFFCA"/>
<stop offset="0.98" stop-color="#999999" stop-opacity="0"/>
</linearGradient>
<linearGradient id="paint14_linear_1222_19033" x1="73.0753" y1="113.471" x2="119.083" y2="109.667" gradientUnits="userSpaceOnUse">
<stop stop-color="#BAFFCA"/>
<stop offset="0.98" stop-color="#999999" stop-opacity="0"/>
</linearGradient>
<linearGradient id="paint15_linear_1222_19033" x1="74.2801" y1="127.962" x2="120.279" y2="124.158" gradientUnits="userSpaceOnUse">
<stop stop-color="#BAFFCA"/>
<stop offset="0.98" stop-color="#999999" stop-opacity="0"/>
</linearGradient>
<linearGradient id="paint16_linear_1222_19033" x1="72.3904" y1="105.161" x2="118.398" y2="101.357" gradientUnits="userSpaceOnUse">
<stop stop-color="#BAFFCA"/>
<stop offset="0.98" stop-color="#999999" stop-opacity="0"/>
</linearGradient>
<linearGradient id="paint17_linear_1222_19033" x1="73.1166" y1="113.933" x2="119.124" y2="110.129" gradientUnits="userSpaceOnUse">
<stop stop-color="#BAFFCA"/>
<stop offset="0.98" stop-color="#999999" stop-opacity="0"/>
</linearGradient>
<linearGradient id="paint18_linear_1222_19033" x1="73.5128" y1="118.744" x2="119.52" y2="114.948" gradientUnits="userSpaceOnUse">
<stop stop-color="#BAFFCA"/>
<stop offset="0.98" stop-color="#999999" stop-opacity="0"/>
</linearGradient>
<linearGradient id="paint19_linear_1222_19033" x1="72.0438" y1="100.927" x2="118.043" y2="97.1311" gradientUnits="userSpaceOnUse">
<stop stop-color="#BAFFCA"/>
<stop offset="0.98" stop-color="#999999" stop-opacity="0"/>
</linearGradient>
<linearGradient id="paint20_linear_1222_19033" x1="72.1759" y1="102.578" x2="118.183" y2="98.7817" gradientUnits="userSpaceOnUse">
<stop stop-color="#BAFFCA"/>
<stop offset="0.98" stop-color="#999999" stop-opacity="0"/>
</linearGradient>
<linearGradient id="paint21_linear_1222_19033" x1="74.371" y1="129.085" x2="120.37" y2="125.28" gradientUnits="userSpaceOnUse">
<stop stop-color="#BAFFCA"/>
<stop offset="0.98" stop-color="#999999" stop-opacity="0"/>
</linearGradient>
<linearGradient id="paint22_linear_1222_19033" x1="74.1813" y1="126.856" x2="120.189" y2="123.052" gradientUnits="userSpaceOnUse">
<stop stop-color="#BAFFCA"/>
<stop offset="0.98" stop-color="#999999" stop-opacity="0"/>
</linearGradient>
<linearGradient id="paint23_linear_1222_19033" x1="170.561" y1="290.733" x2="124.554" y2="286.929" gradientUnits="userSpaceOnUse">
<stop stop-color="#BAFFCA"/>
<stop offset="0.98" stop-color="#999999" stop-opacity="0"/>
</linearGradient>
<linearGradient id="paint24_linear_1222_19033" x1="172.6" y1="266.058" x2="126.592" y2="262.262" gradientUnits="userSpaceOnUse">
<stop stop-color="#BAFFCA"/>
<stop offset="0.98" stop-color="#999999" stop-opacity="0"/>
</linearGradient>
<linearGradient id="paint25_linear_1222_19033" x1="171.915" y1="274.369" x2="125.907" y2="270.572" gradientUnits="userSpaceOnUse">
<stop stop-color="#BAFFCA"/>
<stop offset="0.98" stop-color="#999999" stop-opacity="0"/>
</linearGradient>
<linearGradient id="paint26_linear_1222_19033" x1="170.817" y1="287.548" x2="124.81" y2="283.752" gradientUnits="userSpaceOnUse">
<stop stop-color="#BAFFCA"/>
<stop offset="0.98" stop-color="#999999" stop-opacity="0"/>
</linearGradient>
<linearGradient id="paint27_linear_1222_19033" x1="172.699" y1="264.755" x2="126.7" y2="260.95" gradientUnits="userSpaceOnUse">
<stop stop-color="#BAFFCA"/>
<stop offset="0.98" stop-color="#999999" stop-opacity="0"/>
</linearGradient>
<linearGradient id="paint28_linear_1222_19033" x1="171.84" y1="275.227" x2="125.841" y2="271.422" gradientUnits="userSpaceOnUse">
<stop stop-color="#BAFFCA"/>
<stop offset="0.98" stop-color="#999999" stop-opacity="0"/>
</linearGradient>
<linearGradient id="paint29_linear_1222_19033" x1="171.576" y1="278.338" x2="125.569" y2="274.534" gradientUnits="userSpaceOnUse">
<stop stop-color="#BAFFCA"/>
<stop offset="0.98" stop-color="#999999" stop-opacity="0"/>
</linearGradient>
<linearGradient id="paint30_linear_1222_19033" x1="173.045" y1="260.529" x2="127.046" y2="256.725" gradientUnits="userSpaceOnUse">
<stop stop-color="#BAFFCA"/>
<stop offset="0.98" stop-color="#999999" stop-opacity="0"/>
</linearGradient>
<linearGradient id="paint31_linear_1222_19033" x1="172.922" y1="262.172" x2="126.914" y2="258.375" gradientUnits="userSpaceOnUse">
<stop stop-color="#BAFFCA"/>
<stop offset="0.98" stop-color="#999999" stop-opacity="0"/>
</linearGradient>
<linearGradient id="paint32_linear_1222_19033" x1="170.726" y1="288.67" x2="124.727" y2="284.866" gradientUnits="userSpaceOnUse">
<stop stop-color="#BAFFCA"/>
<stop offset="0.98" stop-color="#999999" stop-opacity="0"/>
</linearGradient>
<linearGradient id="paint33_linear_1222_19033" x1="170.916" y1="286.442" x2="124.909" y2="282.637" gradientUnits="userSpaceOnUse">
<stop stop-color="#BAFFCA"/>
<stop offset="0.98" stop-color="#999999" stop-opacity="0"/>
</linearGradient>
<linearGradient id="paint34_linear_1222_19033" x1="74.4453" y1="289.586" x2="120.444" y2="285.782" gradientUnits="userSpaceOnUse">
<stop stop-color="#BAFFCA"/>
<stop offset="0.98" stop-color="#999999" stop-opacity="0"/>
</linearGradient>
<linearGradient id="paint35_linear_1222_19033" x1="72.4811" y1="265.86" x2="118.488" y2="262.056" gradientUnits="userSpaceOnUse">
<stop stop-color="#BAFFCA"/>
<stop offset="0.98" stop-color="#999999" stop-opacity="0"/>
</linearGradient>
<linearGradient id="paint36_linear_1222_19033" x1="73.166" y1="274.162" x2="119.173" y2="270.358" gradientUnits="userSpaceOnUse">
<stop stop-color="#BAFFCA"/>
<stop offset="0.98" stop-color="#999999" stop-opacity="0"/>
</linearGradient>
<linearGradient id="paint37_linear_1222_19033" x1="74.2801" y1="287.548" x2="120.279" y2="283.752" gradientUnits="userSpaceOnUse">
<stop stop-color="#BAFFCA"/>
<stop offset="0.98" stop-color="#999999" stop-opacity="0"/>
</linearGradient>
<linearGradient id="paint38_linear_1222_19033" x1="72.3904" y1="264.755" x2="118.398" y2="260.95" gradientUnits="userSpaceOnUse">
<stop stop-color="#BAFFCA"/>
<stop offset="0.98" stop-color="#999999" stop-opacity="0"/>
</linearGradient>
<linearGradient id="paint39_linear_1222_19033" x1="73.2321" y1="274.938" x2="119.239" y2="271.134" gradientUnits="userSpaceOnUse">
<stop stop-color="#BAFFCA"/>
<stop offset="0.98" stop-color="#999999" stop-opacity="0"/>
</linearGradient>
<linearGradient id="paint40_linear_1222_19033" x1="73.5128" y1="278.338" x2="119.52" y2="274.534" gradientUnits="userSpaceOnUse">
<stop stop-color="#BAFFCA"/>
<stop offset="0.98" stop-color="#999999" stop-opacity="0"/>
</linearGradient>
<linearGradient id="paint41_linear_1222_19033" x1="72.0438" y1="260.529" x2="118.043" y2="256.725" gradientUnits="userSpaceOnUse">
<stop stop-color="#BAFFCA"/>
<stop offset="0.98" stop-color="#999999" stop-opacity="0"/>
</linearGradient>
<linearGradient id="paint42_linear_1222_19033" x1="72.1759" y1="262.172" x2="118.183" y2="258.375" gradientUnits="userSpaceOnUse">
<stop stop-color="#BAFFCA"/>
<stop offset="0.98" stop-color="#999999" stop-opacity="0"/>
</linearGradient>
<linearGradient id="paint43_linear_1222_19033" x1="74.3709" y1="288.67" x2="120.37" y2="284.866" gradientUnits="userSpaceOnUse">
<stop stop-color="#BAFFCA"/>
<stop offset="0.98" stop-color="#999999" stop-opacity="0"/>
</linearGradient>
<linearGradient id="paint44_linear_1222_19033" x1="74.1812" y1="286.442" x2="120.189" y2="282.637" gradientUnits="userSpaceOnUse">
<stop stop-color="#BAFFCA"/>
<stop offset="0.98" stop-color="#999999" stop-opacity="0"/>
</linearGradient>
<linearGradient id="paint45_linear_1222_19033" x1="122.549" y1="20.2433" x2="122.549" y2="339.852" gradientUnits="userSpaceOnUse">
<stop stop-color="#85C369"/>
<stop offset="0.99" stop-color="#4B9535"/>
</linearGradient>
<linearGradient id="paint46_linear_1222_19033" x1="221.842" y1="199.057" x2="168.292" y2="199.057" gradientUnits="userSpaceOnUse">
<stop stop-color="#DAFFC2"/>
<stop offset="0.99" stop-color="#7DD165"/>
</linearGradient>
<linearGradient id="paint47_linear_1222_19033" x1="125.495" y1="229.162" x2="125.495" y2="142.206" gradientUnits="userSpaceOnUse">
<stop stop-color="#85C369"/>
<stop offset="0.99" stop-color="#4B9535"/>
</linearGradient>
<linearGradient id="paint48_linear_1222_19033" x1="120.642" y1="-4.88534" x2="120.642" y2="65.4171" gradientUnits="userSpaceOnUse">
<stop stop-color="#2D396C"/>
<stop offset="0.99" stop-color="#0E153E"/>
</linearGradient>
<linearGradient id="paint49_linear_1222_19033" x1="118.521" y1="229.162" x2="118.521" y2="142.206" gradientUnits="userSpaceOnUse">
<stop stop-color="#85C369"/>
<stop offset="0.99" stop-color="#4B9535"/>
</linearGradient>
<linearGradient id="paint50_linear_1222_19033" x1="117.845" y1="197.448" x2="117.845" y2="153.487" gradientUnits="userSpaceOnUse">
<stop stop-color="#C4FFA9"/>
<stop offset="0.99" stop-color="#7DD165"/>
</linearGradient>
<linearGradient id="paint51_linear_1222_19033" x1="142.85" y1="127.426" x2="104.723" y2="103.007" gradientUnits="userSpaceOnUse">
<stop stop-color="#85C369" stop-opacity="0"/>
<stop offset="0.99" stop-color="#4B9535"/>
</linearGradient>
<linearGradient id="paint52_linear_1222_19033" x1="24.6749" y1="206.269" x2="165.263" y2="206.269" gradientUnits="userSpaceOnUse">
<stop stop-color="#C4FFA9"/>
<stop offset="0.99" stop-color="#7DD165"/>
</linearGradient>
<linearGradient id="paint53_linear_1222_19033" x1="48.4914" y1="229.162" x2="48.4914" y2="142.206" gradientUnits="userSpaceOnUse">
<stop stop-color="#85C369"/>
<stop offset="0.99" stop-color="#4B9535"/>
</linearGradient>
<linearGradient id="paint54_linear_1222_19033" x1="114.585" y1="119.339" x2="44.7199" y2="235.945" gradientUnits="userSpaceOnUse">
<stop stop-color="#85C369" stop-opacity="0"/>
<stop offset="0.99" stop-color="#4B9535"/>
</linearGradient>
<linearGradient id="paint55_linear_1222_19033" x1="108.404" y1="203.134" x2="219.548" y2="203.134" gradientUnits="userSpaceOnUse">
<stop stop-color="#C4FFA9"/>
<stop offset="0.99" stop-color="#7DD165"/>
</linearGradient>
<linearGradient id="paint56_linear_1222_19033" x1="154.246" y1="109.188" x2="154.246" y2="72.7039" gradientUnits="userSpaceOnUse">
<stop stop-color="#C4FFA9"/>
<stop offset="0.99" stop-color="#7DD165"/>
</linearGradient>
<linearGradient id="paint57_linear_1222_19033" x1="83.7623" y1="109.188" x2="83.7623" y2="72.7039" gradientUnits="userSpaceOnUse">
<stop stop-color="#C4FFA9"/>
<stop offset="0.99" stop-color="#7DD165"/>
</linearGradient>
<linearGradient id="paint58_linear_1222_19033" x1="44.0929" y1="228.155" x2="76.1866" y2="199.899" gradientUnits="userSpaceOnUse">
<stop stop-color="#C4FFA9"/>
<stop offset="0.99" stop-color="#7DD165"/>
</linearGradient>
<linearGradient id="paint59_linear_1222_19033" x1="119.116" y1="151.053" x2="119.116" y2="5.19916" gradientUnits="userSpaceOnUse">
<stop stop-color="#C4FFA9"/>
<stop offset="0.99" stop-color="#7DD165"/>
</linearGradient>
<linearGradient id="paint60_linear_1222_19033" x1="112.613" y1="117.152" x2="139.656" y2="-16.1911" gradientUnits="userSpaceOnUse">
<stop stop-color="#DAFFC2"/>
<stop offset="0.99" stop-color="#7DD165"/>
</linearGradient>
<linearGradient id="paint61_linear_1222_19033" x1="172.979" y1="294.348" x2="175.067" y2="262.246" gradientUnits="userSpaceOnUse">
<stop stop-color="#C4FFA9"/>
<stop offset="0.99" stop-color="#7DD165"/>
</linearGradient>
<linearGradient id="paint62_linear_1222_19033" x1="70.1622" y1="287.638" x2="72.2583" y2="255.545" gradientUnits="userSpaceOnUse">
<stop stop-color="#C4FFA9"/>
<stop offset="0.99" stop-color="#7DD165"/>
</linearGradient>
<linearGradient id="paint63_linear_1222_19033" x1="193.973" y1="229.162" x2="193.973" y2="142.206" gradientUnits="userSpaceOnUse">
<stop stop-color="#85C369"/>
<stop offset="0.99" stop-color="#4B9535"/>
</linearGradient>
<linearGradient id="paint64_linear_1222_19033" x1="131.973" y1="120.329" x2="201.838" y2="236.927" gradientUnits="userSpaceOnUse">
<stop stop-color="#85C369" stop-opacity="0"/>
<stop offset="0.99" stop-color="#4B9535"/>
</linearGradient>
<linearGradient id="paint65_linear_1222_19033" x1="117.779" y1="88.5818" x2="94.0365" y2="73.3726" gradientUnits="userSpaceOnUse">
<stop stop-color="#2D396C"/>
<stop offset="0.99" stop-color="#0E153E"/>
</linearGradient>
<linearGradient id="paint66_linear_1222_19033" x1="150.169" y1="88.5818" x2="126.419" y2="73.3725" gradientUnits="userSpaceOnUse">
<stop stop-color="#2D396C"/>
<stop offset="0.99" stop-color="#0E153E"/>
</linearGradient>
<linearGradient id="paint67_linear_1222_19033" x1="114.461" y1="136.289" x2="116.178" y2="120.287" gradientUnits="userSpaceOnUse">
<stop stop-color="#C4FFA9"/>
<stop offset="0.99" stop-color="#7DD165"/>
</linearGradient>
<linearGradient id="paint68_linear_1222_19033" x1="74.8825" y1="313.716" x2="83.4898" y2="233.387" gradientUnits="userSpaceOnUse">
<stop stop-color="#C4FFA9"/>
<stop offset="0.99" stop-color="#7DD165"/>
</linearGradient>
<linearGradient id="paint69_linear_1222_19033" x1="163.761" y1="313.716" x2="155.154" y2="233.387" gradientUnits="userSpaceOnUse">
<stop stop-color="#C4FFA9"/>
<stop offset="0.99" stop-color="#7DD165"/>
</linearGradient>
<linearGradient id="paint70_linear_1222_19033" x1="100.061" y1="183.064" x2="164.38" y2="389.432" gradientUnits="userSpaceOnUse">
<stop stop-color="#85C369" stop-opacity="0"/>
<stop offset="0.99" stop-color="#4B9535"/>
</linearGradient>
<linearGradient id="paint71_linear_1222_19033" x1="23.4618" y1="213.499" x2="77.0035" y2="213.499" gradientUnits="userSpaceOnUse">
<stop stop-color="#DAFFC2"/>
<stop offset="0.99" stop-color="#7DD165"/>
</linearGradient>
<linearGradient id="paint72_linear_1222_19033" x1="229.071" y1="222.304" x2="37.0452" y2="305.125" gradientUnits="userSpaceOnUse">
<stop stop-color="#85C369" stop-opacity="0"/>
<stop offset="0.99" stop-color="#4B9535"/>
</linearGradient>
<clipPath id="clip0_1222_19033">
<rect width="245.097" height="340" fill="white"/>
</clipPath>
</defs>
</svg>
