<svg xmlns="http://www.w3.org/2000/svg" width="180" height="164" fill="none" viewBox="0 0 180 164">
  <defs/>
  <g clip-path="url(#clip0)">
    <rect width="100" height="100" x="40" y="15" fill="#DAE0EE" rx="20"/>
    <circle cx="40" cy="65" r="40" fill="#AAB7DC" fill-opacity=".45"/>
    <path fill="#EDF1FE" d="M167.23 66.08h-91.2v56.47h91.2V66.08z"/>
    <path fill="#D39BF1" d="M175.93 70.56H67.34a2.36 2.36 0 01-2.36-2.36V43.07c0-1.3 1.06-2.36 2.36-2.36h108.59c1.3 0 2.36 1.06 2.36 2.36V68.2c0 1.3-1.06 2.36-2.36 2.36z"/>
    <path fill="#EDF1FE" d="M164.6 61.35a5.41 5.41 0 100-10.83 5.41 5.41 0 000 10.83zM146.2 61.35a5.41 5.41 0 100-10.83 5.41 5.41 0 000 10.83z"/>
    <path fill="#FADF6B" d="M175.93 108.92H67.34a2.36 2.36 0 01-2.36-2.36V81.44c0-1.3 1.06-2.36 2.36-2.36h108.59c1.3 0 2.36 1.05 2.36 2.36v25.12c0 1.3-1.06 2.36-2.36 2.36z"/>
    <path fill="#EDF1FE" d="M164.6 99.71a5.41 5.41 0 100-10.83 5.41 5.41 0 000 10.83zM146.2 99.71a5.41 5.41 0 100-10.83 5.41 5.41 0 000 10.83z"/>
    <path fill="#8BD87B" d="M175.93 147.29H67.34a2.36 2.36 0 01-2.36-2.36V119.8c0-1.3 1.06-2.36 2.36-2.36h108.59c1.3 0 2.36 1.06 2.36 2.36v25.13c0 1.3-1.06 2.36-2.36 2.36z"/>
    <path fill="#EDF1FE" d="M164.6 138.08a5.41 5.41 0 100-10.83 5.41 5.41 0 000 10.83zM146.2 138.08a5.41 5.41 0 100-10.83 5.41 5.41 0 000 10.83z"/>
    <path fill="#1F3474" d="M175.93 72.27A4.08 4.08 0 00180 68.2V43.07a4.08 4.08 0 00-4.07-4.07H164.5a1.7 1.7 0 100 3.42h11.43c.36 0 .65.3.65.65V68.2c0 .36-.3.65-.65.65H67.33a.65.65 0 01-.64-.65V43.07c0-.36.29-.65.65-.65h90.4a1.7 1.7 0 100-3.42h-90.4a4.08 4.08 0 00-4.07 4.07V68.2a4.08 4.08 0 004.07 4.07h6.99v5.1h-7a4.08 4.08 0 00-4.06 4.07v25.12a4.07 4.07 0 004.07 4.07h6.99v5.1h-7a4.08 4.08 0 00-4.06 4.07v25.13a4.08 4.08 0 004.07 4.07h48.06a1.71 1.71 0 100-3.42H67.34a.65.65 0 01-.65-.65V119.8c0-.36.29-.65.65-.65h108.59c.36 0 .65.3.65.65v25.13c0 .36-.3.65-.65.65h-53.16a1.71 1.71 0 000 3.42h53.16a4.08 4.08 0 004.07-4.07V119.8a4.07 4.07 0 00-4.07-4.07h-6.99v-5.1h6.99a4.07 4.07 0 004.07-4.07V81.44a4.08 4.08 0 00-4.07-4.07h-6.99v-5.1h6.99zm-10.4 43.46H77.74v-5.1h87.77v5.1zm0-38.36H91.15a1.71 1.71 0 100 3.42h84.77c.36 0 .65.29.65.65v25.12c0 .36-.3.66-.65.66H67.33a.65.65 0 01-.64-.66V81.44c0-.36.29-.65.65-.65h16.98a1.71 1.71 0 100-3.42h-6.57v-5.1h87.77v5.1z"/>
    <path fill="#1F3474" d="M164.6 63.06a7.13 7.13 0 10-.02-14.27 7.13 7.13 0 00.02 14.27zm0-10.83a3.7 3.7 0 11-.01 7.41 3.7 3.7 0 010-7.41zM139.08 55.93a7.13 7.13 0 1014.26-.01 7.13 7.13 0 00-14.26.01zm10.83 0a3.7 3.7 0 11-7.42 0 3.7 3.7 0 017.42 0zM74.87 54.22a1.71 1.71 0 100 3.42h58.1a1.7 1.7 0 100-3.42h-58.1zM164.6 101.42a7.13 7.13 0 10-.02-14.26 7.13 7.13 0 00.02 14.26zm0-10.83a3.7 3.7 0 11-.01 7.42 3.7 3.7 0 010-7.42zM146.2 101.42a7.13 7.13 0 10-.01-14.26 7.13 7.13 0 00.02 14.26zm0-10.83a3.7 3.7 0 110 7.42 3.7 3.7 0 010-7.42zM73.16 94.3c0 .94.77 1.7 1.71 1.7h58.1a1.7 1.7 0 100-3.41h-58.1c-.94 0-1.7.76-1.7 1.7zM171.72 132.66a7.13 7.13 0 10-14.26.02 7.13 7.13 0 0014.26-.02zm-10.83 0a3.7 3.7 0 117.42.01 3.7 3.7 0 01-7.42 0zM153.33 132.66a7.13 7.13 0 10-14.26.02 7.13 7.13 0 0014.26-.02zm-10.83 0a3.7 3.7 0 117.42.01 3.7 3.7 0 01-7.42 0zM134.67 132.66c0-.94-.76-1.7-1.7-1.7h-58.1a1.71 1.71 0 000 3.41h58.1a1.7 1.7 0 001.7-1.7zM79.9 98h-5.03a1.71 1.71 0 100 3.42h5.04a1.7 1.7 0 100-3.42z"/>
  </g>
  <defs>
    <clipPath id="clip0">
      <path fill="#fff" d="M0 0h180v164H0z"/>
    </clipPath>
  </defs>
</svg>
