<svg xmlns="http://www.w3.org/2000/svg" width="164" height="164" fill="none" viewBox="0 0 164 164">
  <defs/>
  <rect width="100" height="100" x="36" y="20" fill="#DAE0EE" rx="20"/>
  <circle cx="122" cy="104" r="40" fill="#AAB7DC" fill-opacity=".45"/>
  <path fill="#EEF2FE" d="M4.31 39.31h113.9v95.38H4.3V39.3z"/>
  <path fill="#6FDB6F" d="M41.35 39.31l6.66 13.31a9.42 9.42 0 008.43 5.21h61.76V39.31H41.35z"/>
  <path fill="#FFDF52" d="M49 84c0-.26-.02-.5-.03-.76l7.23-4.3-5.46-10.21L43.59 73a13.83 13.83 0 00-2.7-1.63v-9.14H29.3v9.14c-.84.38-1.64.85-2.38 1.4l-7.7-4.31L13.5 78.5l7.77 4.36a13.82 13.82 0 00-.01 2.1l-7.71 4.09L19 99.25l7.8-4.13a13.9 13.9 0 002.51 1.5v9.36H40.9v-9.36c.77-.36 1.51-.79 2.2-1.27l7.42 4.64 5.74-10.05-7.33-4.6c.05-.44.07-.9.07-1.35zM35 88.5a4.63 4.63 0 110-9.25 4.63 4.63 0 010 9.25z"/>
  <path fill="#D39CF1" d="M81.4 108.3a6.94 6.94 0 11-13.89 0 6.94 6.94 0 0113.89 0zM76.77 82.83a4.63 4.63 0 11-9.26 0 4.63 4.63 0 019.26 0z"/>
  <path fill="#DDD" d="M108.94 87.46a9.26 9.26 0 11-18.52 0 9.26 9.26 0 0118.52 0z"/>
  <path fill="#1F3474" d="M118.2 37H4.31A2.31 2.31 0 002 39.31v95.38A2.31 2.31 0 004.31 137h113.9a2.32 2.32 0 002.3-2.31V39.3a2.32 2.32 0 00-2.3-2.31zm-2.31 4.63v13.89H56.43c-2.7 0-5.14-1.5-6.35-3.93l-4.98-9.96h70.79zM6.63 132.37V41.63h33.3l2.3 4.63h-19.4a2.32 2.32 0 000 4.63h21.72l1.39 2.77c2 4 6.02 6.49 10.5 6.49h59.45v72.22H6.63z"/>
  <path fill="#1F3474" d="M90.43 50.89a2.32 2.32 0 100-4.63 2.32 2.32 0 000 4.63zM99.68 50.89a2.32 2.32 0 100-4.63 2.32 2.32 0 000 4.63zM108.94 50.89a2.32 2.32 0 100-4.63 2.32 2.32 0 000 4.63zM13.57 50.89a2.32 2.32 0 100-4.64 2.32 2.32 0 000 4.64zM35.01 76.93a6.95 6.95 0 10.02 13.9 6.95 6.95 0 00-.02-13.9zm0 9.26a2.32 2.32 0 110-4.63 2.32 2.32 0 010 4.63zM26.54 123.11h-13.9a2.32 2.32 0 000 4.63h13.9a2.32 2.32 0 000-4.63zM35.8 123.11a2.32 2.32 0 100 4.64 2.32 2.32 0 000-4.64zM54.31 123.11h-9.26a2.32 2.32 0 000 4.63h9.26a2.32 2.32 0 000-4.63zM49.69 118.48a2.31 2.31 0 100-4.63H13.57a2.31 2.31 0 100 4.63H49.7zM108.94 123.11h-4.63a2.31 2.31 0 100 4.63h4.63a2.32 2.32 0 000-4.63zM95.06 123.11h-4.63a2.31 2.31 0 100 4.63h4.63a2.32 2.32 0 000-4.63zM108.94 113.85H93.82a2.31 2.31 0 100 4.63h15.13a2.31 2.31 0 100-4.63z"/>
  <path fill="#1F3474" d="M99.69 76.81c-2.19 0-4.23.61-5.97 1.66l-14.64 5.15a6.95 6.95 0 00-13.77-1.12l-7.38-4.33-5.15-9.6a2.36 2.36 0 00-3.23-.9l-5.87 3.5c-.16-.1-.32-.2-.48-.28v-7.73a2.31 2.31 0 00-2.31-2.32H29.3A2.32 2.32 0 0027 63.16v7.73l-.17.1-6.46-3.63a2.32 2.32 0 00-3.14.87l-5.75 10.05a2.34 2.34 0 00.88 3.17l6 3.35-5.9 3.13a2.36 2.36 0 00-.96 3.14l5.46 10.2c.6 1.13 2 1.55 3.13.95l6.56-3.48.35.2v7.97a2.31 2.31 0 002.31 2.31H40.9a2.31 2.31 0 002.31-2.31v-7.84l6.08 3.8 19.08 13.31c1.83 1.28 3.81 2.3 6.1 2.3a9.23 9.23 0 006.65-2.83l24.1-17.1c3.54-2.5 6.05-5.6 6.05-10.16 0-6.38-5.2-11.58-11.57-11.58zM74.45 99.96a9.27 9.27 0 00-9.21 8.37l-11.64-8.17 4.66-8.14a2.31 2.31 0 00-.78-3.11l-5.82-3.65 4.56-2.72s12.5 7.3 12.68 7.36c2.4.78 4.55 1.19 6.84-.2l12.82-4.5a11.6 11.6 0 007.49 14.18l-12.4 8.79a9.27 9.27 0 00-9.2-8.2zm32.18-11.57a6.95 6.95 0 11-13.9-.02 6.95 6.95 0 0113.9.02zm-34.5-6.95a2.32 2.32 0 110 4.64 2.32 2.32 0 010-4.64zM41.77 94.38c-.58.4-1.2.76-1.84 1.06a2.32 2.32 0 00-1.35 2.1v7.05h-6.94v-7.05c0-.9-.53-1.72-1.35-2.1-.75-.35-1.46-.76-2.1-1.25a2.32 2.32 0 00-2.47-.19l-5.76 3.05-3.27-6.12 5.66-3c.8-.43 1.28-1.3 1.22-2.2-.02-.32-.02-1.41.01-1.76.07-.9-.39-1.77-1.18-2.2l-5.73-3.22 3.45-6.03 5.69 3.19c.79.44 1.76.38 2.5-.15.61-.45 1.28-.84 1.98-1.16a2.31 2.31 0 001.35-2.1v-6.83h6.94v6.82c0 .9.53 1.73 1.35 2.1.8.37 1.56.83 2.25 1.37.75.58 1.79.64 2.6.15l5.07-3.02L53.12 79l-5.34 3.18a2.31 2.31 0 00-1.12 2.11c.01.22 0 1.38-.04 1.76-.09.87.33 1.72 1.07 2.19l5.45 3.41-3.45 6.02-5.37-3.36c-.79-.5-1.8-.47-2.56.07zm28.06 14.84a4.63 4.63 0 119.27.01 4.63 4.63 0 01-9.27 0z"/>
  <path fill="#1F3474" d="M102 87.46a2.31 2.31 0 11-4.63 0 2.31 2.31 0 014.63 0z"/>
</svg>
