<svg xmlns="http://www.w3.org/2000/svg" width="190" height="164" fill="none" viewBox="0 0 190 164">
  <defs/>
  <rect width="100" height="100" x="50" y="45.65" fill="#DAE0EE" rx="20"/>
  <circle cx="150" cy="90.65" r="40" fill="#AAB7DC" fill-opacity=".45"/>
  <path fill="#64D876" d="M20.9 104.31c0-2.81-2.31-5.1-5.17-5.1a5.14 5.14 0 00-5.18 5.1c0 2.81 2.32 5.1 5.18 5.1a5.14 5.14 0 005.18-5.1z"/>
  <path fill="#5DCDEB" d="M20.9 33.69c0-2.81-2.31-5.1-5.17-5.1a5.14 5.14 0 00-5.18 5.1c0 2.81 2.32 5.1 5.18 5.1a5.14 5.14 0 005.18-5.1z"/>
  <path fill="#FAE061" d="M119.45 104.31c0-2.81-2.32-5.1-5.18-5.1a5.14 5.14 0 00-5.18 5.1c0 2.81 2.32 5.1 5.18 5.1a5.14 5.14 0 005.18-5.1z"/>
  <path fill="#5DCDEB" d="M119.45 33.69c0-2.81-2.32-5.1-5.18-5.1a5.14 5.14 0 00-5.18 5.1c0 2.81 2.32 5.1 5.18 5.1a5.14 5.14 0 005.18-5.1z"/>
  <path fill="#1F3474" d="M38.67 20.23c0 1.03.85 1.87 1.9 1.87h80.4c2.88 0 5.22 2.3 5.22 5.13v83.54a5.18 5.18 0 01-5.22 5.13H95.6c-1.05 0-1.9.84-1.9 1.88 0 1.03.85 1.87 1.9 1.87h25.37a8.97 8.97 0 009.03-8.88V27.23c0-4.9-4.05-8.88-9.03-8.88h-80.4c-1.05 0-1.9.84-1.9 1.88zM0 27.23v83.54c0 4.9 4.05 8.88 9.03 8.88h76.4c1.06 0 1.91-.84 1.91-1.88 0-1.03-.85-1.87-1.9-1.87H9.03a5.18 5.18 0 01-5.22-5.13V27.23a5.18 5.18 0 015.22-5.13H30.4c1.05 0 1.9-.84 1.9-1.88 0-1.03-.85-1.87-1.9-1.87H9.03A8.97 8.97 0 000 27.23z"/>
  <path fill="#EEF2FE" d="M30.24 40.66h68.9v56.69h-68.9z"/>
  <path fill="#1F3474" d="M20.46 90.72c0 1.04.85 1.88 1.9 1.88h5.58V95a4.98 4.98 0 005 4.93h64.11a4.98 4.98 0 005.01-4.93V92.6h5.58c1.05 0 1.9-.84 1.9-1.88 0-1.03-.85-1.87-1.9-1.87h-5.58v-7.11h5.58c1.05 0 1.9-.84 1.9-1.88 0-1.03-.85-1.87-1.9-1.87h-5.58v-7.12h5.58c1.05 0 1.9-.83 1.9-1.87 0-1.03-.85-1.87-1.9-1.87h-5.58V60h5.58c1.05 0 1.9-.84 1.9-1.87 0-1.04-.85-1.88-1.9-1.88h-5.58v-7.11h5.58c1.05 0 1.9-.84 1.9-1.87 0-1.04-.85-1.88-1.9-1.88h-5.58V43a4.98 4.98 0 00-5-4.93H32.94a4.98 4.98 0 00-5.01 4.93v2.41h-5.58c-1.05 0-1.9.84-1.9 1.88 0 1.03.85 1.87 1.9 1.87h5.58v7.11h-5.58c-1.05 0-1.9.84-1.9 1.88 0 1.03.85 1.87 1.9 1.87h5.58v7.12h-5.58c-1.05 0-1.9.84-1.9 1.87 0 1.04.85 1.87 1.9 1.87h5.58V78h-5.58c-1.05 0-1.9.84-1.9 1.87 0 1.04.85 1.88 1.9 1.88h5.58v7.11h-5.58c-1.05 0-1.9.84-1.9 1.88zM31.75 43c0-.65.54-1.18 1.2-1.18h64.1c.67 0 1.2.53 1.2 1.18V95a1.2 1.2 0 01-1.2 1.19h-64.1a1.2 1.2 0 01-1.2-1.19V43zM8.65 104.31a7.03 7.03 0 007.08 6.97c3.9 0 7.08-3.13 7.08-6.97a7.03 7.03 0 00-7.08-6.97 7.03 7.03 0 00-7.08 6.97zm10.35 0a3.25 3.25 0 01-3.27 3.22 3.25 3.25 0 01-3.27-3.22 3.25 3.25 0 013.27-3.22c1.8 0 3.27 1.45 3.27 3.22zM8.65 33.69a7.03 7.03 0 007.08 6.97c3.9 0 7.08-3.13 7.08-6.97a7.03 7.03 0 00-7.08-6.97 7.03 7.03 0 00-7.08 6.97zm10.35 0a3.25 3.25 0 01-3.27 3.22 3.25 3.25 0 01-3.27-3.22 3.25 3.25 0 013.27-3.22c1.8 0 3.27 1.44 3.27 3.22zM121.35 104.31a7.03 7.03 0 00-7.08-6.97 7.03 7.03 0 00-7.08 6.97 7.03 7.03 0 007.08 6.97c3.9 0 7.08-3.13 7.08-6.97zm-10.35 0a3.25 3.25 0 013.27-3.22c1.8 0 3.27 1.45 3.27 3.22a3.25 3.25 0 01-3.27 3.22 3.25 3.25 0 01-3.27-3.22zM107.19 33.69a7.03 7.03 0 007.08 6.97c3.9 0 7.08-3.13 7.08-6.97a7.03 7.03 0 00-7.08-6.97 7.03 7.03 0 00-7.08 6.97zm10.35 0a3.25 3.25 0 01-3.27 3.22 3.25 3.25 0 01-3.27-3.22 3.25 3.25 0 013.27-3.22c1.8 0 3.27 1.44 3.27 3.22z"/>
  <path fill="#0F3176" d="M46.55 77.44h-3.47v-16.8h3.47v16.8zM52.62 64.95l.1 1.45a4.36 4.36 0 013.59-1.68c1.32 0 2.3.4 2.95 1.17.65.78.98 1.94 1 3.48v8.07h-3.34v-7.98c0-.71-.15-1.22-.46-1.54-.3-.32-.82-.48-1.54-.48-.93 0-1.64.4-2.1 1.2v8.8h-3.34V64.95h3.14zM66.79 61.88v3.07h2.13v2.45H66.8v6.23c0 .46.09.8.26 1 .18.2.52.3 1.02.3.37 0 .7-.03.98-.08v2.52c-.65.2-1.33.3-2.02.3-2.34 0-3.53-1.18-3.58-3.54V67.4h-1.82v-2.45h1.82v-3.07h3.34zM76.53 77.67A6.15 6.15 0 0172.05 76a6 6 0 01-1.72-4.5v-.32c0-1.25.24-2.37.73-3.35a5.3 5.3 0 012.05-2.29c.9-.54 1.91-.8 3.05-.8 1.7 0 3.05.53 4.03 1.6.98 1.09 1.48 2.61 1.48 4.6v1.35H73.7c.11.82.43 1.47.97 1.96.55.5 1.24.74 2.07.74a3.6 3.6 0 003.01-1.4l1.64 1.84c-.5.71-1.18 1.26-2.03 1.66-.86.4-1.8.6-2.84.6zm-.38-10.25c-.66 0-1.2.23-1.62.67-.4.45-.67 1.09-.78 1.92h4.64v-.27a2.44 2.44 0 00-.6-1.7c-.39-.41-.93-.62-1.64-.62zM87.09 77.44h-3.35V59.71h3.35v17.73z"/>
</svg>
