<svg xmlns="http://www.w3.org/2000/svg" width="164" height="164" fill="none" viewBox="0 0 164 164">
  <defs/>
  <rect width="100" height="100" x="44" y="16" fill="#DAE0EE" rx="20"/>
  <circle cx="40" cy="64" r="40" fill="#AAB7DC" fill-opacity=".45"/>
  <path fill="#EEF2FE" d="M141.62 49.92H22.39v96.16h119.23V49.92z"/>
  <path fill="#6FDB6F" d="M141.62 49.92H22.39v15.39h119.23V49.92z"/>
  <path fill="#1F3474" d="M141.62 48H22.39c-1.07 0-1.93.86-1.93 1.92v96.16c0 1.06.86 1.92 1.93 1.92h119.23c1.06 0 1.92-.86 1.92-1.92V49.92c0-1.06-.86-1.92-1.92-1.92zM24.3 51.85h115.38v11.53H24.31V51.85zm0 92.3V67.23h115.38v76.92H24.31z"/>
  <path fill="#1F3474" d="M35.85 55.7H32v3.84h3.85v-3.85zM43.54 55.7h-3.85v3.84h3.85v-3.85zM51.23 55.7H47.4v3.84h3.84v-3.85zM132 55.7h-11.54v3.84H132v-3.85z"/>
  <path fill="#FADF6B" d="M35.85 115.3a1.92 1.92 0 01-1.93-1.91V78.77c0-1.06.87-1.92 1.93-1.92h92.3c1.07 0 1.93.86 1.93 1.92v34.62c0 1.06-.86 1.92-1.93 1.92h-92.3z"/>
  <path fill="#1F3474" d="M128.15 117.23h-11.54v-3.84h11.54V78.77h-92.3v34.62h53.84v3.84H35.85A3.85 3.85 0 0132 113.4V78.77a3.85 3.85 0 013.85-3.85h92.3a3.85 3.85 0 013.85 3.85v34.62a3.85 3.85 0 01-3.85 3.84zM35.85 121.08H32v3.84h3.85v-3.84zM35.85 128.77H32v3.84h3.85v-3.84zM70.46 121.08H39.7v3.84h30.77v-3.84zM43.54 128.77h-3.85v3.84h3.85v-3.84zM85.85 128.77H47.39v3.84h38.46v-3.84zM78.15 121.08h-3.84v3.84h3.84v-3.84zM85.85 121.08H82v3.84h3.85v-3.84z"/>
  <path fill="#1F3474" d="M112.77 82.62h-11.54v3.84h11.54v-3.84zM124.3 82.62h-7.68v3.84h7.69v-3.84z"/>
  <path fill="#D39CF1" d="M103.16 105.7L91.62 123v1.92h5.77v9.62H108.92v-9.62h5.77V123l-11.53-17.3z"/>
  <path fill="#1F3474" d="M108.92 136.44H97.4a1.92 1.92 0 01-1.93-1.93v-7.69h-3.84a1.92 1.92 0 01-1.93-1.92v-1.93c0-.38.12-.75.33-1.06l11.54-17.31c.7-1.07 2.48-1.07 3.2 0l11.53 17.3c.21.32.33.7.33 1.07v1.93c0 1.06-.86 1.92-1.93 1.92h-3.84v7.7c0 1.05-.86 1.91-1.93 1.91zm-9.61-3.85h7.7v-7.7c0-1.06.85-1.92 1.91-1.92h3.46l-9.22-13.84-9.23 13.84h3.46c1.06 0 1.92.86 1.92 1.93v7.69z"/>
</svg>
