<svg width="500" height="500" fill="none" xmlns="http://www.w3.org/2000/svg"><path d="M325.905 51.552c-25.57 5.96-52.08 15.634-77.356 8.566-11.061-3.093-20.942-9.211-30.955-14.773-22.992-12.772-47.877-23.055-74.115-25.966-26.238-2.911-54.043 2.12-75.29 17.544-19.247 13.973-31.845 35.44-38.772 57.966-5.06 16.458-7.355 33.947-4.727 50.945 2.598 16.813 9.863 32.531 14.735 48.847 7.388 24.74 9.235 51.064 5.373 76.567-4.272 28.202-15.402 55.381-16.362 83.878-1.398 41.502 24.566 85.826 65.76 94.851 33.598 7.362 68.322-9.122 102.561-5.642 22.933 2.33 43.823 13.398 65.384 21.431 37.836 14.099 80.214 18.937 118.979 7.538 38.764-11.398 73.09-40.573 84.598-78.735 17.094-56.685-28.219-109.961-20.725-168.628 2.893-22.65 23.002-51.179 28.034-73.465 7.901-34.99 3.432-70.467-29.412-89.346-35.086-20.17-79.091-20.581-117.71-11.578Z" fill="#E5E7EB" fill-opacity=".25"/><path d="m384.495 439.327-248.598 40.726c-5.303.868-10.306-2.727-11.174-8.03L63.432 97.893c-2.083-12.712 4.435-26.688 21.142-29.424l235.485-22.475c5.303-.87 10.306 2.725 11.175 8.028l74.403 355.879c1.734 13.726-4.549 26.707-21.142 29.426Z" fill="#182757"/><path d="m185.356 443.196-28.94 33.483 3.897-.637 25.576-29.593-.533-3.253ZM262.025 430.635l-28.939 33.484 3.896-.638 25.576-29.592-.533-3.254ZM271.302 429.115l-28.94 33.484 3.897-.638 25.576-29.593-.533-3.253ZM371.819 412.649l-28.94 33.484 3.897-.638 25.576-29.593-.533-3.253ZM381.096 411.129l-28.939 33.483 3.896-.637 25.576-29.593-.533-3.253ZM103.834 124.273l-30.332 35.095-.533-3.254 30.332-35.095.533 3.254ZM131.885 295.501l-30.332 35.095-.533-3.254 30.332-35.095.533 3.254ZM138.221 334.179l-30.332 35.095-.533-3.253 30.332-35.095.533 3.253ZM116.151 199.457l-30.332 35.094-.533-3.253 30.332-35.095.533 3.254ZM117.646 208.583l-30.332 35.095-.533-3.254 30.332-35.095.533 3.254Z" fill="#3F6AAA"/><path d="M397.608 421.076 149.01 461.802c-5.303.869-10.306-2.726-11.175-8.029l-61.29-374.13c-.87-5.303 2.726-10.306 8.029-11.174L333.17 27.743c5.304-.869 10.307 2.727 11.175 8.03L405.637 409.9c.868 5.303-2.726 10.307-8.029 11.175Z" fill="#3F6AAA"/><path d="m396.034 411.475-248.598 40.726-61.29-374.13 248.598-40.726 61.29 374.13Z" stroke="#FCFFFF" stroke-width="3.892" stroke-miterlimit="10"/><path d="m84.573 68.469 18.294-2.997 4.57 27.896-27.896 4.57-2.997-18.295c-.869-5.302 2.726-10.305 8.03-11.174Z" fill="#182757"/><path d="m84.573 68.469 18.294-2.997-23.326 32.466-2.997-18.295c-.869-5.302 2.726-10.305 8.03-11.174ZM102.311 85.302a4.348 4.348 0 1 1-8.584 1.408 4.348 4.348 0 0 1 8.584-1.407Z" fill="#84A8FF"/><path d="m333.171 27.743-18.294 2.997 4.57 27.896 27.896-4.57-2.997-18.294c-.869-5.303-5.872-8.898-11.175-8.029Z" fill="#182757"/><path d="m333.171 27.743-18.294 2.997 32.466 23.326-2.997-18.294c-.869-5.303-5.872-8.898-11.175-8.029ZM321.732 49.357a4.349 4.349 0 1 0 8.584-1.406 4.349 4.349 0 0 0-8.584 1.406Z" fill="#84A8FF"/><path d="m149.009 461.802 18.294-2.997-4.57-27.896-27.896 4.57 2.997 18.295c.869 5.302 5.872 8.897 11.175 8.028Z" fill="#182757"/><path d="m149.009 461.802 18.294-2.997-32.466-23.326 2.997 18.295c.869 5.302 5.872 8.897 11.175 8.028ZM160.448 440.189a4.349 4.349 0 1 0-8.584 1.406 4.349 4.349 0 0 0 8.584-1.406Z" fill="#84A8FF"/><path d="m397.607 421.076-18.294 2.997-4.57-27.895 27.896-4.571 2.997 18.294c.868 5.303-2.726 10.307-8.029 11.175Z" fill="#182757"/><path d="m397.607 421.076-18.294 2.997 23.326-32.466 2.997 18.294c.868 5.303-2.726 10.307-8.029 11.175ZM379.87 404.242a4.349 4.349 0 1 1 8.583-1.407 4.349 4.349 0 0 1-8.583 1.407Z" fill="#84A8FF"/><path d="M303.601 66.318c-.842 0-1.693.069-2.528.206l-53.191 8.714c-8.471 1.388-14.234 9.408-12.846 17.879l9.75 59.517c1.092 6.668 4.716 12.512 10.204 16.455l77.708 55.832 11.445 8.223-2.278-13.908L318.952 79.37a15.505 15.505 0 0 0-15.351-13.052Zm0 5.838c4.681 0 8.809 3.388 9.59 8.158l22.913 139.865-77.708-55.831a19.46 19.46 0 0 1-7.849-12.657l-9.75-59.518c-.869-5.302 2.726-10.305 8.029-11.174l53.191-8.714a9.816 9.816 0 0 1 1.584-.13" fill="#3F6AAA" opacity=".6"/><path d="M203.669 82.819a25.61 25.61 0 0 0-4.113.335L136.97 93.407c-6.669 1.093-12.512 4.717-16.455 10.204-3.943 5.488-5.513 12.183-4.42 18.851l40.537 247.449c1.093 6.669 4.717 12.512 10.204 16.455l35.687 25.64a25.15 25.15 0 0 0 14.76 4.752c1.366 0 2.742-.111 4.09-.333L311 401.743c6.669-1.093 12.512-4.716 16.455-10.204l27-37.579c3.943-5.489 5.513-12.183 4.42-18.851l-12.848-78.43c-1.092-6.668-4.716-12.511-10.204-16.454l-91.645-65.845a13.53 13.53 0 0 1-5.494-8.86l-10.074-61.491c-2.013-12.29-12.503-21.21-24.941-21.21Zm0 5.838c9.362 0 17.617 6.776 19.18 16.316l10.074 61.491a19.458 19.458 0 0 0 7.849 12.657l91.645 65.845a19.46 19.46 0 0 1 7.849 12.658l12.848 78.428a19.454 19.454 0 0 1-3.4 14.501l-27 37.579a19.461 19.461 0 0 1-12.658 7.85l-89.627 14.683a19.456 19.456 0 0 1-14.5-3.401l-35.687-25.639a19.466 19.466 0 0 1-7.849-12.658l-40.537-247.449c-1.737-10.606 5.452-20.612 16.058-22.35L200.5 88.917a19.534 19.534 0 0 1 3.169-.26" fill="#3F6AAA" opacity=".6"/><path d="M336.104 220.179 313.191 80.314c-.869-5.303-5.872-8.898-11.174-8.029l-53.191 8.714c-5.304.868-8.898 5.871-8.029 11.174l9.75 59.517a19.458 19.458 0 0 0 7.849 12.657l77.708 55.832Z" fill="#FCFFFF" opacity=".6"/><path d="m332.417 244.966-91.645-65.845a19.465 19.465 0 0 1-7.85-12.658l-10.073-61.49c-1.737-10.606-11.744-17.795-22.349-16.058l-62.586 10.253c-10.606 1.737-17.796 11.744-16.058 22.35l40.537 247.449a19.464 19.464 0 0 0 7.849 12.657l35.687 25.64a19.457 19.457 0 0 0 14.5 3.4l89.627-14.682a19.465 19.465 0 0 0 12.658-7.85l27-37.579a19.454 19.454 0 0 0 3.4-14.501l-12.848-78.429a19.458 19.458 0 0 0-7.849-12.657Z" fill="#FCFFFF" opacity=".6"/><path d="m326.133 247.418-89.902-64.238a17.311 17.311 0 0 1-6.982-11.26l-10.211-62.331c-1.546-9.434-10.447-15.829-19.881-14.284l-55.671 9.12c-9.435 1.546-15.83 10.447-14.284 19.881l39.669 242.148a17.314 17.314 0 0 0 6.982 11.26l31.744 22.807a17.314 17.314 0 0 0 12.899 3.024l86.983-14.249a17.312 17.312 0 0 0 11.259-6.982l24.018-33.428a17.315 17.315 0 0 0 3.024-12.899l-12.665-77.309a17.311 17.311 0 0 0-6.982-11.26Z" fill="#84A8FF" opacity=".6"/><path d="m329.374 207.941-20-122.085a8.492 8.492 0 0 0-9.754-7.008l-46.43 7.606a8.492 8.492 0 0 0-7.008 9.754l8.511 51.951a16.983 16.983 0 0 0 6.851 11.048l67.83 48.734Z" fill="#84A8FF" opacity=".6"/><path d="m197.225 73.189-80.118 13.125-.561-3.424 80.118-13.125.561 3.424ZM308.032 55.036l-80.118 13.125-.561-3.424 80.118-13.125.561 3.424Z" fill="#3F6AAA"/><path d="M215.683 71.347a4.193 4.193 0 1 1-6.81-4.894 4.193 4.193 0 0 1 6.81 4.894ZM214.725 65.497l-4.892 6.809M215.683 71.347l-6.809-4.892" stroke="#3F6AAA" stroke-width="1.297" stroke-miterlimit="10"/><path d="m254.579 423.291-80.118 13.125-.561-3.424 80.118-13.125.561 3.424ZM365.386 405.139l-80.118 13.125-.561-3.424 80.118-13.125.561 3.424Z" fill="#3F6AAA"/><path d="M273.037 421.449a4.192 4.192 0 1 1-6.81-4.893 4.192 4.192 0 0 1 6.81 4.893ZM272.079 415.599l-4.892 6.809M273.037 421.449l-6.809-4.892" stroke="#3F6AAA" stroke-width="1.297" stroke-miterlimit="10"/><path d="M268.057 192.006c-9.17 4.417-16.911 10.957-24.377 17.94 25.329-1.144 50.452 7.727 73.259 20.045l-6.817-41.61c-13.901-3.669-29.092-2.623-42.065 3.625Z" fill="#182757"/><path d="M188.82 222.661c15.103-3.162 29.5-9.359 44.749-11.721a93.54 93.54 0 0 1 10.11-.994c7.466-6.983 15.207-13.523 24.377-17.94 12.973-6.248 28.164-7.294 42.065-3.625l-7.038-42.967-36.504-26.226-110.948 18.176c-5.597.917-9.391 6.197-8.474 11.795l12.091 73.807c9.475 2.294 19.913 1.717 29.572-.305Z" fill="#FF654A"/><path d="m177.039 331.568 36.503 26.227 110.949-18.176c5.597-.917 9.391-6.198 8.474-11.795l-8.104-49.468-152.447 24.974 4.625 28.238Z" fill="#182757"/><path d="m170.965 294.489 1.448 8.84 152.448-24.974-1.448-8.841-152.448 24.975Z" fill="#FCFFFF"/><path d="M214.485 235.085c10.831-6.851 19.795-16.347 29.195-25.139-3.368.153-6.74.472-10.11.994-15.249 2.362-29.647 8.559-44.749 11.721-9.659 2.023-20.097 2.599-29.572.305l3.753 22.913c17.721 2.452 36.34-1.217 51.483-10.794Z" fill="#FF654A"/><path d="m321.965 260.675-152.448 24.974 1.448 8.84 152.448-24.974-1.448-8.84Z" fill="#182757"/><path d="M316.939 229.991c-22.807-12.318-47.93-21.189-73.259-20.045-9.4 8.792-18.365 18.288-29.195 25.139-15.143 9.577-33.762 13.246-51.483 10.794l6.515 39.769 152.448-24.973-5.026-30.684Z" fill="#FCFFFF"/><path d="m227.686 342.255 73.825-12.095c10.194-1.67 17.103-11.286 15.433-21.479-1.67-10.194-11.286-17.103-21.48-15.433l-73.825 12.094c-10.194 1.67-17.103 11.287-15.433 21.479v.001c1.669 10.193 11.287 17.103 21.48 15.433Z" fill="#FF654A"/><path d="m302.908 302.86-82.537 13.521-.369-2.254 82.536-13.522.37 2.255ZM303.795 308.272l-82.537 13.521-.369-2.254 82.536-13.522.37 2.255ZM304.682 313.684l-82.537 13.521-.369-2.254 82.536-13.522.37 2.255ZM305.568 319.097l-82.537 13.521-.369-2.255 82.537-13.522.369 2.256Z" fill="#FCFFFF"/><path d="m235.567 249.081-57.106 9.355-.892-5.438 57.107-9.355.891 5.438Z" fill="#3F6AAA"/><path d="m221.483 257.372-42.068 6.892-.446-2.72 42.069-6.892.445 2.72Z" fill="#182757"/><path d="m237.743 262.368-57.106 9.355-.891-5.438 57.106-9.355.891 5.438Z" fill="#3F6AAA"/><path d="m223.66 270.659-42.068 6.892-.446-2.72 42.069-6.892.445 2.72ZM299.58 208.168l-47.253 7.741 7.741 47.253 47.253-7.741-7.741-47.253Z" fill="#182757"/><path d="m296.035 213.104-38.772 6.352 6.351 38.772 38.773-6.352-6.352-38.772ZM206.989 225.899l-14.379 2.356-7.532-45.974c-.454-2.774-.652-5.17-.594-7.187l-14.579 6.468-3.284-9.37 15.296-9.208 14.379-2.356 10.693 65.271ZM230.622 283l-26.771 4.385 1.18 11.949 9.551-.399c7.639-.41 13.293.898 16.962 3.923 3.732 3.015 6.109 7.645 7.132 13.888 2.304 14.063-4.144 22.34-19.342 24.829-6.306 1.034-13.672 1.528-22.098 1.484l-.504-11.38c7.124-.39 12.798-.931 17.024-1.623 4.729-.775 7.769-1.985 9.118-3.631 1.413-1.656 1.903-4.197 1.471-7.623-.451-3.941-1.779-6.314-3.983-7.118-2.204-.805-6.506-.974-12.905-.509l-8.101.356c-1.408.101-2.636-.28-3.684-1.145-.985-.874-1.56-2.011-1.724-3.408l-3.088-28.926 38.406-6.292 1.356 11.24Z" fill="#FCFFFF"/><path d="m271.589 162.925-9.685 1.586 4.359 26.611-7.193 1.179-4.36-26.611-9.685 1.587-.955-5.83 26.564-4.352.955 5.83Zm4.643 66.944.031.188c2.449-.176 4.309.372 5.579 1.645 1.266 1.241 2.119 3.209 2.561 5.905.534 3.259.068 5.621-1.398 7.084-1.466 1.463-4.205 2.523-8.217 3.181-6.018.986-10.599 1.607-13.743 1.865l-5.315-32.441c2.749-.708 6.787-1.498 12.115-2.371 4.326-.708 7.417-.603 9.273.316 1.851.887 3.047 2.977 3.586 6.268.385 2.35.223 4.211-.486 5.583-.682 1.335-2.011 2.26-3.986 2.777Zm-11.325-.462 5.219-.855c1.755-.288 2.9-.765 3.435-1.432.565-.672.712-1.838.44-3.499-.267-1.63-.789-2.655-1.566-3.075-.777-.42-2.121-.473-4.033-.16l-4.85.746 1.355 8.275Zm2.319 14.152 5.454-.894c1.974-.323 3.26-.824 3.857-1.501.592-.708.742-1.956.449-3.742-.318-1.944-.892-3.185-1.72-3.726-.834-.571-2.272-.706-4.315-.403l-5.266.863 1.541 9.403Z" fill="#FCFFFF"/><path d="m407.726 437.911-251.424 15.676c-5.363.335-9.982-3.742-10.316-9.106L122.394 66.099c-.802-12.857 7.08-26.11 23.976-27.165l236.553 1.173c5.363-.335 9.982 3.742 10.316 9.105l38.463 361.534c.354 13.829-7.194 26.118-23.976 27.165Z" fill="#182757"/><path d="m209.197 421.858-32.141 30.424 3.941-.246 28.406-26.888-.206-3.29ZM286.738 417.023l-32.142 30.424 3.941-.245 28.406-26.889-.205-3.29ZM296.12 416.438l-32.141 30.424 3.941-.245 28.406-26.889-.206-3.29ZM397.78 410.099l-32.142 30.425 3.941-.246 28.406-26.888-.205-3.291ZM407.163 409.514l-32.142 30.425 3.941-.246 28.406-26.888-.205-3.291ZM159.957 96.385l-33.687 31.887-.206-3.291 33.688-31.887.205 3.29ZM170.755 269.559l-33.687 31.888-.205-3.291 33.687-31.888.205 3.291ZM173.194 308.677l-33.688 31.887-.205-3.29 33.687-31.888.206 3.291ZM164.699 172.423l-33.688 31.888-.205-3.291 33.688-31.888.205 3.291ZM165.274 181.653l-33.688 31.887-.205-3.29 33.687-31.888.206 3.291Z" fill="#3F6AAA"/><path d="m422.597 421.063-251.423 15.676c-5.364.335-9.982-3.742-10.317-9.106L137.265 49.251c-.335-5.363 3.742-9.981 9.105-10.316l251.424-15.676c5.363-.335 9.982 3.742 10.316 9.105l23.592 378.383c.335 5.363-3.742 9.981-9.105 10.316Z" fill="#84A8FF"/><path d="m421.992 411.352-251.424 15.676-23.592-378.383L398.4 32.969l23.592 378.383Z" stroke="#FCFFFF" stroke-width="3.892" stroke-miterlimit="10"/><path d="m146.37 38.935 18.502-1.154 1.759 28.214-28.213 1.758-1.153-18.502c-.335-5.363 3.742-9.982 9.105-10.316Z" fill="#182757"/><path d="m146.37 38.935 18.502-1.154-26.454 29.972-1.153-18.502c-.335-5.363 3.742-9.982 9.105-10.316Z" fill="#3F6AAA"/><path d="M162.336 57.457a4.35 4.35 0 1 1-8.681.54 4.35 4.35 0 0 1 8.681-.54Z" fill="#84A8FF"/><path d="m397.793 23.259-18.502 1.152 1.759 28.215 28.213-1.76-1.154-18.502c-.334-5.363-4.953-9.44-10.316-9.105Z" fill="#182757"/><path d="m397.793 23.259-18.502 1.152 29.972 26.454-1.154-18.502c-.334-5.363-4.953-9.439-10.316-9.104Z" fill="#3F6AAA"/><path d="M384.251 43.62a4.349 4.349 0 1 0 8.68-.54 4.349 4.349 0 0 0-8.68.54Z" fill="#84A8FF"/><path d="m171.173 436.738 18.502-1.153-1.759-28.213-28.213 1.759 1.154 18.503c.334 5.363 4.953 9.439 10.316 9.104Z" fill="#182757"/><path d="m171.173 436.738 18.502-1.153-29.972-26.454 1.154 18.503c.334 5.363 4.953 9.439 10.316 9.104Z" fill="#3F6AAA"/><path d="M184.715 416.376a4.348 4.348 0 1 0-8.68.542 4.348 4.348 0 0 0 8.68-.542Z" fill="#84A8FF"/><path d="m422.596 421.063-18.502 1.153-1.759-28.213 28.213-1.759 1.153 18.503c.335 5.363-3.742 9.981-9.105 10.316Z" fill="#182757"/><path d="m422.596 421.063-18.502 1.153 26.454-29.972 1.153 18.503c.335 5.363-3.742 9.981-9.105 10.316Z" fill="#3F6AAA"/><path d="M406.63 402.54a4.35 4.35 0 1 1 8.682-.54 4.35 4.35 0 0 1-8.682.54Z" fill="#84A8FF"/><path d="M362.958 58.606c-.325 0-.65.01-.979.031l-53.794 3.354c-8.568.534-15.103 7.94-14.569 16.506l3.753 60.193c.42 6.744 3.442 12.921 8.508 17.392l71.739 63.318 10.567 9.327-.877-14.067-8.82-141.455c-.51-8.186-7.331-14.599-15.528-14.599Zm0 5.838c5.097 0 9.38 3.968 9.702 9.124l8.819 141.455-71.739-63.317a19.467 19.467 0 0 1-6.545-13.379l-3.753-60.194c-.334-5.362 3.743-9.982 9.106-10.316l53.795-3.354a9.76 9.76 0 0 1 .615-.019" fill="#3F6AAA" opacity=".6"/><path d="M260.902 64.989c-.528 0-1.064.016-1.593.05l-63.297 3.945c-6.744.422-12.921 3.443-17.392 8.509-4.472 5.067-6.703 11.57-6.282 18.315l15.604 250.26c.42 6.744 3.442 12.921 8.508 17.393l32.945 29.078a25.277 25.277 0 0 0 18.315 6.283l90.645-5.653c6.745-.42 12.921-3.441 17.393-8.507l30.62-34.694c4.472-5.066 6.703-11.57 6.282-18.314l-4.945-79.32c-.421-6.744-3.443-12.921-8.509-17.393l-84.605-74.674a13.535 13.535 0 0 1-4.582-9.365l-3.877-62.19c-.83-13.303-11.912-23.724-25.23-23.724Zm0 5.837c10.194 0 18.76 7.936 19.403 18.25l3.878 62.189a19.461 19.461 0 0 0 6.545 13.379l84.605 74.674a19.457 19.457 0 0 1 6.545 13.379l4.946 79.32a19.457 19.457 0 0 1-4.833 14.087l-30.62 34.694a19.463 19.463 0 0 1-13.379 6.545l-90.646 5.652a19.46 19.46 0 0 1-14.088-4.832l-32.945-29.078a19.461 19.461 0 0 1-6.545-13.379L178.164 95.444c-.669-10.727 7.485-19.963 18.211-20.633l63.298-3.947c.412-.025.822-.038 1.229-.038" fill="#3F6AAA" opacity=".6"/><path d="m381.479 215.024-8.82-141.455c-.334-5.363-4.953-9.44-10.316-9.106l-53.796 3.355c-5.363.334-9.44 4.953-9.105 10.316l3.753 60.193a19.457 19.457 0 0 0 6.545 13.379l71.739 63.318ZM375.333 239.318l-84.605-74.674a19.457 19.457 0 0 1-6.545-13.379l-3.878-62.19c-.668-10.725-9.906-18.88-20.633-18.21l-63.297 3.947c-10.727.669-18.88 9.906-18.211 20.632l15.604 250.262a19.46 19.46 0 0 0 6.544 13.379l32.946 29.078a19.46 19.46 0 0 0 14.088 4.832l90.646-5.652a19.459 19.459 0 0 0 13.379-6.545l30.62-34.693a19.46 19.46 0 0 0 4.833-14.088l-4.946-79.32a19.457 19.457 0 0 0-6.545-13.379Z" fill="#FCFFFF" opacity=".6"/><path d="m368.836 241.13-83.032-72.902a17.312 17.312 0 0 1-5.822-11.9l-3.93-63.04c-.595-9.542-8.812-16.794-18.353-16.2L201.394 80.6c-9.541.595-16.794 8.812-16.199 18.354l15.27 244.901a17.31 17.31 0 0 0 5.822 11.9l29.305 25.866a17.313 17.313 0 0 0 12.532 4.298l87.972-5.485a17.308 17.308 0 0 0 11.901-5.822l27.237-30.86a17.313 17.313 0 0 0 4.299-12.531l-4.875-78.189a17.312 17.312 0 0 0-5.822-11.901Z" fill="#84A8FF" opacity=".6"/><path d="m376.006 202.175-7.699-123.474a8.492 8.492 0 0 0-9.005-7.947l-46.957 2.927a8.493 8.493 0 0 0-7.947 9.005l3.275 52.542a16.987 16.987 0 0 0 5.713 11.677l62.62 55.27Z" fill="#84A8FF" opacity=".6"/><path d="m257.986 54.89-81.028 5.052-.216-3.463 81.028-5.052.216 3.463ZM370.052 47.903l-81.028 5.052-.216-3.463 81.028-5.052.216 3.463Z" fill="#3F6AAA"/><path d="M276.536 54.902a4.193 4.193 0 1 1-6.286-5.55 4.193 4.193 0 0 1 6.286 5.55ZM276.167 48.985l-5.548 6.286M276.536 54.902l-6.286-5.548" stroke="#3F6AAA" stroke-width="1.297" stroke-miterlimit="10"/><path d="m280.063 408.972-81.028 5.052-.216-3.463 81.028-5.052.216 3.463ZM392.129 401.984l-81.028 5.053-.216-3.463 81.028-5.052.216 3.462Z" fill="#3F6AAA"/><path d="M298.613 408.984a4.192 4.192 0 1 1-6.286-5.548 4.192 4.192 0 0 1 6.286 5.548ZM298.244 403.067l-5.548 6.286M298.613 408.984l-6.286-5.548" stroke="#3F6AAA" stroke-width="1.297" stroke-miterlimit="10"/><path d="M316.588 180.192c-9.566 3.478-17.921 9.212-26.048 15.414 25.317 1.393 49.428 12.73 70.889 27.267l-2.624-42.084c-13.465-5.04-28.684-5.517-42.217-.597Z" fill="#2B4082"/><path d="M234.685 202.774c15.343-1.637 30.288-6.363 45.696-7.189a93.278 93.278 0 0 1 10.159.021c8.127-6.202 16.482-11.936 26.048-15.414 13.533-4.92 28.752-4.443 42.217.597l-2.709-43.455-33.7-29.744-112.209 6.997c-5.661.353-9.963 5.228-9.611 10.889l4.654 74.647c9.2 3.228 19.643 3.698 29.455 2.651Z" fill="#FF654A"/><path d="m212.079 309.957 33.699 29.743 112.209-6.996c5.661-.352 9.964-5.228 9.611-10.889l-3.119-50.03-154.181 9.613 1.781 28.559Z" fill="#2B4082"/><path d="m209.74 272.458.558 8.94 154.18-9.613-.557-8.94-154.181 9.613Z" fill="#FCFFFF"/><path d="M258.979 217.7c11.461-5.734 21.33-14.286 31.562-22.095a93.55 93.55 0 0 0-10.16-.021c-15.408.826-30.353 5.553-45.696 7.189-9.812 1.047-20.255.577-29.455-2.651l1.445 23.173c17.387 4.211 36.28 2.421 52.304-5.595Z" fill="#FF654A"/><path d="m363.364 253.904-154.181 9.613.558 8.942 154.181-9.614-.558-8.941Z" fill="#182757"/><path d="M361.429 222.872c-21.461-14.537-45.572-25.874-70.889-27.267-10.232 7.809-20.1 16.361-31.561 22.095-16.024 8.016-34.917 9.806-52.304 5.595l2.508 40.222 154.181-9.614-1.935-31.031Z" fill="#FCFFFF"/><path d="m261.404 325.654 74.665-4.656c10.309-.643 18.145-9.521 17.502-19.83-.643-10.309-9.521-18.145-19.83-17.502l-74.665 4.655c-10.309.643-18.145 9.521-17.502 19.83.643 10.31 9.521 18.146 19.83 17.503Z" fill="#7DCC5E"/><path d="m340.187 293.973-83.475 5.205-.142-2.281 83.474-5.204.143 2.28ZM340.528 299.446l-83.475 5.205-.142-2.281 83.475-5.204.142 2.28ZM340.869 304.92l-83.475 5.205-.142-2.28 83.475-5.205.142 2.28ZM341.21 310.395l-83.475 5.204-.142-2.28 83.475-5.205.142 2.281Z" fill="#FCFFFF"/><path d="m278.557 233.734-57.755 3.602-.343-5.501 57.755-3.601.343 5.5Z" fill="#3F6AAA"/><path d="m263.716 240.575-42.547 2.653-.171-2.751 42.547-2.652.171 2.75Z" fill="#182757"/><path d="m279.395 247.172-57.755 3.601-.343-5.5 57.755-3.602.343 5.501Z" fill="#3F6AAA"/><path d="m264.553 254.014-42.546 2.652-.172-2.75 42.547-2.653.171 2.751ZM346.339 199.423l-47.79 2.979 2.98 47.791 47.79-2.98-2.98-47.79Z" fill="#182757"/><path d="m342.318 203.979-39.213 2.445 2.445 39.213 39.213-2.445-2.445-39.213ZM288.296 149.408l-.088 5.016c-1.734.041-4.315.168-7.741.382-2.595.162-4.34.838-5.234 2.03-.861 1.189-1.258 3.668-1.19 7.438 1.726-1.777 4.203-2.767 7.43-2.968 3.726-.232 6.34.44 7.841 2.016 1.532 1.541 2.422 4.308 2.671 8.3.133 2.129.078 3.919-.166 5.371a9.965 9.965 0 0 1-1.557 3.954c-.763 1.15-1.943 2.042-3.54 2.676-1.566.598-3.58.974-6.042 1.128-3.46.215-6.119-.12-7.978-1.006-1.827-.921-3.183-2.573-4.066-4.956-.885-2.417-1.475-5.987-1.77-10.711-.195-3.127-.16-5.784.104-7.972.265-2.187.705-3.968 1.32-5.342.649-1.377 1.566-2.469 2.752-3.278a11.233 11.233 0 0 1 3.899-1.746c1.38-.353 3.102-.594 5.165-.723 3.26-.203 5.99-.073 8.19.391Zm-7.93 29.501c2.096-.131 3.399-.663 3.908-1.596.508-.967.686-2.665.535-5.093-.135-2.163-.559-3.606-1.272-4.33-.68-.725-1.985-1.028-3.914-.908-1.797.112-3.573.824-5.328 2.136.303 4.323.792 7.081 1.468 8.274.673 1.161 2.208 1.666 4.603 1.517ZM317.937 150.199l-6.168.384 1.056 16.947-4.581.286-1.056-16.947-6.168.384-.232-3.712 16.917-1.055.232 3.713Zm14.445 5.291.007.12c1.546.044 2.677.504 3.393 1.381.714.858 1.125 2.144 1.232 3.861.13 2.076-.311 3.526-1.322 4.351-1.01.824-2.793 1.316-5.348 1.476-3.833.238-6.742.34-8.728.303l-1.288-20.66c1.766-.27 4.346-.511 7.74-.723 2.754-.171 4.684.089 5.79.782 1.104.672 1.721 2.056 1.852 4.152.093 1.497-.126 2.653-.656 3.468-.511.793-1.402 1.29-2.672 1.489Zm-7.066-1.002 3.323-.207c1.118-.07 1.865-.297 2.242-.681.397-.386.562-1.107.496-2.165-.064-1.038-.327-1.713-.787-2.025-.461-.312-1.3-.43-2.517-.354l-3.086.162.329 5.27Zm.561 9.012 3.474-.216c1.257-.079 2.094-.311 2.511-.698.416-.407.588-1.179.517-2.317-.077-1.237-.358-2.051-.844-2.442-.486-.41-1.379-.585-2.677-.524l-3.354.209.373 5.988ZM237.161 178.059l.553 8.874-3.485.218-.711-5.042-13.258.827-.044 5.088-3.485.218-.553-8.875 2.227-.139c.886-2.772 1.417-6.016 1.594-9.73.108-2.892 1.707-4.435 4.797-4.628l8.695-.542.867 13.905 2.803-.174Zm-7.797.486-.643-10.312-2.299.143c-1.078.067-1.642.668-1.692 1.801-.187 3.546-.739 6.466-1.654 8.76l6.288-.392Zm11.411-13.048c1.301-1.5 3.617-2.353 6.946-2.561 3.33-.208 5.721.353 7.175 1.681 1.453 1.328 2.287 3.705 2.5 7.13.212 3.401-.32 5.851-1.598 7.35-1.278 1.474-3.582 2.315-6.912 2.523-3.33.207-5.732-.34-7.208-1.643-1.454-1.328-2.286-3.693-2.499-7.094-.213-3.425.319-5.887 1.596-7.386Zm7.195 1.427c-1.414.088-2.337.507-2.772 1.255-.434.749-.584 2.201-.449 4.357.131 2.108.459 3.506.983 4.195.524.688 1.492.989 2.905.901 1.39-.087 2.301-.505 2.736-1.253.458-.75.621-2.179.49-4.287-.133-2.132-.473-3.541-1.021-4.229-.526-.712-1.483-1.025-2.872-.939ZM219.783 128.265c1.421-.089 2.567.04 3.438.387.888.345 1.543.962 1.967 1.849.44.886.707 2.08.801 3.581.093 1.501-.023 2.719-.35 3.653a3.646 3.646 0 0 1-1.722 2.079c-.821.452-1.942.722-3.364.811-1.421.089-2.575-.04-3.462-.385a3.753 3.753 0 0 1-1.991-1.848c-.44-.886-.707-2.08-.801-3.581-.093-1.501.023-2.719.35-3.653.326-.934.908-1.628 1.746-2.081.837-.453 1.966-.723 3.388-.812Zm.137 2.204c-.719.044-1.278.2-1.678.465-.386.248-.648.666-.788 1.251-.14.586-.177 1.398-.113 2.436.065 1.038.203 1.839.415 2.403.211.564.524.945.937 1.144.429.198 1.003.274 1.721.229.703-.044 1.247-.19 1.632-.438.402-.25.664-.667.788-1.252.14-.585.177-1.397.113-2.435-.065-1.038-.203-1.839-.415-2.403-.195-.565-.508-.946-.937-1.144-.414-.215-.972-.3-1.675-.256Zm18.22-9 .665 2.195a6.889 6.889 0 0 1-1.419.762c-.439.156-.872.279-1.299.37-.428.09-.863.174-1.307.249-.429.075-.87.191-1.325.348-.659.233-1.178.53-1.556.89a3.232 3.232 0 0 0-.795 1.132 5.213 5.213 0 0 0-.354 1.272c-.09.343-.15.667-.179.973-.014.29-.03.547-.048.773l.071-.005c.143-.281.318-.557.526-.826.207-.285.464-.534.771-.745a4.08 4.08 0 0 1 1.192-.556c.471-.157 1.042-.257 1.713-.299 1.213-.075 2.183.056 2.91.396.742.338 1.291.913 1.646 1.725.371.794.597 1.862.681 3.204.08 1.277-.02 2.381-.298 3.313a3.786 3.786 0 0 1-1.597 2.167c-.785.514-1.912.817-3.382.908-1.101.069-2.019.006-2.753-.189-.718-.211-1.299-.52-1.741-.925a4.099 4.099 0 0 1-1.01-1.548 9.92 9.92 0 0 1-.512-2.036 40.137 40.137 0 0 1-.224-2.439 33.787 33.787 0 0 1-.061-3.291c.051-.981.206-1.848.463-2.602a5.012 5.012 0 0 1 1.2-1.974c.558-.564 1.306-1.027 2.246-1.391.5-.207.987-.358 1.462-.451.474-.11.949-.212 1.424-.306.475-.093.948-.219 1.419-.377a6.857 6.857 0 0 0 1.471-.717Zm-3.935 8.638c-.798.05-1.397.215-1.796.497-.383.28-.631.688-.741 1.224-.112.52-.142 1.195-.091 2.026.062.99.198 1.759.409 2.307.21.548.522.921.935 1.12.414.198.955.277 1.626.235.671-.042 1.191-.186 1.56-.434.385-.248.641-.657.765-1.226.141-.57.181-1.35.119-2.34-.059-.942-.184-1.664-.375-2.165-.176-.502-.462-.844-.858-1.028-.38-.185-.898-.257-1.553-.216Zm16.404.853c1.293-.081 2.323-.025 3.088.168.765.177 1.316.535 1.654 1.075.354.523.56 1.264.62 2.222.062.99-.058 1.775-.358 2.355-.285.579-.763 1.001-1.436 1.268-.658.249-1.53.408-2.616.475-.83.052-1.549.089-2.157.111-.607.038-1.167.056-1.68.056a57.52 57.52 0 0 1-1.585.027l.163-2.006c.305-.003.873-.022 1.704-.058.831-.036 1.814-.089 2.948-.16.559-.035.987-.11 1.284-.224.314-.116.526-.314.637-.593.126-.28.174-.668.144-1.163-.043-.687-.216-1.149-.52-1.387-.304-.253-.895-.353-1.774-.298l-4.671.291-.116-1.868 4.671-.291Zm-2.449-4.176.734 11.761-2.803.175-.733-11.761 2.802-.175Zm-6.827.426 5.558-.347.137 2.204-5.557.347-.138-2.204Zm21.863-1.652c1.9-.118 3.287.132 4.159.751.871.603 1.355 1.55 1.452 2.843.066 1.07-.138 1.9-.615 2.491-.461.574-1.29.898-2.488.973l-6.731.419-.112-1.796 5.941-.371c.511-.031.837-.196.979-.493.158-.299.216-.655.174-1.069-.041-.655-.253-1.099-.636-1.331-.368-.234-.998-.323-1.893-.267-.734.046-1.303.185-1.705.419-.402.233-.674.627-.816 1.181-.126.553-.157 1.34-.093 2.362.068 1.086.224 1.918.468 2.496.244.578.605.964 1.082 1.159.492.178 1.146.241 1.96.19a42.924 42.924 0 0 0 4.271-.531l.403 1.827a7.551 7.551 0 0 1-1.459.524c-.568.147-1.153.264-1.757.35a15.63 15.63 0 0 1-1.671.2c-1.421.089-2.584-.047-3.488-.408-.889-.377-1.562-1.008-2.018-1.894-.44-.886-.705-2.048-.794-3.485-.097-1.549.026-2.783.37-3.702.342-.935.917-1.62 1.723-2.055.823-.436 1.921-.697 3.294-.783Zm21.905-1.077c.67-.042 1.036.288 1.095.99l1.099 10.68-2.659.166-1.006-9.58-.359.022-1.942 7.431c-.045.292-.159.523-.341.695-.166.171-.408.266-.728.286l-1.7.106c-.304.019-.556-.046-.758-.193-.185-.149-.327-.365-.425-.647l-2.849-7.133-.36.023.24 9.627-2.635.165-.26-10.733c-.044-.703.285-1.076.988-1.12l2.683-.167c.303-.019.548.046.733.195.201.132.343.355.427.671l2.281 5.725a11.448 11.448 0 0 1 .514 1.699l.312-.019a37.55 37.55 0 0 1 .299-1.75l1.552-5.964c.105-.632.461-.967 1.068-1.005l2.731-.17Z" fill="#FCFFFF"/><path d="m288.296 149.408-.088 5.016c-1.734.041-4.315.168-7.742.382-2.594.162-4.339.838-5.233 2.03-.861 1.189-1.258 3.668-1.19 7.438 1.726-1.777 4.203-2.767 7.43-2.968 3.726-.232 6.34.44 7.841 2.016 1.532 1.541 2.422 4.308 2.671 8.3.133 2.129.078 3.919-.166 5.371a9.965 9.965 0 0 1-1.557 3.954c-.763 1.15-1.943 2.042-3.54 2.676-1.566.598-3.58.974-6.042 1.128-3.46.215-6.119-.12-7.978-1.006-1.827-.921-3.183-2.573-4.066-4.956-.885-2.417-1.475-5.987-1.77-10.711-.195-3.127-.16-5.785.104-7.972.265-2.187.705-3.968 1.32-5.342.649-1.377 1.566-2.469 2.752-3.278a11.233 11.233 0 0 1 3.899-1.746c1.38-.353 3.102-.594 5.165-.723 3.26-.203 5.99-.073 8.19.391Zm-7.93 29.501c2.096-.131 3.399-.663 3.908-1.596.508-.967.686-2.665.535-5.093-.135-2.163-.559-3.606-1.272-4.33-.68-.725-1.985-1.028-3.914-.908-1.797.112-3.573.824-5.328 2.136.303 4.323.792 7.081 1.468 8.274.673 1.161 2.208 1.666 4.603 1.517ZM317.937 150.199l-6.168.384 1.056 16.947-4.581.286-1.056-16.947-6.168.384-.232-3.712 16.917-1.055.232 3.713ZM332.382 155.49l.007.12c1.546.044 2.677.504 3.393 1.381.714.858 1.125 2.144 1.232 3.861.13 2.076-.311 3.526-1.322 4.351-1.01.824-2.793 1.316-5.348 1.476-3.833.238-6.742.34-8.728.303l-1.288-20.66c1.766-.27 4.346-.511 7.74-.723 2.754-.171 4.684.089 5.79.782 1.104.672 1.721 2.056 1.852 4.152.093 1.497-.126 2.653-.656 3.468-.512.793-1.402 1.29-2.672 1.489Zm-7.066-1.002 3.323-.207c1.118-.07 1.865-.297 2.242-.681.397-.386.562-1.107.496-2.165-.064-1.038-.327-1.713-.787-2.025-.461-.312-1.3-.43-2.517-.354l-3.086.162.329 5.27Zm.561 9.012 3.474-.216c1.257-.079 2.094-.311 2.511-.698.416-.407.588-1.179.517-2.317-.077-1.237-.358-2.051-.844-2.442-.486-.41-1.379-.585-2.677-.524l-3.354.209.373 5.988ZM237.161 178.059l.553 8.874-3.485.218-.711-5.042-13.258.827-.044 5.088-3.485.218-.553-8.875 2.227-.139c.886-2.772 1.417-6.016 1.594-9.73.108-2.892 1.707-4.435 4.797-4.628l8.695-.542.867 13.905 2.803-.174Zm-7.797.486-.643-10.312-2.299.143c-1.078.067-1.642.668-1.692 1.801-.187 3.546-.739 6.466-1.654 8.76l6.288-.392ZM240.775 165.497c1.301-1.5 3.616-2.353 6.946-2.561 3.33-.208 5.721.353 7.175 1.681 1.453 1.328 2.286 3.705 2.5 7.13.212 3.401-.32 5.851-1.598 7.35-1.278 1.474-3.583 2.315-6.912 2.523-3.33.207-5.732-.34-7.208-1.643-1.454-1.328-2.286-3.693-2.499-7.094-.213-3.425.319-5.887 1.596-7.386Zm7.195 1.427c-1.414.088-2.337.507-2.772 1.255-.434.749-.584 2.201-.449 4.357.131 2.108.459 3.506.983 4.195.523.688 1.492.989 2.905.901 1.39-.087 2.301-.505 2.736-1.253.458-.75.621-2.179.49-4.287-.133-2.132-.473-3.541-1.021-4.229-.526-.712-1.483-1.025-2.872-.939ZM219.783 128.265c1.421-.089 2.567.04 3.438.387.888.345 1.543.962 1.967 1.849.44.886.707 2.08.801 3.581.093 1.501-.023 2.719-.35 3.653a3.646 3.646 0 0 1-1.722 2.079c-.821.452-1.942.722-3.364.811-1.421.089-2.575-.04-3.462-.385a3.753 3.753 0 0 1-1.991-1.848c-.44-.886-.707-2.08-.801-3.581-.093-1.501.023-2.719.35-3.653.326-.934.908-1.628 1.746-2.081.837-.453 1.966-.723 3.388-.812Zm.137 2.204c-.719.044-1.278.2-1.678.465-.386.248-.648.666-.788 1.251-.14.586-.177 1.398-.113 2.436.065 1.038.203 1.839.415 2.403.211.564.524.945.937 1.144.429.198 1.003.274 1.721.229.703-.044 1.247-.19 1.632-.438.402-.25.664-.667.788-1.252.14-.585.177-1.397.113-2.435-.065-1.038-.203-1.839-.415-2.403-.195-.565-.508-.946-.937-1.144-.414-.215-.972-.3-1.675-.256ZM238.139 121.469l.666 2.195a6.889 6.889 0 0 1-1.419.762c-.439.156-.872.279-1.299.37-.428.09-.863.174-1.307.249-.429.075-.87.191-1.325.348-.659.233-1.178.53-1.556.89a3.232 3.232 0 0 0-.795 1.132 5.213 5.213 0 0 0-.354 1.272c-.091.343-.15.667-.179.973-.014.29-.03.547-.048.773l.071-.005c.143-.281.318-.557.526-.826.207-.285.464-.534.771-.745.322-.229.72-.414 1.192-.556.471-.157 1.042-.257 1.713-.299 1.213-.075 2.183.056 2.91.396.742.338 1.291.913 1.646 1.725.371.794.597 1.862.681 3.204.08 1.277-.02 2.381-.298 3.313a3.786 3.786 0 0 1-1.597 2.167c-.785.514-1.912.817-3.382.908-1.101.069-2.019.006-2.753-.189-.718-.211-1.299-.52-1.741-.925a4.087 4.087 0 0 1-1.01-1.548 9.92 9.92 0 0 1-.512-2.036 40.137 40.137 0 0 1-.224-2.439 33.787 33.787 0 0 1-.061-3.291c.051-.981.206-1.848.463-2.602a5.012 5.012 0 0 1 1.2-1.974c.558-.564 1.306-1.027 2.245-1.391a7.726 7.726 0 0 1 1.463-.451c.474-.11.949-.212 1.424-.306.475-.093.948-.219 1.419-.377a6.829 6.829 0 0 0 1.47-.717Zm-3.934 8.638c-.798.05-1.397.215-1.796.497-.383.28-.631.688-.741 1.224-.112.52-.142 1.195-.091 2.026.062.99.198 1.759.409 2.307.21.548.522.921.935 1.12.413.198.955.277 1.626.235.671-.042 1.191-.186 1.56-.434.385-.248.64-.657.765-1.226.141-.57.181-1.35.119-2.34-.059-.942-.184-1.664-.375-2.165-.176-.502-.462-.845-.858-1.028-.38-.185-.898-.257-1.553-.216ZM250.609 130.96c1.293-.081 2.323-.025 3.088.168.765.177 1.316.535 1.654 1.075.354.523.56 1.264.62 2.222.062.99-.058 1.775-.358 2.355-.285.579-.764 1.001-1.436 1.268-.658.249-1.53.408-2.616.475-.83.052-1.549.089-2.157.111-.607.038-1.167.056-1.68.056a57.52 57.52 0 0 1-1.585.027l.163-2.006c.305-.003.873-.022 1.704-.058.831-.036 1.814-.089 2.948-.16.559-.035.987-.11 1.284-.224.314-.116.526-.314.637-.593.126-.28.174-.668.144-1.163-.043-.687-.216-1.149-.52-1.387-.304-.253-.895-.353-1.774-.298l-4.671.291-.116-1.868 4.671-.291Zm-2.449-4.176.733 11.761-2.802.175-.733-11.761 2.802-.175Zm-6.827.426 5.558-.347.137 2.204-5.557.347-.138-2.204ZM263.196 125.558c1.9-.118 3.287.132 4.159.751.871.603 1.355 1.55 1.452 2.843.066 1.07-.138 1.9-.615 2.491-.461.574-1.29.898-2.488.973l-6.731.419-.112-1.796 5.941-.371c.511-.031.837-.196.979-.493.158-.299.215-.655.174-1.069-.041-.655-.253-1.099-.636-1.331-.368-.234-.998-.323-1.893-.267-.734.046-1.303.185-1.705.419-.402.233-.674.627-.816 1.181-.126.553-.157 1.34-.093 2.362.068 1.086.224 1.918.468 2.496.244.578.605.964 1.082 1.159.492.178 1.145.241 1.96.19a34.075 34.075 0 0 0 2.055-.2c.78-.097 1.518-.207 2.216-.331l.403 1.827a7.551 7.551 0 0 1-1.459.524c-.568.147-1.153.264-1.757.35-.587.1-1.144.167-1.671.2-1.421.089-2.584-.047-3.488-.408-.889-.377-1.562-1.008-2.018-1.894-.44-.886-.705-2.048-.794-3.485-.097-1.549.026-2.783.37-3.702.342-.935.917-1.62 1.723-2.055.823-.436 1.921-.697 3.294-.783ZM285.101 124.481c.67-.042 1.035.288 1.095.99l1.099 10.68-2.659.166-1.006-9.58-.359.022-1.942 7.431c-.045.292-.159.523-.341.695-.166.171-.408.266-.728.286l-1.7.106c-.304.019-.556-.046-.758-.193-.185-.149-.327-.365-.425-.647l-2.849-7.133-.36.023.24 9.627-2.635.165-.26-10.733c-.044-.703.285-1.076.988-1.12l2.683-.167c.303-.019.548.046.733.195.201.132.343.355.427.671l2.281 5.725a11.448 11.448 0 0 1 .514 1.699l.312-.019a37.55 37.55 0 0 1 .299-1.75l1.552-5.965c.105-.631.461-.966 1.068-1.004l2.731-.17Z" fill="#FCFFFF"/></svg>