<svg xmlns="http://www.w3.org/2000/svg" width="164" height="164" fill="none" viewBox="0 0 164 164">
  <defs/>
  <rect width="100" height="100" x="24" y="5" fill="#DAE0EE" rx="20"/>
  <circle cx="124" cy="55" r="40" fill="#AAB7DC" fill-opacity=".45"/>
  <path fill="#DDD" d="M105.47 108.38v4.68c0 2.6-2.1 4.69-4.69 4.69H7.04a4.69 4.69 0 01-4.7-4.69v-4.69h103.13z"/>
  <path fill="#FADF6B" d="M105.47 46.03v62.34H2.34V46.03c0-2.59 2.1-4.69 4.7-4.69h93.74c2.59 0 4.69 2.1 4.69 4.7z"/>
  <path fill="#EDF1FE" d="M71.86 59.08l4.69 8.12-6.72 3.88c.29 1.22.48 2.47.48 3.78 0 1.3-.19 2.56-.48 3.78l6.72 3.88-4.7 8.12-6.71-3.88c-1.84 1.73-4.07 3-6.55 3.74v7.8h-9.37v-7.8a16.34 16.34 0 01-6.54-3.74l-6.73 3.88-4.68-8.12 6.71-3.88c-.29-1.22-.48-2.48-.48-3.78 0-1.3.2-2.56.48-3.78l-6.71-3.88 4.68-8.12 6.73 3.88c1.83-1.73 4.06-3 6.54-3.74v-7.8h9.37v7.8c2.48.74 4.71 2.01 6.55 3.74l6.72-3.88zM60.94 74.86a7.04 7.04 0 10-14.08.02 7.04 7.04 0 0014.08-.02z"/>
  <path fill="#BFC9E1" d="M67.97 117.75v10.08a44.48 44.48 0 01-28.13 0v-10.08h28.13z"/>
  <path fill="#8BD87C" d="M53.9 130.1c4.76 0 9.5-.75 14.07-2.27H77.34a23.44 23.44 0 0123.44 23.43v5.4H62.11 7.03v-5.4a23.44 23.44 0 0123.44-23.43H39.84a44.48 44.48 0 0014.07 2.28z"/>
  <path fill="#D39BF1" d="M62.7 138.38l-8.8-5.87-8.78 5.87 4.1 8.2-3.52 10.08h16.4l-3.5-10.08 4.1-8.2z"/>
  <path fill="#1F3474" d="M91.4 77.2a2.34 2.34 0 100-4.69 2.34 2.34 0 000 4.7zM82.03 77.2a2.34 2.34 0 100-4.69 2.34 2.34 0 000 4.7zM25.78 77.2a2.34 2.34 0 100-4.69 2.34 2.34 0 000 4.7zM16.4 77.2a2.34 2.34 0 100-4.69 2.34 2.34 0 000 4.7zM29.24 83.69l4.68 8.12a2.34 2.34 0 003.2.86l5.3-3.06a18.9 18.9 0 004.45 2.55v6.14c0 1.3 1.05 2.34 2.35 2.34h9.37c1.3 0 2.35-1.05 2.35-2.34v-6.14c1.62-.65 3.1-1.5 4.46-2.55l5.29 3.06a2.34 2.34 0 003.2-.86l4.69-8.12a2.34 2.34 0 00-.86-3.2l-5.27-3.04a17.02 17.02 0 000-5.18l5.27-3.04a2.34 2.34 0 00.86-3.2l-4.7-8.12a2.34 2.34 0 00-3.2-.86L65.4 60.1a18.48 18.48 0 00-4.46-2.54v-6.14c0-1.3-1.05-2.34-2.35-2.34h-9.37a2.34 2.34 0 00-2.35 2.34v6.14a18.9 18.9 0 00-4.45 2.55l-5.3-3.06a2.34 2.34 0 00-3.2.86l-4.68 8.12a2.34 2.34 0 00.85 3.2l5.27 3.04a17.01 17.01 0 000 5.18l-5.27 3.04a2.34 2.34 0 00-.85 3.2zm9.91-3.02a2.34 2.34 0 001.11-2.57 13.9 13.9 0 01-.42-3.24c0-1 .14-2.06.42-3.24.24-1-.2-2.05-1.1-2.57l-4.7-2.7 2.35-4.07 4.7 2.71c.9.52 2.02.39 2.78-.32a13.91 13.91 0 015.6-3.2 2.34 2.34 0 001.67-2.25v-5.45h4.69v5.45c0 1.03.68 1.94 1.67 2.24 2.16.65 4.04 1.73 5.6 3.2.76.72 1.9.85 2.79.33l4.7-2.7 2.33 4.05-4.68 2.7a2.34 2.34 0 00-1.11 2.58c.28 1.18.42 2.24.42 3.24s-.14 2.05-.42 3.24c-.24 1 .2 2.05 1.1 2.57l4.7 2.7L71 87.45l-4.7-2.71a2.34 2.34 0 00-2.77.32 13.94 13.94 0 01-5.61 3.2 2.34 2.34 0 00-1.67 2.25v5.45h-4.69V90.5c0-1.03-.68-1.94-1.67-2.24a13.91 13.91 0 01-5.6-3.2 2.34 2.34 0 00-2.78-.33l-4.7 2.7-2.34-4.05 4.68-2.71z"/>
  <path fill="#1F3474" d="M53.9 84.23a9.39 9.39 0 000-18.75 9.39 9.39 0 000 18.75zm0-14.06a4.7 4.7 0 110 9.39 4.7 4.7 0 010-9.39z"/>
  <path fill="#1F3474" d="M100.78 39H7.03A7.04 7.04 0 000 46.03v67.03a7.04 7.04 0 007.03 7.03H37.5v5.4h-2.38H30.47a25.81 25.81 0 00-25.78 25.77v5.4c0 1.29 1.05 2.34 2.34 2.34h93.75c1.3 0 2.34-1.05 2.34-2.34v-5.4a25.81 25.81 0 00-25.78-25.78h-4.63-2.4v-5.39h30.47a7.04 7.04 0 007.03-7.03V46.03a7.04 7.04 0 00-7.03-7.03zM7.03 43.69h93.75c1.3 0 2.34 1.05 2.34 2.34v60H4.7v-60c0-1.3 1.05-2.34 2.34-2.34zm61.3 86.48h1.07l-2.68 8.07-8.94-5.96c3.58-.3 7.13-1 10.56-2.1zm-17.45 18.75h6.05l1.88 5.4H49l1.87-5.4zm6.26-4.69h-6.47l-2.53-5.05 5.77-3.85 5.76 3.85-2.53 5.05zm-16.04-6l-2.7-8.06h1.08a46.67 46.67 0 0010.56 2.1l-8.94 5.97zM9.37 151.27c0-11.63 9.47-21.09 21.1-21.09h3l4.15 12.46a2.34 2.34 0 003.52 1.21l3.07-2.04 2.47 4.94-2.64 7.57H28.13v-3.05a2.34 2.34 0 00-4.7 0v3.05H9.39v-3.05zm89.07 0v3.05H84.37v-3.05a2.34 2.34 0 00-4.68 0v3.05H63.77l-2.64-7.57 2.47-4.94 3.07 2.04a2.34 2.34 0 003.52-1.2l4.15-12.47h3c11.63 0 21.1 9.46 21.1 21.1zM65.62 126.1a42.46 42.46 0 01-23.43 0v-6h23.43v6zm35.16-10.7H7.03a2.35 2.35 0 01-2.34-2.34v-2.34h98.44v2.34c0 1.3-1.06 2.35-2.35 2.35z"/>
</svg>
