<svg xmlns="http://www.w3.org/2000/svg" width="164" height="164" fill="none" viewBox="0 0 164 164">
  <defs/>
  <rect width="100" height="100" x="30" y="54" fill="#DAE0EE" rx="20"/>
  <circle cx="40" cy="70" r="40" fill="#AAB7DC" fill-opacity=".45"/>
  <path fill="#DD96F7" d="M161.94 37.5v28.67A6.83 6.83 0 01155.1 73h-46.75a6.83 6.83 0 006.83-6.83V37.5a6.83 6.83 0 016.83-6.83h33.09a6.83 6.83 0 016.83 6.83z"/>
  <path fill="#46CFEC" d="M153.56 29.28v1.39h-31.54a6.83 6.83 0 00-6.83 6.83v28.67a6.83 6.83 0 01-6.83 6.83h-.72a6.83 6.83 0 01-6.83-6.83V21.4a6.83 6.83 0 016.83-6.83h15.32c1.92 0 3.75.8 5.04 2.22l4.66 5.09c.32.35.78.56 1.25.56h12.82a6.83 6.83 0 016.83 6.83z"/>
  <path fill="#6FDB6F" d="M87.67 92.44v28.67a6.83 6.83 0 01-6.83 6.83H34.1a6.83 6.83 0 006.83-6.83V92.44a6.83 6.83 0 016.83-6.83h33.1a6.83 6.83 0 016.82 6.83z"/>
  <path fill="#FFDF52" d="M79.3 84.22v1.39H47.74a6.83 6.83 0 00-6.83 6.83v28.67a6.83 6.83 0 01-6.83 6.83h-.72a6.83 6.83 0 01-6.83-6.83V76.35a6.83 6.83 0 016.83-6.83h15.32c1.92 0 3.75.8 5.04 2.22l4.66 5.1c.32.35.78.55 1.26.55h12.82a6.83 6.83 0 016.82 6.83z"/>
  <path fill="#1F3474" d="M114.5 102.56a2.06 2.06 0 00-2.92.05l-11.56 12c-.78.8-.77 2.07 0 2.86l11.57 11.9a2.06 2.06 0 102.95-2.87l-8.38-8.62h17.63a23.12 23.12 0 0023.08-23.11v-.03a2.06 2.06 0 00-4.12 0v.05a19 19 0 01-18.96 18.97h-17.23l7.99-8.3c.79-.81.76-2.12-.06-2.9zM74.75 37.44c.81.8 2.12.77 2.9-.05l11.57-12c.78-.8.77-2.07 0-2.87l-11.57-11.9a2.06 2.06 0 10-2.95 2.88l8.25 8.49h-17.5a23.12 23.12 0 00-23.08 23.1v.04a2.06 2.06 0 004.12 0v-.05A19 19 0 0165.45 26.1H82.8l-8.12 8.42c-.79.82-.76 2.13.06 2.91zM155.6 28.62a8.9 8.9 0 00-8.87-8.23h-12.66l-4.55-4.98a8.9 8.9 0 00-6.56-2.9h-15.32a8.9 8.9 0 00-8.9 8.9v44.76a8.9 8.9 0 008.9 8.89h47.47a8.9 8.9 0 008.89-8.9V37.5a8.9 8.9 0 00-8.4-8.88zm-42.48 8.88v28.67a4.77 4.77 0 01-4.76 4.77h-.72a4.78 4.78 0 01-4.77-4.77V21.4a4.78 4.78 0 014.77-4.77h15.32c1.34 0 2.62.56 3.52 1.55l4.65 5.09a3.77 3.77 0 002.78 1.23h12.82a4.78 4.78 0 014.73 4.1h-29.44a8.9 8.9 0 00-8.9 8.89zm46.76 28.67a4.78 4.78 0 01-4.77 4.77h-39.26a8.83 8.83 0 001.4-4.77V37.5a4.78 4.78 0 014.77-4.77h33.09a4.78 4.78 0 014.77 4.77v28.67zM89.73 121.11V92.44a8.9 8.9 0 00-8.4-8.88 8.9 8.9 0 00-8.86-8.23H59.8l-4.55-4.98a8.9 8.9 0 00-6.56-2.89H33.37a8.9 8.9 0 00-8.9 8.9v44.75a8.9 8.9 0 008.9 8.89h47.47a8.9 8.9 0 008.9-8.89zM38.86 92.44v28.67a4.77 4.77 0 01-4.77 4.77h-.72a4.78 4.78 0 01-4.77-4.77V76.35a4.78 4.78 0 014.77-4.77h15.32c1.34 0 2.62.57 3.52 1.55l4.65 5.09a3.77 3.77 0 002.79 1.23h12.82a4.78 4.78 0 014.72 4.1H47.75a8.9 8.9 0 00-8.9 8.9zm4.12 28.67V92.44a4.78 4.78 0 014.77-4.77h33.09a4.78 4.78 0 014.77 4.77v28.67a4.78 4.78 0 01-4.77 4.77H41.59a8.85 8.85 0 001.39-4.77z"/>
</svg>
