<svg xmlns="http://www.w3.org/2000/svg" width="164" height="164" fill="none" viewBox="0 0 164 164">
  <defs/>
  <rect width="100" height="100" x="25.25" y="35.5" fill="#DAE0EE" rx="20"/>
  <circle cx="41.25" cy="115.5" r="40" fill="#AAB7DC" fill-opacity=".45"/>
  <path fill="#E9EDF7" fill-rule="evenodd" d="M48 71a52.08 52.08 0 0115.3-36.94 52.08 52.08 0 0136.95-15.31 52.08 52.08 0 0136.94 15.3A52.09 52.09 0 01152.5 71a52.08 52.08 0 01-15.3 36.94 52.1 52.1 0 01-36.95 15.31 52.08 52.08 0 01-36.94-15.32A52.08 52.08 0 0148 71zm112.3 0a60.06 60.06 0 10-120.1 0 60.06 60.06 0 00120.1 0z" clip-rule="evenodd"/>
  <path fill="#D39CF1" fill-rule="evenodd" d="M73.66 44.4L63.32 34.08A52.08 52.08 0 0048 71a52.08 52.08 0 0015.3 36.94L73.67 97.6a37.6 37.6 0 010-53.18z" clip-rule="evenodd"/>
  <path fill="#FADF6B" fill-rule="evenodd" d="M63.3 34.06L73.67 44.4a37.6 37.6 0 0153.18 0l10.35-10.35a52.08 52.08 0 00-36.94-15.31A52.08 52.08 0 0063.3 34.07v-.01z" clip-rule="evenodd"/>
  <path fill="#8BD87C" fill-rule="evenodd" d="M126.84 44.4a37.6 37.6 0 010 53.2l10.35 10.34A52.06 52.06 0 00152.5 71a52.08 52.08 0 00-15.3-36.94L126.83 44.4z" clip-rule="evenodd"/>
  <path fill="#EEF2FE" fill-rule="evenodd" d="M126.84 97.6a37.6 37.6 0 10-53.18 0l-10.34 10.33a52.07 52.07 0 0036.93 15.32 52.08 52.08 0 0036.94-15.3l-10.35-10.36zm-34.89-3.92h16.6a3.9 3.9 0 110 7.8h-16.6a3.92 3.92 0 01-3.9-3.89 3.9 3.9 0 013.9-3.9z" clip-rule="evenodd"/>
  <path fill="#A0E4D4" fill-rule="evenodd" d="M108.55 93.68h-16.6a3.92 3.92 0 00-3.9 3.91 3.9 3.9 0 003.9 3.9h16.6a3.9 3.9 0 100-7.8z" clip-rule="evenodd"/>
  <path fill="#E9EDF7" fill-rule="evenodd" d="M100.25 27.68L105.08 71c.3 2.64-2.17 4.83-4.83 4.83s-5.11-2.2-4.83-4.83l4.83-43.32z" clip-rule="evenodd"/>
  <path fill="#1F3474" d="M144.45 26.8a62.1 62.1 0 00-44.2-18.3A62.31 62.31 0 0065.58 19a2.44 2.44 0 002.7 4.07 57.43 57.43 0 0131.97-9.68A57.68 57.68 0 01157.86 71a57.68 57.68 0 01-57.61 57.61A57.68 57.68 0 0142.64 71a57.77 57.77 0 0112.98-36.45 2.44 2.44 0 10-3.77-3.1A62.63 62.63 0 0037.75 71c0 16.7 6.5 32.39 18.3 44.2a62.09 62.09 0 0044.2 18.3c16.7 0 32.39-6.5 44.2-18.3a62.08 62.08 0 0018.3-44.2c0-16.7-6.5-32.39-18.3-44.2z"/>
  <path fill="#1F3474" d="M139 32.4l-.08-.07-.06-.05a54.73 54.73 0 00-59.55-11.83 54.32 54.32 0 00-17.73 11.9A54.32 54.32 0 0045.56 71c0 14.6 5.69 28.34 16.02 38.67a54.33 54.33 0 0038.67 16.02c14.6 0 28.34-5.69 38.67-16.02A54.33 54.33 0 00154.94 71c0-4.77-.63-9.55-1.86-14.16a2.45 2.45 0 10-4.72 1.27 49.8 49.8 0 01-11.23 46.32l-6.9-6.9a40.09 40.09 0 000-53.06l6.92-6.91a49.5 49.5 0 013.94 4.94 2.45 2.45 0 004.01-2.8 54.71 54.71 0 00-6.11-7.3zm-5.3 1.71l-6.92 6.9a39.87 39.87 0 00-23.69-9.93l-.42-3.67a2.44 2.44 0 00-4.85 0l-.4 3.67c-8.78.6-17.12 4.1-23.7 9.93l-6.9-6.9a49.61 49.61 0 0133.43-12.92c12.36.01 24.28 4.61 33.44 12.91v.01zM97.84 71.27l2.4-21.55 2.4 21.55c.06.55-.2.98-.46 1.25-.47.54-1.21.87-1.94.87s-1.48-.34-1.96-.87a1.63 1.63 0 01-.45-1.25h.01zm-34.49-33.7l6.9 6.9a40.09 40.09 0 000 53.06l-6.9 6.9A49.6 49.6 0 0150.44 71c0-12.85 4.9-24.6 12.92-33.43zm70.13 22l-2.82.75a2.44 2.44 0 001.26 4.71l2.82-.75c.85 4.44.85 9 0 13.44l-2.82-.75a2.44 2.44 0 10-1.26 4.71l2.82.75a34.9 34.9 0 01-6.7 11.64L124.7 92a2.44 2.44 0 00-3.45 3.44l3.86 3.87 8.57 8.57a49.61 49.61 0 01-33.43 12.92 49.61 49.61 0 01-33.43-12.92l12.43-12.44A2.44 2.44 0 0075.79 92l-2.06 2.07A34.9 34.9 0 0167 82.43l2.82-.75a2.44 2.44 0 10-1.26-4.71l-2.82.75c-.85-4.44-.85-9 0-13.44l2.82.75a2.44 2.44 0 101.26-4.71L67 59.57a34.89 34.89 0 016.7-11.64L75.8 50a2.43 2.43 0 003.46 0c.95-.95.95-2.5 0-3.45l-2.07-2.07a34.9 34.9 0 0111.64-6.72l.75 2.82a2.44 2.44 0 104.71-1.26l-.75-2.82c1.1-.21 2.22-.37 3.33-.48L93 70.72a6.43 6.43 0 001.66 5.05 7.61 7.61 0 005.59 2.5 7.62 7.62 0 005.59-2.5 6.43 6.43 0 001.66-5.04l-3.86-34.7c1.1.1 2.22.25 3.33.47l-.75 2.82a2.44 2.44 0 004.71 1.26l.75-2.82a34.89 34.89 0 0111.64 6.7l-2.07 2.09a2.45 2.45 0 00.77 4.02 2.43 2.43 0 002.68-.57l2.07-2.07a34.87 34.87 0 016.72 11.64z"/>
  <path fill="#1F3474" d="M108.55 91.23h-16.6a6.36 6.36 0 000 12.7h16.6a6.37 6.37 0 000-12.7zm0 7.82h-16.6a1.48 1.48 0 01-1.47-1.46c0-.8.68-1.48 1.48-1.48h16.59c.8 0 1.47.69 1.47 1.48 0 .8-.68 1.46-1.47 1.46zm.25 7.33H98.77a2.44 2.44 0 100 4.88h10.03a2.44 2.44 0 100-4.89zm-17.04 0h-.05a2.44 2.44 0 100 4.88h.05a2.44 2.44 0 100-4.89zM58.58 30.19c.61 0 1.22-.22 1.7-.68l.03-.03a2.44 2.44 0 00-3.41-3.5l-.04.03a2.43 2.43 0 001.7 4.18h.02zm85.86 17.84l.03.06a2.43 2.43 0 004.49-.42c.19-.62.13-1.29-.18-1.86l-.02-.06a2.45 2.45 0 10-4.32 2.27v.01z"/>
</svg>
