<svg xmlns="http://www.w3.org/2000/svg" width="174" height="164" fill="none" viewBox="0 0 174 164">
  <defs/>
  <rect width="100" height="100" x="34" y="12" fill="#DAE0EE" rx="20"/>
  <circle cx="134" cy="57" r="40" fill="#AAB7DC" fill-opacity=".45"/>
  <path fill="#FADF6B" d="M90.17 45.99c-25.3 0-45.8 20.6-45.8 46 0 25.42 20.5 46.02 45.8 46.02 25.3 0 45.8-20.6 45.8-46.01 0-25.41-20.5-46.01-45.8-46.01zm0 56.43A10.4 10.4 0 0179.8 92a10.4 10.4 0 0110.37-10.42A10.4 10.4 0 01100.54 92a10.4 10.4 0 01-10.37 10.42z"/>
  <path fill="#8BD87C" d="M90.17 72.78A19.18 19.18 0 0071.04 92a19.18 19.18 0 0019.13 19.22c10.57 0 19.14-8.6 19.14-19.22a19.18 19.18 0 00-19.14-19.22zm0 29.64A10.4 10.4 0 0179.8 92a10.4 10.4 0 0110.37-10.42A10.4 10.4 0 01100.54 92a10.4 10.4 0 01-10.37 10.42z"/>
  <path fill="#EEF2FE" d="M47.07 129.2A37.12 37.12 0 0084.1 92a37.13 37.13 0 00-37.04-37.21 37.13 37.13 0 00-37.05 37.2 37.12 37.12 0 0037.05 37.21z"/>
  <path fill="#1F3474" d="M44.14 97.77v-13.5c0-7.52-4.58-10.35-10.4-10.35-5.86 0-10.34 2.83-10.34 10.35v13.5c0 7.52 4.48 10.35 10.34 10.35 5.82 0 10.4-2.83 10.4-10.35zm-15.85 0v-13.5c0-4.08 1.99-5.99 5.45-5.99 3.42 0 5.5 1.9 5.5 5.99v13.5c0 4.08-2.08 5.98-5.5 5.98-3.46 0-5.45-1.9-5.45-5.98zM58.87 103.75c-5.13 0-6.23-3.66-7.9-3.66-1.15 0-2.12 1.53-2.12 2.64 0 2.33 4.2 5.48 10.2 5.48 6.1 0 10.54-3.25 10.54-9.88 0-12.34-15.01-9.24-15.01-16.1 0-2.93 2.4-4.23 5.77-4.23 3.93 0 5.13 1.77 6.37 1.77 1.39 0 2.04-1.72 2.04-2.65 0-2.55-5.4-3.34-8.41-3.34-4.94 0-10.67 2.04-10.67 8.91 0 11.14 15.01 7.93 15.01 16.15 0 3.34-2.5 4.91-5.82 4.91zM104.91 66.56a2.02 2.02 0 00-2.75.76c-.56.98-.22 2.22.75 2.77a24.46 24.46 0 0111.78 16.08 2.03 2.03 0 103.95-.86 28.52 28.52 0 00-13.73-18.75z"/>
  <path fill="#1F3474" d="M127.03 86.07A37.53 37.53 0 00104.6 57.4a2.03 2.03 0 00-1.56 3.75 33.62 33.62 0 0120 25.54 2.02 2.02 0 104-.63z"/>
  <path fill="#1F3474" d="M95.06 44.21v-6.9a5.31 5.31 0 00-5.3-5.31H5.3A5.31 5.31 0 000 37.32v109.36A5.31 5.31 0 005.3 152h84.46c2.92 0 5.3-2.39 5.3-5.32v-6.9C119.29 137.32 138 116.69 138 92c0-24.69-18.71-45.32-42.94-47.79zm-4.04 1.87V146.68c0 .7-.57 1.26-1.26 1.26H5.3c-.69 0-1.25-.57-1.25-1.26V37.32c0-.7.56-1.26 1.25-1.26h84.47c.7 0 1.26.57 1.26 1.26v8.76zm4.04 39.13A8.43 8.43 0 0198.52 92a8.43 8.43 0 01-3.46 6.79V85.2zm0 18.23a12.51 12.51 0 007.5-11.44c0-5-3.02-9.5-7.5-11.44v-5.04A17.14 17.14 0 01107.29 92a17.23 17.23 0 01-12.23 16.48v-5.04zm0 32.27v-23.03a21.17 21.17 0 0011.1-6.75 21.3 21.3 0 00-11.1-34.61V48.29c21.98 2.45 38.9 21.25 38.9 43.7 0 22.47-16.92 41.26-38.9 43.72z"/>
  <path fill="#1F3474" d="M84 95.4c-1.1-.16-2.13.61-2.29 1.72a34.94 34.94 0 01-9.88 19.75 34.95 34.95 0 01-49.53 0 34.95 34.95 0 01-9.88-19.75 2.02 2.02 0 10-4 .59 38.99 38.99 0 0011.02 22.03 38.85 38.85 0 0027.62 11.48c10 0 20.01-3.83 27.63-11.48A38.98 38.98 0 0085.7 97.71a2.03 2.03 0 00-1.7-2.3zM74.69 64.25a38.98 38.98 0 00-55.25 0A38.98 38.98 0 008.4 86.36a2.03 2.03 0 002 2.32c1 0 1.86-.72 2-1.74a34.94 34.94 0 019.9-19.82 34.95 34.95 0 0149.53 0 34.94 34.94 0 019.88 19.75 2.02 2.02 0 104-.59A38.98 38.98 0 0074.7 64.25z"/>
</svg>
