<svg xmlns="http://www.w3.org/2000/svg" width="164" height="164" fill="none" viewBox="0 0 164 164">
  <defs/>
  <rect width="100" height="100" x="16" y="24.5" fill="#DAE0EE" rx="20"/>
  <circle cx="108" cy="107.5" r="40" fill="#AAB7DC" fill-opacity=".45"/>
  <path fill="#8BD87C" d="M124.88 87.28a46.88 46.88 0 11-93.76 0 46.88 46.88 0 0193.76 0z"/>
  <path fill="#FAFAFF" d="M110.81 87.28A32.85 32.85 0 0178 120.09a32.85 32.85 0 01-32.81-32.81A32.85 32.85 0 0178 54.46a32.85 32.85 0 0132.81 32.82z"/>
  <path fill="#FADF6B" d="M92.07 23.54v6.08H63.93v-6.08a4.7 4.7 0 014.69-4.7h18.76a4.7 4.7 0 014.7 4.7z"/>
  <path fill="#fff" d="M42.84 43.15l6.8 6.8c-2.5 1.9-4.8 4.04-6.87 6.4l-6.55-6.58a4.69 4.69 0 016.62-6.63v.01zm28.13-13.53h14.07v11.32H70.96V29.62h.01zm48.81 13.53a4.7 4.7 0 010 6.63l-6.56 6.57a47.1 47.1 0 00-6.87-6.4l6.81-6.8a4.7 4.7 0 016.62 0z"/>
  <path fill="#D39CF1" d="M78 82.6a4.69 4.69 0 110 9.38 4.69 4.69 0 010-9.38z"/>
  <path fill="#1F3474" d="M116.4 56.48l5.04-5.04a7.04 7.04 0 00-9.94-9.95l-5.39 5.4a49.24 49.24 0 00-18.74-7.93v-7h4.7c1.29 0 2.34-1.04 2.34-2.34v-6.08a7.05 7.05 0 00-7.04-7.04H68.63a7.04 7.04 0 00-7.04 7.04v6.08c0 1.3 1.05 2.35 2.35 2.35h4.69v6.98a49.22 49.22 0 00-18.74 7.93l-5.4-5.39a7.04 7.04 0 00-9.93 9.95l5.04 5.04a49.17 49.17 0 003.61 65.59A49.27 49.27 0 0078 136.5a49.27 49.27 0 0049.22-49.22 49.18 49.18 0 00-10.82-30.8zm-1.58-11.67a2.35 2.35 0 013.3 3.33l-4.84 4.84a52.98 52.98 0 00-3.42-3.2l4.96-4.96v-.01zM66.27 23.54c0-1.3 1.06-2.35 2.36-2.35h18.74c1.3 0 2.35 1.05 2.35 2.35v3.74H66.28v-3.74zm16.42 8.43v6.32c-3.12-.3-6.26-.3-9.38 0v-6.32h9.38zM37.88 44.8c.9-.92 2.4-.92 3.3 0l4.97 4.95a49.88 49.88 0 00-3.43 3.2l-4.84-4.83a2.35 2.35 0 010-3.32zm40.12 87a44.58 44.58 0 01-39.9-64.32 44.48 44.48 0 0112.97-15.67 44.49 44.49 0 0160.39 6.07 44.47 44.47 0 01-1.99 60.86A44.58 44.58 0 0178 131.81z"/>
  <path fill="#1F3474" d="M78 94.31a7.04 7.04 0 002.35-13.65V63.85a2.35 2.35 0 10-4.7 0v16.8A7.05 7.05 0 0078 94.33v-.02zm0-9.38a2.35 2.35 0 110 4.7 2.35 2.35 0 010-4.7z"/>
  <path fill="#1F3474" d="M102.97 62.56l-.1-.13a35.28 35.28 0 00-14.92-8.87 2.35 2.35 0 10-1.33 4.5 30.55 30.55 0 0111.2 6.1l-1.6 1.57a2.35 2.35 0 003.33 3.32l1.58-1.58a30.19 30.19 0 017.25 17.47h-2.26a2.35 2.35 0 000 4.7h2.26a30.18 30.18 0 01-7.25 17.45l-1.58-1.58a2.34 2.34 0 00-3.32 3.31l1.58 1.59a30.18 30.18 0 01-17.46 7.25v-2.26a2.35 2.35 0 00-4.7 0v2.26a30.18 30.18 0 01-17.46-7.25l1.58-1.59a2.35 2.35 0 10-3.32-3.31l-1.58 1.59a30.18 30.18 0 01-7.25-17.48h2.26a2.35 2.35 0 000-4.69h-2.26a30.19 30.19 0 017.25-17.46l1.58 1.58a2.34 2.34 0 003.32 0c.92-.92.92-2.4 0-3.32l-1.58-1.58c3.27-2.8 7.09-4.89 11.2-6.1a2.35 2.35 0 00-1.33-4.5 35.29 35.29 0 00-22.55 20.27 34.92 34.92 0 00-2.67 13.46 34.9 34.9 0 0010.43 24.97A34.9 34.9 0 0078 122.43a34.9 34.9 0 0024.85-10.31 34.9 34.9 0 0010.31-24.85 34.92 34.92 0 00-10.19-24.72z"/>
</svg>
