<svg xmlns="http://www.w3.org/2000/svg" width="527" height="380" viewBox="0 0 527 380" fill="none"><defs><radialGradient id="Gradient-0" cx="0" cy="0" r="125" fx="0" fy="0" gradientUnits="userSpaceOnUse"><stop offset="0" stop-color="#fff576" stop-opacity="0"/><stop offset=".5" stop-color="#fff576" stop-opacity="0"/><stop offset=".8" stop-color="#fff576"/><stop offset="1" stop-color="#fff" stop-opacity="0"/></radialGradient><linearGradient id="Gradient-1" x1="173.6" y1="176.8" x2="367.6" y2="176.8" gradientUnits="userSpaceOnUse"><stop offset="0" stop-color="#25054d"/><stop offset=".1" stop-color="#260550"/><stop offset=".2" stop-color="#2b0759"/><stop offset=".3" stop-color="#330a67"/><stop offset=".3" stop-color="#3e0e7d"/><stop offset=".3" stop-color="#45108a"/><stop offset=".4" stop-color="#4e1294"/><stop offset=".4" stop-color="#6518af"/><stop offset=".5" stop-color="#7c1dc9"/><stop offset=".5" stop-color="#6b19b5"/><stop offset=".6" stop-color="#45108a"/><stop offset=".7" stop-color="#3c0d79"/><stop offset=".8" stop-color="#2f0961"/><stop offset=".9" stop-color="#280652"/><stop offset="1" stop-color="#25054d"/></linearGradient><linearGradient id="Gradient-2" x1="342.6" y1="-14.2" x2="262.8" y2="191.9" gradientUnits="userSpaceOnUse"><stop offset="0" stop-color="#25054d"/><stop offset="1" stop-color="#45108a"/></linearGradient><linearGradient id="Gradient-3" x1="178" y1="168.6" x2="363.1" y2="168.6" gradientUnits="userSpaceOnUse"><stop offset="0" stop-color="#b086cc"/><stop offset=".2" stop-color="#c1a1d5"/><stop offset=".3" stop-color="#c8abda"/><stop offset=".4" stop-color="#dbc6e7"/><stop offset=".5" stop-color="#ebdef3"/><stop offset=".6" stop-color="#e4d2ee"/><stop offset=".7" stop-color="#d6bce6"/><stop offset=".8" stop-color="#cfb2e2"/><stop offset=".9" stop-color="#be9ad6"/><stop offset=".9" stop-color="#b48bcf"/><stop offset="1" stop-color="#b086cc"/></linearGradient><linearGradient id="Gradient-4" x1="357.6" y1="180.4" x2="371" y2="202" gradientUnits="userSpaceOnUse"><stop offset="0" stop-color="#9874c6"/><stop offset=".4" stop-color="#c1a1d5"/><stop offset=".4" stop-color="#c8abda"/><stop offset=".4" stop-color="#dac6e6"/><stop offset=".5" stop-color="#f7f2f9"/><stop offset=".5" stop-color="#fff"/><stop offset=".5" stop-color="#f1e9f7"/><stop offset=".5" stop-color="#e0ccec"/><stop offset=".6" stop-color="#d5bae5"/><stop offset=".6" stop-color="#d1b4e3"/><stop offset=".7" stop-color="#b395d6"/><stop offset=".7" stop-color="#9c7dcb"/><stop offset=".8" stop-color="#8e6ec5"/><stop offset=".8" stop-color="#8969c3"/><stop offset=".9" stop-color="#9471c6"/><stop offset="1" stop-color="#b086cc"/></linearGradient><linearGradient id="Gradient-5" x1="45168.7" y1="60629.7" x2="85074.1" y2="60629.7" gradientUnits="userSpaceOnUse"><stop offset="0" stop-color="#25054d"/><stop offset=".1" stop-color="#260550"/><stop offset=".2" stop-color="#2b0759"/><stop offset=".3" stop-color="#330a67"/><stop offset=".3" stop-color="#3e0e7d"/><stop offset=".3" stop-color="#45108a"/><stop offset=".4" stop-color="#4e1294"/><stop offset=".4" stop-color="#6518af"/><stop offset=".5" stop-color="#7c1dc9"/><stop offset=".5" stop-color="#6b19b5"/><stop offset=".6" stop-color="#45108a"/><stop offset=".7" stop-color="#3c0d79"/><stop offset=".8" stop-color="#2f0961"/><stop offset=".9" stop-color="#280652"/><stop offset="1" stop-color="#25054d"/></linearGradient><linearGradient id="Gradient-6" x1="79951.7" y1="34605.4" x2="73957.2" y2="61410.6" gradientUnits="userSpaceOnUse"><stop offset="0" stop-color="#263b70"/><stop offset="1" stop-color="#45108a"/></linearGradient><linearGradient id="Gradient-7" x1="55067.1" y1="37158.9" x2="51469.7" y2="53242.6" gradientUnits="userSpaceOnUse"><stop offset="0" stop-color="#1b2a4f"/><stop offset="1" stop-color="#45108a"/></linearGradient><radialGradient id="Gradient-8" cx="0" cy="0" r="1" fx="0" fy="0" gradientUnits="userSpaceOnUse" gradientTransform="matrix(71.5 0 0 71.5 270.4 182.5)"><stop offset="0" stop-color="#fff"/><stop offset="1" stop-color="#000"/></radialGradient><clipPath id="ClipPath-1"><path d="M216 280.6c.2 .1 .5 .2 .7 .2c.3 0 .5-0.1 .7-0.2l17.8-10.4c.2-0.1 .4-0.3 .5-0.5c.1-0.2 .2-0.5 .2-0.7c0-0.3-0.1-0.5-0.2-0.7c-0.1-0.2-0.3-0.4-0.5-0.6l-35.3-20.3l23.1-13c1.1 .4 2.3 .6 3.5 .6c1.7 0 3.4-0.4 4.9-1.2c.7-0.3 1.3-0.8 1.8-1.4c.4-0.7 .6-1.5 .6-2.2c0-0.8-0.2-1.6-0.6-2.2c-0.5-0.7-1.1-1.2-1.8-1.5c-1.5-0.7-3.2-1.1-4.9-1.1c-1.7 0-3.3 .4-4.8 1.1c-0.7 .4-1.3 .9-1.7 1.5c-0.5 .7-0.7 1.4-0.8 2.2c0 .9 .4 1.8 1 2.5l-23.8 13.5c-0.2 .1-0.4 .3-0.5 .5c-0.2 .2-0.2 .4-0.2 .7c0 .2 0 .5 .2 .7c.1 .2 .3 .4 .5 .5l35.3 20.4l-15 8.7l-29.8-17.6c.6-0.7 1-1.5 1-2.4c-0.1-0.8-0.3-1.5-0.7-2.1c-0.5-0.7-1.1-1.2-1.8-1.5c-1.5-0.8-3.1-1.2-4.8-1.2c-1.7 0-3.4 .4-4.9 1.2c-0.7 .3-1.2 .8-1.7 1.4c-0.4 .7-0.6 1.4-0.7 2.2c.1 .7 .3 1.5 .7 2.1c.5 .7 1.1 1.2 1.8 1.5c1.5 .8 3.1 1.2 4.8 1.2c1.3 0 2.6-0.2 3.8-0.7l31.6 18.8Zm7.1-51.6c1.1-0.5 2.3-0.8 3.5-0.8c1.1 0 2.3 .3 3.4 .8c.6 .3 1 .8 1 1.2c0 .3-0.4 .8-1 1.1c-1.1 .6-2.3 .9-3.5 .8c-1.2 0-2.4-0.2-3.4-0.8c-0.7-0.3-1-0.7-1-1.1c0-0.4 .4-0.8 1-1.2Zm-46 29.9c-0.6-0.4-1-0.8-1-1.2c0-0.4 .4-0.8 1-1.2c1.1-0.5 2.3-0.8 3.4-0.8c1.2 0 2.4 .3 3.5 .9c.6 .3 1 .8 1 1.1c0 .4-0.3 .8-1 1.2c-1 .5-2.2 .8-3.4 .8c-1.2 0-2.4-0.3-3.5-0.8Zm79.1 76.6l-50.7-30.3l58-32c.3-0.1 .4-0.3 .6-0.5c.1-0.2 .1-0.5 .1-0.7c0-0.3 0-0.5-0.1-0.7c-0.2-0.3-0.3-0.4-0.6-0.6l-37.8-22.3l11-6.2c1 .3 2.1 .5 3.2 .5c1.7 0 3.4-0.4 4.8-1.2c.8-0.3 1.4-0.8 1.8-1.4c.4-0.7 .7-1.4 .7-2.2c0-0.8-0.3-1.6-0.7-2.2c-0.4-0.7-1-1.2-1.8-1.4c-1.5-0.8-3.1-1.2-4.8-1.2c-1.7 0-3.4 .4-4.9 1.2c-0.7 .3-1.3 .8-1.7 1.4c-0.4 .7-0.7 1.4-0.7 2.2c0 .5 .1 1 .3 1.5c.2 .4 .5 .8 .9 1.2l-11.6 6.6c-0.2 .1-0.4 .3-0.5 .5c-0.2 .2-0.2 .5-0.2 .7c0 .3 0 .5 .2 .7c.1 .2 .3 .4 .5 .5l37.8 22.3l-58 32c-0.2 .1-0.4 .3-0.6 .5c-0.1 .2-0.2 .5-0.2 .7c0 .2 .1 .5 .2 .7c.1 .2 .3 .4 .5 .5l50.8 30.4l-43.4 23.8l-20.4-12.1l-1.4 2.4l20.9 12.5c.3 .2 .5 .2 .8 .2c.2 0 .4 0 .7-0.2l46.2-25.3c.3-0.1 .4-0.3 .6-0.5c.1-0.2 .2-0.4 .2-0.7c0-0.2-0.1-0.5-0.2-0.7c-0.1-0.2-0.3-0.4-0.5-0.5v-0.1Zm-19.7-98.8c1-0.5 2.2-0.8 3.4-0.8c1.2 0 2.4 .3 3.5 .8c.6 .4 1 .8 1 1.2c0 .3-0.4 .8-1.1 1.2c-1.1 .5-2.2 .7-3.4 .7c-1.2 0-2.4-0.2-3.5-0.7c-0.6-0.4-1-0.8-1-1.2c0-0.4 .4-0.8 1.1-1.2Zm135.9 40l-63.6-37c.3-0.5 .5-1.2 .5-1.8c-0.1-0.8-0.3-1.5-0.8-2.1c-0.4-0.7-1-1.2-1.7-1.5c-1.5-0.8-3.1-1.2-4.8-1.2c-1.7 0-3.4 .4-4.9 1.2c-0.7 .3-1.3 .8-1.8 1.4c-0.4 .7-0.6 1.4-0.6 2.2c0 .8 .2 1.5 .6 2.2c.5 .6 1.1 1.1 1.8 1.4c1.5 .8 3.2 1.3 4.9 1.2c1.6 0 3.1-0.3 4.5-1l62.3 36.2l-70.5 38.4c-0.2 .2-0.4 .3-0.5 .5c-0.1 .3-0.2 .5-0.2 .7c0 .3 0 .5 .1 .7c.2 .3 .3 .4 .5 .6l25 15.8l-52 29.7c-0.2 .1-0.4 .3-0.5 .5c-0.1 .2-0.2 .5-0.2 .7c0 .3 .1 .5 .2 .7c.1 .2 .3 .4 .5 .6l23.8 13.1c.2 .1 .4 .2 .7 .2c.2 0 .5-0.1 .7-0.2l52.8-30.5l-1.4-2.4l-52.1 30l-20.9-11.6l51.8-29.5c.3-0.2 .4-0.3 .6-0.6c.1-0.2 .2-0.4 .2-0.6c0-0.3-0.1-0.5-0.2-0.7c-0.1-0.3-0.3-0.4-0.5-0.6l-24.9-15.8l70.6-38.4c.2-0.1 .4-0.3 .5-0.5c.1-0.3 .2-0.5 .2-0.7c0-0.3-0.1-0.5-0.2-0.7c-0.1-0.3-0.3-0.4-0.5-0.6Zm-73.8-37.6c-0.7-0.4-1.1-0.8-1.1-1.2c0-0.4 .4-0.8 1-1.2c1.1-0.5 2.3-0.8 3.5-0.7c1.2-0.1 2.4 .2 3.4 .8c.7 .3 1.1 .8 1.1 1.1c0 .4-0.4 .8-1 1.2c-1.1 .5-2.3 .8-3.5 .8c-1.2-0.1-2.4-0.3-3.4-0.8Zm21.6-12.6c-1.5-0.7-3.2-1.1-4.9-1.1c-1.7 0-3.3 .4-4.8 1.1c-0.8 .3-1.4 .8-1.8 1.5c-0.4 .6-0.7 1.4-0.7 2.2c0 .7 .3 1.5 .7 2.1c.4 .7 1 1.2 1.8 1.5c1.4 .7 3.1 1.2 4.7 1.2c1.7 0 3.3-0.4 4.8-1.1l-0.2 .3l21.7 13c-0.4 .6-0.6 1.2-0.6 1.9c.1 .8 .3 1.5 .8 2.2c.4 .6 1 1.1 1.7 1.4c1.5 .8 3.2 1.2 4.8 1.2c1.7 0 3.4-0.4 4.9-1.2c.7-0.2 1.3-0.8 1.8-1.4c.4-0.6 .6-1.4 .6-2.2c0-0.8-0.2-1.5-0.6-2.2c-0.5-0.6-1.1-1.1-1.8-1.4c-1.5-0.8-3.2-1.2-4.9-1.2c-1.5 0-3 .3-4.4 .9l-21.8-13.1c.4-0.6 .6-1.3 .6-2c0-0.7-0.3-1.5-0.7-2.1c-0.4-0.6-1-1.1-1.7-1.5Zm-1.4 4.8c-1.1 .5-2.3 .8-3.4 .8c-1.2 0-2.4-0.3-3.5-0.8c-0.6-0.3-1-0.8-1-1.2c0-0.3 .4-0.8 1-1.1c1-0.6 2.2-0.8 3.4-0.8c1.2 0 2.4 .2 3.5 .8c.6 .4 1 .8 1 1.2c0 .3-0.4 .8-1 1.1Zm29.4 15.8c1.2 0 2.4 .3 3.5 .9c.6 .3 1 .8 1 1.1c0 .4-0.4 .8-1 1.2c-1.1 .5-2.2 .8-3.4 .8c-1.2 0-2.4-0.3-3.5-0.8c-0.6-0.4-1-0.8-1-1.2c0-0.4 .4-0.8 1-1.1c1.1-0.6 2.2-0.9 3.4-0.9Zm90.3-7.1c-1.5-0.8-3.2-1.2-4.9-1.2c-1.7 0-3.3 .4-4.8 1.2c-0.7 .3-1.4 .8-1.8 1.4c-0.4 .6-0.7 1.4-0.7 2.2c0 .8 .3 1.5 .7 2.2c.4 .6 1.1 1.1 1.8 1.4c1.5 .8 3.2 1.2 4.9 1.2c1.6 0 3.3-0.4 4.8-1.2c.7-0.3 1.3-0.8 1.7-1.5c.4-0.6 .7-1.3 .7-2.1c0-0.5-0.1-1-0.3-1.5l43.1-24.5l37.1 20.8l-59.3 34.3c-1.4-0.8-3-1.2-4.7-1.1c-1.7-0.1-3.3 .3-4.8 1.1c-0.7 .3-1.3 .8-1.8 1.5c-0.4 .6-0.6 1.4-0.6 2.2c0 .7 .2 1.5 .6 2.1c.5 .7 1.1 1.2 1.8 1.5c1.5 .8 3.2 1.2 4.8 1.2c1.7 0 3.4-0.4 4.9-1.2c.7-0.3 1.3-0.9 1.7-1.5c.4-0.6 .7-1.4 .7-2.1c0-0.6-0.1-1.2-0.4-1.7l62.8-36.4l-42.8-24l-45.1 25.7h-0.1Zm22.8 36.4c0 .4-0.3 .8-1 1.2c-1 .5-2.2 .8-3.4 .8c-1.2 0-2.4-0.3-3.4-0.8c-0.7-0.4-1.1-0.8-1.1-1.2c0-0.4 .4-0.8 1-1.1c1.1-0.6 2.3-0.9 3.5-0.8c1.2-0.1 2.3 .2 3.4 .8c.2 .1 .4 .2 .5 .3l.4 .6h.1c0 0 0 .1 0 .2Zm-24.2-31.7c-1.1 .5-2.2 .7-3.4 .7c-1.2 0-2.4-0.2-3.5-0.7c-0.6-0.4-1-0.8-1-1.2c0-0.4 .4-0.8 1-1.2c1.1-0.5 2.2-0.8 3.4-0.8c1.2 0 2.4 .3 3.5 .8c.6 .4 1 .8 1 1.2c0 .4-0.4 .8-1 1.2Zm-135.2 22.7l-25.2-15c.5-0.6 .7-1.3 .7-2.1c0-0.7-0.3-1.5-0.7-2.1c-0.4-0.7-1-1.2-1.7-1.5c-1.5-0.8-3.2-1.2-4.9-1.2c-1.6 0-3.3 .4-4.8 1.2c-0.7 .3-1.3 .8-1.8 1.4c-0.4 .7-0.6 1.4-0.6 2.2c0 .8 .2 1.5 .6 2.2c.5 .6 1.1 1.1 1.8 1.4c1.5 .8 3.2 1.3 4.9 1.2c1.4 0 2.8-0.2 4.1-0.8l24 14.3l-64.1 36.4c-0.2 .1-0.4 .3-0.6 .5c-0.1 .3-0.1 .5-0.1 .8c-0.1 .2 0 .5 .1 .7c.2 .2 .3 .4 .6 .5l45.5 26.1c-0.5 .6-0.8 1.4-0.8 2.2c0 .7 .3 1.5 .7 2.1c.5 .7 1.1 1.2 1.7 1.5c1.5 .8 3.2 1.2 4.9 1.2c1.7 0 3.4-0.4 4.9-1.2c.7-0.3 1.3-0.8 1.7-1.4c.5-0.7 .7-1.4 .7-2.2c0-0.8-0.2-1.6-0.7-2.2c-0.4-0.6-1-1.2-1.7-1.4c-1.5-0.9-3.2-1.3-4.9-1.2c-1.4 0-2.8 .2-4 .7l-44.5-25.4l64.2-36.4c.2-0.1 .4-0.3 .5-0.5c.1-0.2 .2-0.5 .2-0.7c0-0.3-0.1-0.5-0.2-0.7c-0.1-0.2-0.3-0.4-0.5-0.5v-0.1Zm-35.2-15.9c-0.6-0.4-1-0.8-1-1.2c0-0.4 .4-0.8 1-1.2c1.1-0.5 2.2-0.8 3.4-0.8c1.2 0 2.4 .3 3.5 .8c.6 .4 1 .9 1 1.2c0 .4-0.4 .8-1 1.2c-1.1 .5-2.2 .7-3.4 .7c-1.2 0-2.4-0.2-3.5-0.7Zm22.9 83.1c.7 .4 1 .8 1 1.2c0 .4-0.3 .8-1 1.1c-1 .5-2.2 .8-3.4 .8c-1.2 0-2.4-0.3-3.4-0.8c-0.7-0.3-1.1-0.8-1.1-1.2c0-0.3 .4-0.7 1-1.1c1.1-0.6 2.3-0.8 3.5-0.8c1.2 0 2.3 .2 3.4 .8Zm-227.2-90c1.5 .7 3.2 1.1 4.8 1.1c1.7 0 3.4-0.4 4.9-1.1c.7-0.4 1.3-0.9 1.7-1.5c.4-0.6 .7-1.4 .7-2.1c0-0.6-0.1-1.1-0.4-1.6c-0.2-0.5-0.5-0.9-0.9-1.3l32-20.8l46 27.2l45.3-25.5c1.1 .3 2.2 .5 3.3 .5c1.7 0 3.4-0.4 4.9-1.2c.7-0.3 1.3-0.8 1.7-1.5c.5-0.6 .7-1.4 .7-2.2c0-0.7-0.2-1.5-0.7-2.1c-0.4-0.7-1-1.2-1.7-1.5c-1.5-0.7-3.2-1.2-4.9-1.2c-1.7 0-3.3 .5-4.8 1.2c-0.7 .4-1.3 .9-1.8 1.5c-0.4 .6-0.6 1.4-0.7 2.2c0 .5 .1 .9 .3 1.4c.2 .5 .5 .9 .9 1.2l-42.5 24l-46-27.3l-34.9 22.6c-1-0.3-2-0.4-3.1-0.4c-1.7-0.1-3.3 .3-4.8 1.1c-0.7 .3-1.4 .8-1.8 1.5c-0.4 .6-0.7 1.4-0.7 2.2c0 .7 .3 1.5 .7 2.1c.4 .7 1.1 1.2 1.8 1.5Zm134-31c1.1-0.6 2.3-0.9 3.5-0.9c1.1 0 2.3 .3 3.4 .8c.6 .4 1 .8 1 1.2c0 .4-0.4 .8-1.1 1.2c-1 .5-2.2 .8-3.4 .8c-1.2 0-2.4-0.3-3.4-0.8c-0.7-0.4-1-0.8-1-1.2c0-0.3 .4-0.8 1-1.1Zm-132.6 26.2c1-0.6 2.2-0.8 3.4-0.8c1.2 0 2.4 .2 3.5 .8c.6 .4 1 .8 1 1.2c0 .3-0.4 .8-1 1.1c-1.1 .5-2.3 .8-3.5 .8c-1.1 0-2.3-0.3-3.4-0.8c-0.6-0.3-1-0.8-1-1.1c0-0.4 .3-0.9 1-1.2Zm187.4-191.3c.1 .8 .3 1.5 .8 2.2c.4 .6 1 1.1 1.7 1.5c1.5 .7 3.1 1.2 4.8 1.2c1.7 0 3.4-0.5 4.9-1.2c.7-0.3 1.3-0.8 1.7-1.5c.5-0.6 .7-1.4 .7-2.2c0-0.7-0.2-1.5-0.7-2.1c-0.4-0.7-1-1.2-1.7-1.5c-1.5-0.7-3.2-1.2-4.8-1.2c-1.7 0-3.4 .4-4.8 1.2l-38.9-21.4l33.5-20.2l75.1 41.5l-29.8 18.6l-0.2-0.1c-1.5-0.8-3.2-1.2-4.9-1.2c-1.7 0-3.3 .4-4.8 1.2c-0.8 .2-1.4 .8-1.8 1.4c-0.4 .6-0.7 1.4-0.7 2.2c0 .8 .3 1.5 .7 2.2c.4 .6 1 1.1 1.8 1.4c1.4 .8 3.1 1.2 4.8 1.2c1.7 0 3.4-0.4 4.9-1.2c.7-0.3 1.2-0.8 1.7-1.5c.4-0.6 .6-1.4 .7-2.1c0-0.5-0.1-1-0.3-1.4l33.5-20.9l-80.8-44.6l-39.1 23.6l42.4 23.4c-0.3 .4-0.4 1-0.4 1.5Zm40.9 19.6c-1.1 .5-2.3 .7-3.5 .7c-1.2 0-2.3-0.2-3.4-0.7c-0.6-0.4-1-0.9-1-1.2c0-0.4 .3-0.8 1-1.2c1-0.5 2.2-0.8 3.4-0.8c1.2 0 2.4 .3 3.5 .8c.6 .4 1 .8 1 1.2c0 .4-0.4 .8-1 1.2Zm-30.2-20.7c.6 .4 1 .8 1 1.2c0 .4-0.3 .8-1 1.2c-1 .5-2.2 .7-3.4 .7c-1.2 0-2.4-0.2-3.5-0.7c-0.6-0.4-1-0.9-1-1.2c0-0.1 0-0.2 0-0.2l.2 .1l.5-0.9c.1-0.1 .2-0.1 .3-0.2c1-0.5 2.2-0.8 3.4-0.8c1.2 0 2.4 .3 3.5 .8Zm88.2 32.9c-0.7 .3-1.4 .8-1.8 1.4c-0.4 .7-0.7 1.4-0.7 2.2c0 .8 .3 1.6 .7 2.2c.4 .6 1.1 1.2 1.8 1.4c1.5 .9 3.2 1.3 4.9 1.2c1.3 0 2.7-0.2 3.9-0.7l21.2 12.5l38.5-23.4c1.5 .8 3.2 1.2 4.9 1.2c1.7 0 3.3-0.4 4.8-1.2c.8-0.3 1.4-0.8 1.8-1.4c.4-0.7 .7-1.4 .7-2.2c0-0.8-0.3-1.5-0.7-2.2c-0.4-0.6-1-1.1-1.8-1.4c-1.5-0.8-3.1-1.2-4.8-1.2c-1.7 0-3.4 .4-4.9 1.2c-0.7 .3-1.2 .8-1.7 1.5c-0.4 .6-0.6 1.3-0.7 2.1c0 .5 .1 1.1 .4 1.5l-36.6 22.1l-18.6-11c.5-0.6 .8-1.4 .8-2.2c-0.1-0.7-0.3-1.5-0.7-2.1c-0.5-0.7-1.1-1.2-1.7-1.5c-1.5-0.8-3.2-1.2-4.9-1.2c-1.7 0-3.4 .4-4.8 1.2Zm70-7.9c1-0.6 2.2-0.9 3.4-0.8c1.2-0.1 2.4 .2 3.5 .8c.6 .4 1 .8 1 1.2c0 .3-0.4 .8-1 1.1c-1.1 .5-2.3 .8-3.4 .8c-1.2 0-2.4-0.3-3.5-0.8c-0.6-0.3-1-0.8-1-1.2c0-0.3 .4-0.8 1-1.1Zm-60.7 11.6c0 .2-0.2 .5-0.4 .7l-0.1 .1c-0.1 .1-0.3 .2-0.5 .3c-1 .5-2.2 .8-3.4 .8c-1.2 0-2.4-0.3-3.5-0.8c-0.6-0.3-1-0.8-1-1.2c0-0.3 .4-0.7 1-1.1c1.1-0.5 2.3-0.8 3.5-0.8c1.2 0 2.3 .3 3.4 .8c.6 .3 1 .8 1 1.2Zm-24.3 140.7c.6-0.6 .9-1.4 .9-2.3c-0.1-0.7-0.3-1.5-0.7-2.1c-0.5-0.7-1.1-1.2-1.8-1.5c-1.5-0.8-3.1-1.2-4.8-1.2c-1.7 0-3.4 .4-4.9 1.2c-0.7 .3-1.3 .8-1.7 1.4c-0.5 .7-0.7 1.4-0.7 2.2c0 .8 .2 1.6 .7 2.2c.4 .6 1 1.1 1.7 1.4c1.5 .9 3.2 1.3 4.9 1.2c1.5 0 2.9-0.3 4.3-0.9l-0.2 .3l141.4 80.1l-11.5 7.1c-1.1-0.4-2.3-0.6-3.4-0.6c-1.7 0-3.4 .4-4.8 1.3c-0.7 .3-1.3 .8-1.7 1.4c-0.5 .7-0.7 1.4-0.8 2.2c.1 .7 .3 1.5 .8 2.1c.4 .6 1 1.2 1.7 1.5c1.5 .8 3.2 1.2 4.9 1.2c1.6 0 3.3-0.4 4.8-1.2c.7-0.3 1.3-0.8 1.7-1.5c.4-0.6 .7-1.3 .7-2.1c0-0.5-0.1-1-0.3-1.5c-0.2-0.4-0.5-0.8-0.9-1.2l14.3-8.7l-144.6-82Zm-2.9-1.1c-1.1 .5-2.3 .8-3.5 .8c-1.2 0-2.4-0.3-3.4-0.8c-0.7-0.4-1.1-0.8-1.1-1.2c0-0.4 .4-0.8 1-1.2c1.1-0.5 2.3-0.8 3.5-0.8c1.2 0 2.4 .3 3.4 .9c.7 .3 1.1 .8 1.1 1.1c0 .4-0.4 .8-1 1.2Zm131.6 94.5c0 .4-0.4 .8-1 1.2c-1.1 .5-2.3 .7-3.4 .7c-1.2 0-2.4-0.2-3.5-0.7c-0.6-0.4-1-0.9-1-1.2c0-0.4 .4-0.8 1-1.2c1-0.5 2.2-0.8 3.4-0.8c1.1 0 2.2 .2 3.3 .7l.1 .3l.2-0.1c.6 .3 .9 .7 .9 1.1Zm-369.6-125.9l60.7 35.2l27.9-16.3c1.2 .4 2.4 .6 3.7 .6c1.7 .1 3.3-0.3 4.8-1.2c.8-0.3 1.4-0.8 1.8-1.4c.4-0.6 .7-1.4 .7-2.2c0-0.8-0.3-1.5-0.7-2.2c-0.4-0.6-1-1.1-1.8-1.4c-1.5-0.8-3.1-1.2-4.8-1.2c-1.7 0-3.4 .4-4.9 1.2c-0.7 .3-1.3 .8-1.7 1.5c-0.4 .6-0.7 1.4-0.7 2.1c0 .9 .3 1.8 .9 2.5l-25.3 14.7l-59.2-34.4l-1.4 2.5Zm88.9 13.6c1-0.6 2.2-0.9 3.4-0.8c1.2-0.1 2.4 .2 3.5 .7c.6 .4 1 .8 1 1.2c0 .4-0.4 .8-1.1 1.2c-1 .5-2.2 .8-3.4 .8c-1.2 0-2.4-0.2-3.5-0.8c-0.6-0.4-1-0.8-1-1.2c0-0.3 .4-0.8 1-1.1h.1Zm-112.1 60.6l.7 .5l26.6-17.3c1.4 .6 2.8 .9 4.3 .9c1.6 0 3.3-0.4 4.8-1.2c.7-0.3 1.3-0.8 1.8-1.4c.4-0.7 .6-1.4 .6-2.2c0-0.8-0.2-1.5-0.6-2.2c-0.5-0.6-1.1-1.1-1.8-1.4c-1.5-0.8-3.2-1.2-4.9-1.2c-1.7 0-3.3 .4-4.8 1.2c-0.7 .3-1.3 .8-1.7 1.4c-0.4 .7-0.7 1.4-0.7 2.2c0 .7 .2 1.5 .7 2.1l-24.4 15.7l-57.2-33.2c.1-0.4 .2-0.8 .2-1.2c-0.1-0.8-0.3-1.5-0.8-2.1c-0.4-0.7-1-1.2-1.7-1.5c-1.5-0.8-3.2-1.2-4.9-1.2c-1.6 0-3.3 .4-4.8 1.2c-0.7 .3-1.3 .8-1.7 1.4c-0.4 .7-0.7 1.4-0.7 2.2c0 .7 .3 1.5 .7 2.1c.5 .7 1 1.2 1.7 1.5c1.5 .8 3.2 1.2 4.9 1.2c1.7 0 3.4-0.4 4.9-1.2l.4-0.2l58.4 33.9Zm28.1-21.9c1-0.5 2.2-0.8 3.4-0.8c1.2 0 2.4 .3 3.5 .8c.6 .4 1 .8 1 1.2c0 .4-0.4 .8-1 1.1c-1.1 .5-2.3 .8-3.5 .8c-1.2 0-2.3-0.3-3.4-0.8c-0.7-0.3-1-0.8-1-1.1c0-0.4 .3-0.8 1-1.2Zm-95.3-14.2c-0.6-0.4-1-0.9-1-1.2c0-0.4 .4-0.8 1-1.2c1.1-0.5 2.3-0.8 3.5-0.8c1.1 0 2.3 .3 3.4 .8c.6 .4 1 .8 1 1.2c0 .4-0.4 .8-1 1.1c-1.1 .5-2.2 .8-3.4 .8c-1.2 0-2.4-0.2-3.5-0.7Zm206.3-3.4l-0.1-0.2c1 .4 2.1 .5 3.1 .5c1.7 0 3.4-0.4 4.9-1.2c.7-0.3 1.4-0.8 1.8-1.4c.4-0.7 .7-1.4 .7-2.2c0-0.8-0.3-1.5-0.7-2.2c-0.4-0.6-1.1-1.1-1.8-1.4c-1.5-0.8-3.1-1.2-4.8-1.2c-1.7 0-3.4 .4-4.9 1.2c-0.7 .3-1.3 .8-1.7 1.5c-0.4 .6-0.7 1.3-0.7 2.1c0 .6 .1 1.1 .3 1.6c.3 .5 .6 .9 1 1.2l-128.4 73.6l-0.2-0.1c-1.5-0.8-3.1-1.2-4.8-1.2c-1.7 0-3.4 .4-4.9 1.2c-0.7 .3-1.3 .8-1.8 1.5c-0.4 .6-0.6 1.4-0.6 2.1c0 .8 .2 1.6 .6 2.2c.5 .6 1.1 1.2 1.8 1.4c1.5 .8 3.2 1.2 4.9 1.2c1.7 0 3.3-0.4 4.8-1.2c.7-0.3 1.3-0.8 1.7-1.4c.4-0.7 .7-1.4 .7-2.2c0-0.5-0.1-0.9-0.3-1.4l129.4-74Zm-0.4-5.6c1.1-0.6 2.3-0.9 3.5-0.9c1.2 0 2.4 .3 3.4 .8c.7 .4 1 .8 1 1.2c0 .4-0.3 .8-1 1.2c-1.1 .5-2.3 .8-3.5 .8c-1.1 0-2.3-0.3-3.4-0.8c-0.6-0.4-1-0.8-1-1.2c0-0.3 .4-0.8 1-1.1Zm-132.4 82.2c-1.1 .5-2.3 .8-3.5 .8c-1.2 0-2.3-0.3-3.4-0.8c-0.7-0.3-1-0.8-1-1.2c0-0.3 .3-0.8 1-1.1c1-0.6 2.2-0.8 3.4-0.8c1.2 0 2.4 .2 3.4 .8c.7 .4 1.1 .8 1.1 1.2c0 .4-0.4 .7-1 1.1Zm325-69.8l-40.8-24.1c.8-0.7 1.2-1.7 1.2-2.7c-0.1-0.7-0.3-1.5-0.7-2.1c-0.5-0.6-1.1-1.2-1.7-1.5c-1.5-0.8-3.2-1.2-4.9-1.2c-1.7 0-3.4 .4-4.9 1.2c-0.7 .3-1.3 .8-1.7 1.5c-0.5 .6-0.7 1.4-0.7 2.1c0 .8 .2 1.6 .7 2.2c.4 .7 1 1.2 1.7 1.5c1.5 .8 3.2 1.2 4.9 1.2c1.1 0 2.3-0.2 3.3-0.6l43.5 25.8l63.8-37.5l-1.5-2.4l-62.2 36.6Zm-50.3-25.6c-0.7-0.4-1.1-0.8-1.1-1.2c0-0.4 .4-0.8 1-1.2c1.1-0.5 2.3-0.8 3.5-0.7c1.2-0.1 2.4 .2 3.4 .8c.7 .3 1.1 .8 1.1 1.1c0 .4-0.4 .8-1 1.2c-1.1 .5-2.3 .8-3.5 .8c-1.2 0-2.3-0.3-3.4-0.8Zm84.3 61.4l27.9-17.4c1.3 .6 2.8 .9 4.2 .9c1.7 0 3.4-0.4 4.9-1.2c.7-0.3 1.3-0.8 1.7-1.4c.4-0.7 .7-1.5 .7-2.2c0-0.8-0.3-1.6-0.7-2.2c-0.4-0.7-1-1.2-1.7-1.4c-1.6-0.8-3.2-1.2-4.9-1.2c-1.7 0-3.4 .4-4.9 1.2c-0.7 .3-1.2 .8-1.7 1.4c-0.4 .7-0.6 1.4-0.7 2.2c0 .7 .3 1.4 .7 2.1l-25.5 16l-87.7-49.4c.5-0.6 .8-1.4 .8-2.2c-0.1-0.8-0.3-1.5-0.8-2.1c-0.4-0.7-1-1.2-1.7-1.5c-1.5-0.8-3.1-1.2-4.8-1.2c-1.7 0-3.4 .4-4.9 1.2c-0.7 .3-1.3 .8-1.7 1.4c-0.5 .7-0.7 1.4-0.7 2.2c0 .8 .2 1.5 .7 2.2c.4 .6 1 1.1 1.7 1.4c1.5 .8 3.2 1.3 4.9 1.2c1.4 0 2.9-0.3 4.2-0.8l-0.1 .2l90.1 50.6Zm28.6-22.5c1.1-0.6 2.3-0.8 3.4-0.8c1.2 0 2.4 .2 3.5 .8c.6 .4 1 .8 1 1.2c0 .3-0.3 .8-1 1.1c-1 .6-2.2 .9-3.4 .8c-1.2 .1-2.4-0.2-3.4-0.8c-0.7-0.3-1.1-0.8-1.1-1.2c0-0.3 .4-0.8 1-1.1Zm-119.4-31.1c-1.1 .5-2.2 .7-3.4 .7c-1.2 0-2.4-0.2-3.5-0.7c-0.6-0.4-1-0.9-1-1.2c0-0.4 .4-0.8 1-1.2c1-0.5 2.2-0.8 3.4-0.8c1.2 0 2.4 .3 3.5 .8c.6 .4 1 .8 1 1.2c0 .4-0.4 .8-1 1.1v.1Zm78.3-32.5l-39.9 23.9l-9.2-5.3c.4-0.4 .8-0.8 1-1.3c.2-0.5 .3-1 .3-1.5c0-0.8-0.2-1.5-0.7-2.2c-0.4-0.6-1-1.1-1.7-1.5c-1.5-0.7-3.2-1.1-4.9-1.1c-1.6 0-3.3 .4-4.8 1.1c-0.7 .3-1.3 .8-1.8 1.5c-0.4 .6-0.6 1.4-0.6 2.2c0 .7 .2 1.5 .6 2.1c.5 .7 1.1 1.2 1.8 1.5c1.5 .8 3.2 1.2 4.9 1.2c1 0 2-0.2 3-0.5l12.1 7.1l45.5-27.2l-41.2-23.8l36.4-21.4c1.2 .5 2.6 .7 3.9 .7c1.7 0 3.3-0.4 4.8-1.2c.8-0.3 1.4-0.8 1.8-1.4c.4-0.6 .7-1.4 .7-2.2c0-0.8-0.3-1.5-0.7-2.2c-0.4-0.6-1-1.1-1.8-1.4c-1.5-0.8-3.1-1.2-4.8-1.2c-1.7 0-3.4 .4-4.9 1.2c-0.7 .3-1.3 .8-1.7 1.5c-0.4 .6-0.7 1.3-0.7 2.1c0 .9 .3 1.7 .9 2.3l-39.4 23.3l41.1 23.7Zm-58.4 17c-0.7-0.4-1.1-0.9-1.1-1.2c0-0.4 .4-0.8 1-1.2c1.1-0.5 2.3-0.8 3.4-0.8c1.2 0 2.4 .3 3.5 .8c.7 .4 1 .8 1 1.2c0 .4-0.3 .8-1 1.2c-1 .5-2.2 .7-3.4 .7c-1.2 0-2.4-0.2-3.5-0.7h.1Zm59.6-67.4c1.1-0.6 2.2-0.9 3.4-0.9c1.2 0 2.4 .3 3.5 .9c.7 .3 1 .8 1 1.1c0 .4-0.3 .8-1 1.2c-1 .5-2.2 .8-3.4 .8c-1.2 0-2.4-0.3-3.5-0.8c-0.6-0.4-1-0.8-1-1.2c0-0.3 .4-0.8 1-1.1Zm-67.7-22.6l-40.5 23.6l1.4 2.4l44.8-26.1l-41.1-22.6l37.5-23.4l-1.5-2.3l-41.6 25.9l41 22.5Zm-76.1 21.5l44.8-26.1l-68.7-37.4l39.6-24.7l-30.6-16.2c.3-0.5 .4-1 .4-1.5c-0.1-0.7-0.3-1.5-0.8-2.1c-0.4-0.7-1-1.2-1.7-1.5c-1.5-0.8-3.1-1.2-4.8-1.2c-1.7 0-3.4 .4-4.9 1.2c-0.7 .3-1.3 .8-1.7 1.4c-0.5 .7-0.7 1.4-0.7 2.2c0 .8 .2 1.5 .7 2.2c.4 .6 1 1.1 1.7 1.4c1.5 .8 3.2 1.2 4.9 1.2c1.7 0 3.4-0.3 4.9-1.1l26.9 14.3l-39.5 24.6l68.5 37.3l-40.5 23.6l1.5 2.4Zm-18.4-104.7c-1 .5-2.2 .8-3.4 .8c-1.2 0-2.4-0.3-3.4-0.8c-0.7-0.4-1.1-0.8-1.1-1.2c0-0.4 .4-0.8 1-1.1c1.1-0.6 2.3-0.9 3.5-0.8c1.2-0.1 2.4 .2 3.4 .8c.7 .3 1 .8 1 1.2c0 .3-0.3 .7-1 1.1Zm-107.5 60.6c1.5 .8 3.2 1.2 4.9 1.2c1.4 0 2.8-0.3 4.2-0.9l29.4 17.3l-34.3 20.7l73.4 42.6l1.4-2.4l-69.2-40.2l34.2-20.8l-32.5-19c.4-0.7 .7-1.4 .7-2.1c0-0.8-0.3-1.5-0.7-2.2c-0.4-0.6-1-1.1-1.7-1.5c-1.5-0.7-3.2-1.1-4.9-1.1c-1.7 0-3.3 .4-4.8 1.1c-0.8 .3-1.4 .8-1.8 1.5c-0.4 .6-0.7 1.4-0.7 2.2c0 .7 .3 1.5 .7 2.1c.4 .7 1 1.2 1.8 1.5h-0.1Zm1.5-4.8c1-0.6 2.2-0.9 3.4-0.8c1.2-0.1 2.4 .2 3.5 .8c.6 .3 1 .8 1 1.1c0 .4-0.4 .8-1.1 1.2c-1 .6-2.2 .8-3.4 .8c-1.2 .1-2.4-0.2-3.4-0.8c-0.7-0.3-1-0.8-1-1.1c0-0.4 .3-0.8 1-1.2Zm-76.2-16.9c1.5 .8 3.2 1.2 4.9 1.1c1.6 .1 3.2-0.3 4.7-1.1l63.3 39c-0.2 .4-0.3 .8-0.3 1.2c.1 .8 .3 1.5 .8 2.2c.4 .6 1 1.1 1.7 1.5c1.5 .7 3.1 1.1 4.8 1.1c1.7 0 3.4-0.4 4.9-1.1c.7-0.3 1.3-0.8 1.7-1.5c.5-0.6 .7-1.4 .7-2.2c0-0.7-0.2-1.5-0.7-2.1c-0.4-0.7-1-1.2-1.7-1.5c-1.5-0.8-3.2-1.2-4.9-1.2c-1.7 0-3.4 .4-4.9 1.2l-0.3 .2l-62.9-38.8c.3-0.5 .4-1.1 .4-1.7c0-0.8-0.3-1.5-0.7-2.1c-0.4-0.7-1-1.2-1.7-1.5c-1.5-0.8-3.1-1.2-4.8-1.2c-1.7 0-3.4 .4-4.9 1.2c-0.7 .3-1.3 .8-1.8 1.5c-0.4 .6-0.6 1.4-0.6 2.1c0 .8 .2 1.6 .6 2.2c.5 .7 1.1 1.2 1.8 1.5h-0.1Zm80 38.2c1.2 0 2.4 .3 3.4 .8c.6 .4 1 .8 1 1.2c0 .3-0.4 .8-1 1.2c-1.1 .5-2.3 .7-3.4 .7c-1.2 0-2.4-0.2-3.5-0.7c-0.6-0.4-1-0.8-1-1.2c0-0.4 .4-0.8 1-1.2c1.1-0.5 2.3-0.8 3.5-0.8Zm-78.5-43c1-0.6 2.2-0.8 3.4-0.8c1.2 0 2.4 .2 3.5 .8c.6 .3 1 .8 1 1.1c0 .4-0.4 .8-1.1 1.2c-1 .6-2.2 .9-3.4 .8c-1.2 0-2.4-0.2-3.5-0.8c-0.6-0.3-1-0.8-1-1.1c0-0.4 .4-0.9 1.1-1.2Zm33.5 121.6l43.7 25.8l9.6-5.6c1.3 .6 2.8 .9 4.2 .9c1.7 .1 3.4-0.4 4.9-1.2c.7-0.3 1.3-0.8 1.8-1.4c.4-0.7 .6-1.4 .6-2.2c0-0.8-0.2-1.5-0.6-2.2c-0.5-0.6-1.1-1.1-1.8-1.4c-1.5-0.8-3.2-1.2-4.9-1.2c-1.6 0-3.3 .4-4.8 1.2c-0.7 .3-1.3 .8-1.7 1.5c-0.5 .6-0.7 1.4-0.8 2.1c.1 .7 .3 1.4 .7 2l-7.2 4.2l-38.2-22.5l38.3-22.9l-22.4-13c.5-0.6 .8-1.4 .9-2.3c-0.1-0.7-0.3-1.5-0.8-2.1c-0.4-0.6-1-1.1-1.7-1.5c-1.5-0.7-3.1-1.2-4.8-1.2c-1.7 0-3.4 .5-4.9 1.2c-0.7 .3-1.3 .8-1.7 1.5c-0.5 .6-0.7 1.4-0.7 2.2c0 .7 .2 1.5 .7 2.1c.4 .7 1 1.2 1.7 1.5c1.5 .8 3.2 1.2 4.9 1.1c1.3 .1 2.7-0.2 3.9-0.7l19.4 11.3l-38.3 22.8Zm54.1 15.1c1-0.6 2.2-0.9 3.4-0.8c1.2-0.1 2.4 .2 3.5 .8c.6 .3 1 .8 1 1.1c0 .4-0.4 .8-1.1 1.2c-1 .6-2.2 .8-3.4 .8c-1.2 .1-2.4-0.2-3.4-0.7c-0.6-0.4-1-0.8-1-1.2c0-0.4 .3-0.8 1-1.2Zm-42.6-52.1c-0.6-0.3-1-0.7-1-1.1c0-0.4 .4-0.8 1-1.2c1.1-0.6 2.3-0.8 3.5-0.8c1.2 0 2.3 .2 3.4 .8c.6 .3 1 .8 1 1.1c0 .4-0.4 .9-1 1.2c-1.1 .5-2.3 .8-3.5 .8c-1.2 0-2.3-0.3-3.4-0.8Zm148 158.8c-1.4-0.6-3-1-4.5-1c-1.7 0-3.4 .4-4.9 1.2c-0.7 .3-1.3 .8-1.7 1.4c-0.4 .7-0.7 1.4-0.7 2.2c0 .8 .3 1.6 .7 2.2c.4 .6 1 1.1 1.7 1.4c1.6 .8 3.2 1.2 4.9 1.2c1.7 0 3.4-0.4 4.9-1.2c.7-0.3 1.2-0.8 1.7-1.4c.4-0.7 .6-1.4 .7-2.2c0-0.7-0.3-1.4-0.7-2l53.2-29.8c1.5 .8 3.1 1.2 4.7 1.1c1.7 .1 3.4-0.3 4.9-1.1c.7-0.3 1.3-0.8 1.7-1.5c.5-0.6 .7-1.4 .7-2.2c0-0.7-0.2-1.5-0.7-2.2c-0.4-0.6-1-1.1-1.7-1.4c-1.5-0.8-3.2-1.2-4.9-1.2c-1.7 0-3.3 .4-4.8 1.2c-0.7 .3-1.3 .9-1.7 1.5c-0.5 .6-0.7 1.4-0.8 2.1c.1 .6 .2 1.2 .5 1.7l-53.3 29.8l.1 .2Zm-1 5c-1.1 .5-2.3 .8-3.5 .8c-1.2 0-2.3-0.3-3.4-0.8c-0.7-0.3-1-0.8-1-1.1c0-0.4 .3-0.9 1-1.2c1-0.6 2.2-0.8 3.4-0.8c1.2 0 2.4 .2 3.4 .8c.7 .4 1.1 .8 1.1 1.2c0 .4-0.4 .8-1 1.1Zm57.5-37.8c1.1-0.6 2.2-0.8 3.4-0.8c1.2 0 2.4 .2 3.5 .8c.6 .3 1 .8 1 1.1c0 .4-0.4 .8-1 1.2c-1.1 .5-2.2 .8-3.4 .8c-1.2 0-2.4-0.3-3.5-0.8c-0.6-0.4-1-0.8-1-1.2c0-0.4 .4-0.8 1-1.2v.1Zm-100-197.7l24.9 14l-49.9 28l84.4 49.7l1.5-2.5l-80.3-47.2l50.1-28l-30.8-17.3l-15.1 9.7l-37.4-20.8l-1.4 2.5l38.9 21.6l15.1-9.7Zm153.2 108.6c-0.3 .5-0.4 1-0.4 1.6c0 .8 .3 1.5 .7 2.1c.5 .7 1 1.2 1.7 1.5c1.5 .8 3.2 1.2 4.9 1.2c1.7 0 3.4-0.4 4.9-1.2c.7-0.3 1.3-0.8 1.7-1.4c.5-0.7 .7-1.4 .7-2.2c0-0.8-0.2-1.5-0.7-2.2c-0.4-0.6-1-1.1-1.7-1.4c-1.5-0.8-3.2-1.2-4.8-1.2c-1.7 0-3.4 .4-4.9 1.1l-55.2-30.3l40.1-23.7c1.5 .7 3 1 4.6 1c1.7 0 3.3-0.4 4.8-1.2c.7-0.3 1.3-0.8 1.8-1.4c.4-0.7 .6-1.4 .6-2.2c0-0.8-0.2-1.5-0.6-2.2c-0.5-0.6-1.1-1.1-1.8-1.4c-1.5-0.8-3.2-1.2-4.9-1.2c-1.7-0.1-3.3 .3-4.8 1.2c-0.7 .3-1.3 .8-1.7 1.4c-0.4 .7-0.7 1.4-0.7 2.2c0 .6 .1 1.3 .5 1.8l-43.7 25.9l58.9 32.2Zm10.3 .5c.7 .3 1 .8 1 1.1c0 .4-0.3 .8-1 1.2c-1 .5-2.2 .8-3.4 .8c-1.2 0-2.4-0.3-3.4-0.8c-0.7-0.4-1.1-0.8-1.1-1.2c0-0.1 0-0.2 .1-0.2l.2 .1l.5-0.9c.1-0.1 .1-0.1 .2-0.2c1.1-0.5 2.3-0.8 3.4-0.7c1.3-0.1 2.4 .2 3.5 .8Zm-22.2-61.6c1-0.5 2.2-0.8 3.4-0.8c1.2 0 2.4 .3 3.5 .8c.6 .4 1 .9 1 1.2c0 .4-0.4 .8-1 1.2c-1.1 .5-2.3 .8-3.5 .8c-1.2 0-2.3-0.3-3.4-0.8c-0.7-0.4-1-0.8-1-1.2c0-0.4 .3-0.8 1-1.2Zm24.8-12.7l15.5 8.5l-57.8 34.1l1.5 2.4l61.9-36.5l-15.5-8.6l48.7-29.7l.5 .3c1.5 .8 3.1 1.2 4.8 1.2c1.7 .1 3.4-0.4 4.9-1.2c.7-0.3 1.2-0.8 1.7-1.4c.4-0.7 .6-1.4 .7-2.2c-0.1-0.7-0.3-1.5-0.7-2.1c-0.5-0.7-1.1-1.2-1.8-1.5c-1.5-0.8-3.1-1.2-4.8-1.2c-1.7 0-3.4 .4-4.9 1.2c-0.7 .3-1.2 .8-1.7 1.5c-0.4 .6-0.6 1.3-0.7 2.1c0 .4 .1 .8 .2 1.1l-52.5 32Zm56.1-34.3c1.1-0.5 2.3-0.8 3.5-0.8c1.2 0 2.4 .3 3.4 .8c.7 .4 1.1 .8 1.1 1.2c0 .3-0.4 .8-1 1.1c-1.1 .5-2.3 .8-3.5 .8c-1.2 0-2.4-0.3-3.4-0.8c-0.7-0.3-1.1-0.8-1.1-1.2c0-0.3 .4-0.7 1-1.1Zm-255.5 89.5l-60.4-33.6l13-7.6l-36.1-22.8c.3-0.5 .4-1 .4-1.5c-0.1-0.8-0.3-1.5-0.7-2.2c-0.5-0.6-1-1.1-1.7-1.4c-1.5-0.8-3.2-1.2-4.9-1.2c-1.7 0-3.3 .4-4.8 1.2c-0.7 .3-1.3 .8-1.8 1.5c-0.4 .6-0.6 1.3-0.7 2.1c.1 .8 .3 1.5 .7 2.1c.5 .7 1 1.2 1.7 1.5c1.5 .8 3.2 1.2 4.9 1.2c1.7 0 3.4-0.4 4.9-1.2l32.6 20.6l-13.3 7.7l64.8 36.1l1.4-2.5Zm-90.4-63.5c-1.2 0-2.4-0.3-3.5-0.8c-0.6-0.4-1-0.8-1-1.2c0-0.3 .4-0.8 1.1-1.1c1-0.6 2.2-0.9 3.4-0.9c1.2 0 2.4 .3 3.5 .9c.6 .3 1 .8 1 1.1c0 .4-0.4 .8-1.1 1.2c-1 .6-2.2 .8-3.4 .8Z" fill="#b7c5fd"/></clipPath></defs><style>
@keyframes a0_do { 0% { stroke-dashoffset: 168px; animation-timing-function: cubic-bezier(0,0,.6,1); } 100% { stroke-dashoffset: 0px; } }
@keyframes a1_do { 0% { stroke-dashoffset: 3843px; animation-timing-function: cubic-bezier(0,0,.6,1); } 100% { stroke-dashoffset: 3500px; } }
@keyframes a2_do { 0% { stroke-dashoffset: 117px; animation-timing-function: cubic-bezier(0,0,.6,1); } 100% { stroke-dashoffset: 0px; } }
@keyframes a3_o { 0% { opacity: 0; animation-timing-function: steps(1); } 100% { opacity: .8; } }
@keyframes a4_t { 0% { transform: translate(125px,125px) scale(.5,.5); } 2.5% { transform: translate(125px,125px) scale(.5,.5); animation-timing-function: cubic-bezier(.2,.6,.4,1); } 62.5% { transform: translate(125px,125px) scale(5,5); } 100% { transform: translate(125px,125px) scale(3,3); } }
@keyframes a4_o { 0% { opacity: 0; } 2.5% { opacity: 1; } 37.5% { opacity: 1; animation-timing-function: cubic-bezier(.4,0,1,1); } 62.5% { opacity: 0; } 100% { opacity: 0; } }
@keyframes a5_t { 0% { transform: translate(173.4px,98.4px); animation-timing-function: cubic-bezier(0,0,.6,1); } 50% { transform: translate(173.4px,81.5px); animation-timing-function: cubic-bezier(.4,0,1,1); } 100% { transform: translate(173.4px,98.4px); } }
@keyframes a6_o { 0% { opacity: 1; } 12.5% { opacity: .5; } 25% { opacity: 1; } 50% { opacity: 1; } 75% { opacity: .3; } 100% { opacity: 1; } }
@keyframes a7_o { 0% { opacity: .5; } 50% { opacity: .2; } 100% { opacity: .5; } }
@keyframes a8_o { 0% { opacity: .5; } 50% { opacity: .2; } 100% { opacity: .5; } }
@keyframes a9_o { 0% { opacity: 1; } 8.696% { opacity: .5; } 21.739% { opacity: 1; } 47.826% { opacity: .2; } 69.565% { opacity: 1; } 100% { opacity: 1; } }
@keyframes a10_o { 0% { opacity: 1; } 25% { opacity: .5; } 45% { opacity: 1; } 70% { opacity: .5; } 100% { opacity: 1; } }
@keyframes a11_o { 0% { opacity: 1; } 18.519% { opacity: 1; } 35.667% { opacity: .5; } 57.111% { opacity: 1; } 78.556% { opacity: .3; } 100% { opacity: 1; } }
@keyframes a12_o { 0% { opacity: 1; } 21.429% { opacity: .2; } 46.429% { opacity: 1; } 64.286% { opacity: .5; } 78.571% { opacity: 1; } 100% { opacity: 1; } }
@keyframes a13_o { 0% { opacity: 1; } 16.667% { opacity: .5; } 33.333% { opacity: 1; } 53.333% { opacity: .2; } 76.667% { opacity: 1; } 100% { opacity: 1; } }
</style><title>CPU</title><g clip-path="url(#ClipPath-1)"><path d="M4.4-1.8l-145.7 83.3" stroke-linecap="round" stroke="#b7c5fd" stroke-width="12" stroke-dasharray="168 168" stroke-dashoffset="168" transform="translate(212.9,221.9)" style="animation: 2s linear both a0_do;"/><path d="M3 0l-31 18l35.1 22l-16.1 10.2l-37.9-22m62.9-20.2l-19.9 10l38.9 24.1l-58.1 32.8l51.1 32.2l-44 24.4l-19-13.5m78-98l33 19l-66.9 37.9l52.9 31m49-64.9l-68 37m30-73l70.1 40.2l-73 39.2l31.1 18.6l-53.1 30.8l19.9 12.2l52.2-30m-34.2-118l38.2 20.8m-23.1-27.9l148.6 84l-18 12.9m-117.7-105.2l95.1 52.7l36.8-20.3m-118-39.8l49.4 25.9l60.7-34.1m-32.8 46.4l52.6-28.3l42.8 22.9l-72.7 38.3m-87.7-79.7l17.8 9.4l42.4-24.9l-41.2-23l44.6-25.6m-36.2 51.3l-63-34.8l47.6-27.9m-19.2 28.5l57.2-33.1l-12.9-9.3l57-34.3m-143.5 61.4l43.1-25.3l-38.8-22l35.8-23.1m-3.5 18.7l26.4 13.9l45.2-25.2m-137.8-5l38.8-23.3l-77.6-40.7l-35.2 20.2l48.8 26.3m17.8 82.2l42.2-26.1l-67-39l38.7-23.2l-36.3-18.8m34.7 139.3l-82.8-48l49.1-28.2l-26.7-14.5l-14.7 7.2l-37.1-21.9m51.4 110.3l-67.6-44l33.3-20l-38.1-21.3m3.4 23.7l-79.3-46.2m111.8 103l-59.8-33.8l10.5-7.5l-39.1-25.2m68.7 100.4l-14.5 8.8l-39.4-24.9l34.9-22l-26.9-16.4m59.6 61.9l-35.3 21.7l-55.4-35.1m103.6 21.7l-50.2 29.1l-45.5-26.9l-40.9 26" stroke="#b7c5fd" stroke-width="12" stroke-linecap="round" stroke-linejoin="round" stroke-dasharray="3843 3843" stroke-dashoffset="3843" transform="translate(226,229)" style="animation: 2s linear both a1_do;"/><path d="M1.1-1.1l-35.2 22.1l-64.6-38.4" stroke="#b7c5fd" stroke-width="12" stroke-linecap="round" stroke-linejoin="round" stroke-dasharray="117 117" stroke-dashoffset="117" transform="translate(104.4,245.2)" style="animation: 2s linear both a2_do;"/><g opacity="0" transform="translate(266.9,185.1) rotate(30) skewX(-30) translate(-125,-125)" style="animation: 8s linear both a3_o;"><ellipse rx="125" ry="125" fill="url(#Gradient-0)" opacity="0" transform="translate(125,125) scale(.5,.5)" style="animation: 8s linear infinite both a4_t, 8s linear infinite both a4_o;"/></g></g><g transform="translate(173.4,98.4)"><g opacity=".2" transform="translate(-173.4,-98.4)"><path opacity=".09" d="M259.3 142.3l-80 46.3c-4.2 2.4-7 6.6-7.2 10.8c-0.1 4.8 2.7 9.4 8.1 12.6l73 42.1c4.5 2.5 9.5 3.8 14.7 3.7c3 0 5.9-0.5 8.8-1.5c1.1-0.4 2.2-0.9 3.2-1.5l79.9-46.2c4.2-2.4 7-6.6 7.1-10.8c.1-4.8-2.7-9.4-8.1-12.5l-72.7-42.1c-1.7-0.9-3.5-1.7-5.4-2.3c-3-1-6.2-1.5-9.3-1.5c-4.2-0.1-8.4 .9-12.1 2.9Z" fill="#000"/><path opacity=".18" d="M259.9 145.2l-75.8 43.9c-3.8 2.2-6.8 6.3-7 10.1c-0.3 4.5 2.1 9 7.3 11.9l69.8 40.3c4.2 2.3 9 3.5 13.8 3.5c2.9 0 5.7-0.5 8.4-1.4c1-0.4 2-0.9 3-1.5l75.6-43.7c3.8-2.2 6.8-6.3 7-10.1c.3-4.5-2.2-9-7.3-11.9l-69.3-40c-1.6-0.9-3.3-1.7-5.1-2.3c-2.8-0.9-5.8-1.4-8.8-1.5c-4-0.1-8 .8-11.6 2.7Z" fill="#000"/><path opacity=".27" d="M260.6 148.1l-71.7 41.5c-3.4 2-6.6 6-6.9 9.4c-0.4 4.2 1.7 8.5 6.6 11.3l66.5 38.4c4 2.2 8.5 3.3 13.1 3.2c2.7 0 5.3-0.4 7.9-1.3c.9-0.4 1.9-0.9 2.8-1.4l71.4-41.3c3.4-1.9 6.5-5.9 6.8-9.3c.4-4.3-1.6-8.5-6.6-11.3l-65.8-38c-1.5-0.9-3.1-1.6-4.8-2.2c-2.7-0.9-5.5-1.4-8.4-1.4c-3.8-0.2-7.6 .7-10.9 2.4Z" fill="#000"/><path opacity=".36" d="M261.3 151.1l-67.7 39.1c-2.9 1.7-6.3 5.7-6.7 8.6c-0.5 4 1.2 7.9 5.9 10.7l63.2 36.5c3.8 2.1 8 3.1 12.3 3c2.6 0 5.1-0.4 7.4-1.3c1-0.4 1.8-0.8 2.7-1.3l67.2-38.9c2.9-1.7 6.2-5.6 6.6-8.5c.5-4-1.1-8-5.8-10.7l-62.3-36c-1.4-0.8-3-1.5-4.5-2.1c-2.6-0.8-5.2-1.3-7.9-1.4c-3.6-0.2-7.2 .6-10.4 2.3Z" fill="#000"/><path opacity=".45" d="M261.9 154l-63.5 36.8c-2.5 1.5-6.1 5.3-6.6 7.8c-0.6 3.7 .7 7.5 5.2 10.1l59.9 34.6c3.6 1.9 7.5 2.9 11.6 2.8c2.3 0 4.7-0.4 6.9-1.3c.8-0.3 1.7-0.7 2.5-1.2l62.9-36.4c2.5-1.5 6.1-5.3 6.5-7.8c.6-3.7-0.6-7.4-5.1-10l-58.8-34c-1.4-0.8-2.8-1.4-4.3-2c-2.4-0.9-4.9-1.4-7.4-1.5c-3.4-0.2-6.8 .5-9.8 2.1Z" fill="#000"/><path opacity=".55" d="M262.6 157l-59.4 34.3c-2.1 1.2-6.5 5-6.5 7.1c-1.5 3.2 .2 7 4.5 9.4l56.6 32.8c3.4 1.8 7.1 2.7 10.9 2.6c2.2-0.1 4.4-0.5 6.4-1.3c.6-0.2 1.9-0.9 2.3-1.1l58.7-34c2.1-1.2 6.4-4.9 6.4-7c1.5-3.2-0.1-7-4.4-9.4l-55.3-31.9c-1.3-0.8-2.6-1.4-4-2c-2.2-0.8-4.6-1.3-7-1.4c-3.2-0.3-6.4 .4-9.2 1.9Z" fill="#000"/><path opacity=".64" d="M263.2 159.9l-55.2 32c-1.7 .9-6.3 4.6-6.3 6.3c-1.8 2.9-0.4 6.4 3.7 8.8l53.4 30.8c3.1 1.7 6.5 2.6 10 2.5c2.1-0.1 4.1-0.5 6-1.3c.4-0.2 1.7-0.8 2.1-1.1l54.5-31.5c1.7-0.9 6.2-4.5 6.2-6.2c1.7-2.9 .4-6.5-3.7-8.9l-51.8-29.8c-0.6-0.4-3-1.6-3.7-1.9c-2.1-0.8-4.3-1.3-6.5-1.5c-3-0.2-6 .4-8.6 1.8Z" fill="#000"/><path opacity=".73" d="M263.9 162.8l-51.1 29.6c-1.3 .7-6.2 4.3-6.2 5.6c-2 2.6-0.9 5.9 3 8.2l50.2 28.9c2.8 1.6 6 2.3 9.2 2.2c1.9-0.1 3.7-0.5 5.5-1.2c.3-0.1 1.6-0.8 1.9-1l50.2-29.1c1.3-0.7 6.1-4.2 6.1-5.5c2-2.6 .9-5.9-3-8.2l-48.2-27.8c-0.5-0.3-3-1.5-3.5-1.8c-1.9-0.7-4-1.2-6-1.4c-2.8-0.3-5.6 .2-8.1 1.5Z" fill="#000"/><path opacity=".82" d="M264.6 165.8l-47 27.2c-0.9 .4-6 3.9-6 4.8c-2.3 2.2-1.5 5.4 2.2 7.5l46.9 27.1c2.6 1.4 5.5 2.1 8.5 2c1.7-0.1 3.4-0.5 5-1.2c.2-0.1 1.6-0.8 1.7-0.9l46.1-26.6c.8-0.5 5.8-3.9 5.8-4.8c2.3-2.2 1.4-5.4-2.2-7.5l-44.8-25.8c-0.3-0.2-2.8-1.6-3.1-1.7c-1.8-0.8-3.7-1.3-5.6-1.5c-2.6-0.3-5.2 .2-7.5 1.4Z" fill="#000"/><path opacity=".91" d="M265.2 168.7l-42.8 24.8c-0.5 .3-5.9 3.6-5.9 4.1c-2.6 1.9-1.9 4.9 1.5 6.9l43.6 25.2c2.4 1.3 5 1.9 7.7 1.8c1.6-0.1 3.1-0.5 4.5-1.2c.1 0 1.5-0.8 1.6-0.8l41.8-24.2c.4-0.2 5.7-3.6 5.7-4c2.5-1.9 1.9-4.9-1.5-6.9l-41.3-23.8c-0.1-0.1-2.7-1.6-2.9-1.6c-1.6-0.8-3.3-1.3-5.1-1.5c-2.3-0.3-4.7 .1-6.9 1.2Z" fill="#000"/><path opacity=".2" d="M273.5 227.4l44.5-25.7c2.8-1.6 2.5-4.4-0.8-6.3l-40.3-23.3c-3.3-1.9-8.2-2.1-11-0.5l-44.5 25.8c-2.8 1.6-2.4 4.4 .8 6.3l40.4 23.3c3.2 1.9 8.1 2.1 10.9 .4Z" fill="#000"/></g><path d="M367.6 171.5h-2c-1.1-1.4-2.5-2.5-4-3.4l-75.2-43.4c-8.9-5.1-24.5-4.5-34.8 1.4l-69.5 40.2c-2.4 1.3-4.5 3.1-6.2 5.3h-2.3v5.9c.3 3 2.3 5.9 6 8l75.2 43.4c8.9 5.1 24.4 4.5 34.7-1.5l69.6-40.1c4.9-2.9 7.6-6.3 8.3-9.8h.2v-6Z" fill="url(#Gradient-1)" transform="translate(-173.4,-98.4)"/><path d="M254.8 224.3l-75.2-43.4c-8.9-5.1-7.8-14.1 2.5-20l69.5-40.2c10.3-5.9 25.9-6.6 34.8-1.4l75.2 43.4c8.9 5.1 7.8 14.1-2.5 20l-69.6 40.2c-10.3 5.9-25.8 6.5-34.7 1.4Z" fill="url(#Gradient-2)" transform="translate(-173.4,-98.4)"/><path d="M363.3 161.1c-1.1-1.3-2.5-2.5-4-3.3l-73.5-42.4c-8.7-5.1-23.8-4.4-33.9 1.4l-67.9 39.2c-2.4 1.3-4.4 3-6.1 5.1c-2.2 3.6-3 7.1-2.2 10.5h.1c.2 2.9 2.1 5.7 5.8 7.8l73.4 42.4c8.7 5 23.9 4.4 34-1.4l67.9-39.2c4.7-2.8 7.4-6.2 8.1-9.6h.1c1.6-4.3 .4-7.6-1.8-10.5Z" fill="url(#Gradient-3)" transform="translate(-173.4,-98.4)"/><path d="M350.9 183.1l7-4l11.1 6.7c.4 .3 .7 .6 .9 1.1c.2 .4 .2 .9 .1 1.3l-1.4 12.2l-4.2-8.5c-0.8-1.1-1.8-1.9-2.9-2.6l-10.6-6.2Zm-13.3 7.7l6.9-4l11.2 6.7c.4 .3 .7 .6 .9 1.1c.2 .4 .2 .9 .1 1.3l-1.3 12.2l-4.3-8.5c-0.8-1.1-1.8-1.9-2.9-2.6l-10.6-6.2Zm-13.3 7.7l6.9-4l11.2 6.7c.4 .3 .7 .6 .9 1.1c.1 .4 .2 .9 .1 1.3l-1.4 12.2l-4.2-8.5c-0.8-1-1.8-1.9-2.9-2.5l-10.6-6.3Zm-13.4 7.7l7-4l11.1 6.7c.4 .3 .8 .6 .9 1.1c.2 .4 .3 .9 .2 1.3l-1.4 12.2l-4.2-8.5c-0.8-1-1.8-1.9-3-2.5l-10.6-6.3Zm-13.3 7.7l6.9-4l11.2 6.7c.4 .3 .7 .6 .9 1.1c.2 .4 .2 .9 .1 1.3l-1.3 12.2l-4.3-8.5c-0.8-1-1.8-1.9-2.9-2.5l-10.6-6.3Zm-13.3 7.7l6.9-4l11.2 6.7c.4 .3 .7 .6 .9 1.1c.2 .4 .2 .9 .1 1.4l-1.4 12.1l-4.2-8.4c-0.8-1.1-1.8-1.9-2.9-2.6l-10.6-6.3Z" fill="url(#Gradient-4)" transform="translate(-173.4,-98.4)"/><path d="M350.9 183.1l7-4l11.1 6.7c.4 .3 .7 .6 .9 1.1c.2 .4 .2 .9 .1 1.3l-1.4 12.2l-4.2-8.5c-0.8-1.1-1.8-1.9-2.9-2.6l-10.6-6.2Zm-13.3 7.7l6.9-4l11.2 6.7c.4 .3 .7 .6 .9 1.1c.2 .4 .2 .9 .1 1.3l-1.3 12.2l-4.3-8.5c-0.8-1.1-1.8-1.9-2.9-2.6l-10.6-6.2Zm-13.3 7.7l6.9-4l11.2 6.7c.4 .3 .7 .6 .9 1.1c.1 .4 .2 .9 .1 1.3l-1.4 12.2l-4.2-8.5c-0.8-1-1.8-1.9-2.9-2.5l-10.6-6.3Zm-13.4 7.7l7-4l11.1 6.7c.4 .3 .8 .6 .9 1.1c.2 .4 .3 .9 .2 1.3l-1.4 12.2l-4.2-8.5c-0.8-1-1.8-1.9-3-2.5l-10.6-6.3Zm-13.3 7.7l6.9-4l11.2 6.7c.4 .3 .7 .6 .9 1.1c.2 .4 .2 .9 .1 1.3l-1.3 12.2l-4.3-8.5c-0.8-1-1.8-1.9-2.9-2.5l-10.6-6.3Zm-13.3 7.7l6.9-4l11.2 6.7c.4 .3 .7 .6 .9 1.1c.2 .4 .2 .9 .1 1.4l-1.4 12.1l-4.2-8.4c-0.8-1.1-1.8-1.9-2.9-2.6l-10.6-6.3Z" fill="url(#Gradient-4)" transform="translate(7.2,91.7) scale(-1,1) translate(-360.5,-189.7)"/></g><g transform="translate(270.4,160) translate(-97,-61.6)" style="animation: 8s linear infinite both a5_t;"><path d="M367.4 154.1h-1.9c-1.1-1.3-2.5-2.5-4.1-3.4l-75.2-43.4c-8.9-5.1-24.4-4.4-34.7 1.5l-69.6 40.1c-2.4 1.3-4.5 3.1-6.2 5.3h-2.2v12.6c.2 3 2.2 5.8 5.9 7.9l75.2 43.4c8.9 5.2 24.5 4.5 34.7-1.4l69.6-40.2c4.9-2.8 7.7-6.3 8.3-9.7h.2v-12.7Z" fill="url(#Gradient-5)" transform="translate(-173.4,-98.4)"/><path d="M254.6 207l-75.2-43.4c-8.9-5.2-7.8-14.2 2.5-20.1l69.6-40.1c10.3-6 25.8-6.6 34.7-1.5l75.2 43.5c8.9 5.1 7.8 14.1-2.5 20l-69.5 40.2c-10.3 5.9-25.9 6.5-34.8 1.4Z" fill="url(#Gradient-6)" transform="translate(-173.4,-98.4)"/><path d="M258.2 195.1l-58.3-33.6c-6.9-4-6-10.9 2-15.5l53.8-31.2c8-4.5 20-5 26.9-1.1l58.3 33.7c6.9 3.9 6 10.9-1.9 15.5l-53.9 31.1c-7.9 4.6-20 5.1-26.9 1.1Z" fill="url(#Gradient-7)" transform="translate(-173.4,-98.4)"/><path d="M358.9 163.8l-69.5 40.2c-10.3 5.9-25.9 6.6-34.8 1.4l-75.2-43.4c-3.5-2-5.5-4.7-5.9-7.6c-0.5 3.7 1.4 7.3 5.9 10l75.2 43.4c8.9 5.1 24.5 4.5 34.8-1.4l69.5-40.2c6.2-3.6 9-8.2 8.4-12.5c-0.5 3.6-3.4 7.2-8.4 10.1Z" fill="url(#Gradient-8)" transform="translate(-173.4,-98.4)" style="mix-blend-mode: color-dodge;"/><g transform="translate(21.4,12.6)" style="mix-blend-mode: screen;"><g opacity=".05" style="mix-blend-mode: screen;"><path d="M105.8 49l3-1.8l-3-1.7l-3 1.7l3 1.8Z" fill="#2af6ff"/><path d="M111.4 45.7l3-1.7l-3-1.8l-3 1.8l3 1.7Z" fill="#2af6ff"/><path d="M40.3 37.3l3-1.7l-3-1.7l-3 1.7l3 1.7Z" fill="#ff63ce"/><path d="M34.6 40.6l3-1.7l-3-1.8l-3 1.8l3 1.7Z" fill="#ff63ce"/><path d="M79.3 27.2l3-1.8l-3-1.7l-3 1.7l3 1.8Z" fill="#ff63ce"/><path d="M73.6 30.4l3-1.7l-3-1.7l-3 1.7l3 1.7Z" fill="#2af6ff"/><path d="M51 43.5l3-1.7l-3-1.8l-3 1.8l3 1.7Z" fill="#ff63ce"/><path d="M45.3 46.8l3-1.7l-3-1.8l-3 1.8l3 1.7Z" fill="#2af6ff"/><path d="M84.6 30.3l3.1-1.8l-3-1.7l-3 1.7l2.9 1.8Z" fill="#ff63ce"/><path d="M79 33.5l3-1.7l-3-1.8l-3 1.8l3 1.7Z" fill="#2af6ff"/><path d="M56.3 46.6l3-1.7l-3-1.8l-3 1.8l3 1.7Z" fill="#ff63ce"/><path d="M50.7 49.9l3-1.8l-3-1.7l-3 1.8l3 1.7Z" fill="#ff63ce"/><path d="M90 33.4l3-1.8l-3-1.7l-3 1.7l3 1.8Z" fill="#ff63ce"/><path d="M84.3 36.6l3.1-1.7l-3-1.8l-3.1 1.8l3 1.7Z" fill="#2af6ff"/><path d="M61.7 49.7l3-1.7l-3-1.8l-3 1.8l3 1.7Z" fill="#2af6ff"/><path d="M56 53l3-1.8l-3-1.7l-3 1.7l3 1.8Z" fill="#2af6ff"/><path d="M95.4 36.4l3-1.7l-3-1.7l-3 1.7l3 1.7Z" fill="#ff63ce"/><path d="M89.7 39.7l3-1.7l-3-1.8l-3 1.8l3 1.7Z" fill="#2af6ff"/><path d="M100.7 39.5l3-1.7l-3-1.7l-3 1.7l3 1.7Z" fill="#ff63ce"/><path d="M95 42.8l3.1-1.7l-3-1.8l-3 1.8l2.9 1.7Z" fill="#2af6ff"/><path d="M106.1 42.6l3-1.7l-3-1.8l-3 1.8l3 1.7Z" fill="#ff63ce"/><path d="M100.4 45.9l3-1.7l-3-1.8l-3 1.8l3 1.7Z" fill="#2af6ff"/></g><path d="M94.4 55.5l3-1.7l-3-1.7l-3 1.7l3 1.7Zm-10.7-6.2l3-1.7l-3-1.7l-3 1.7l3 1.7Zm-11.3 6.6l3-1.8l-3-1.7l-3 1.8l3 1.7Zm16.7-3.5l3-1.7l-3-1.7l-3 1.7l3 1.7Z" fill="#ff63ce" opacity=".25" style="mix-blend-mode: screen;"/><path d="M116.8 48.8l3-1.7l-3-1.8l-3 1.8l3 1.7Zm-5.7 3.3l3-1.8l-3-1.7l-3 1.7l3 1.8Zm-39.3 16.5l3-1.7l-3-1.8l-3 1.8l3 1.7Zm28.3-16.3l3-1.8l-3-1.7l-3 1.7l3 1.8Zm-54.5-11.9l3-1.7l-3-1.7l-3 1.7l3 1.7Zm-5.7 3.3l3.1-1.7l-3-1.8l-3.1 1.8l3 1.7Zm-5.6 3.3l3-1.8l-3-1.7l-3 1.7l3 1.8Zm39-10.2l3-1.7l-3-1.8l-3 1.8l3 1.7Zm-23 19.4l3.1-1.7l-3-1.7l-3.1 1.7l3 1.7Zm16.7-3.4l3-1.8l-3-1.7l-3 1.8l3 1.7Zm-5.6 3.3l3-1.8l-3-1.7l-3 1.7l3 1.8Zm45-19.8l3-1.8l-3-1.7l-3 1.7l3 1.8Zm5.3 3l3-1.7l-2.9-1.7l-3.1 1.7l3 1.7Zm-17 9.9l3-1.8l-2.9-1.7l-3.1 1.7l3 1.8Z" fill="#ff63ce" style="mix-blend-mode: screen; animation: 4s linear infinite both a6_o;"/><path d="M77.4 65.3l3-1.7l-3-1.7l-3 1.7l3 1.7Zm-59.8-14.9l3-1.7l-3-1.8l-3 1.8l3 1.7Zm78.4-26.7l3-1.7l-3-1.8l-3 1.8l3 1.7Zm-62.3 36l3-1.7l-3-1.8l-3 1.8l3 1.7Zm67.6-32.9l3-1.7l-3-1.8l-3 1.8l3 1.7Zm-28.3 16.4l3-1.8l-3-1.7l-3 1.7l3 1.8Zm-28.3 16.3l3-1.7l-3-1.8l-3 1.8l3 1.7Z" fill="#2af6ff" opacity=".35" style="mix-blend-mode: screen;"/><path d="M76.5 84.4l3-1.7l-3-1.7l-3 1.7l3 1.7Zm22.7-13.1l3-1.7l-3-1.7l-3 1.7l3 1.7Zm-5.4-3.1l3-1.7l-3-1.7l-3 1.7l3 1.7Zm17-9.8l3-1.7l-3-1.7l-3 1.7l3 1.7Zm-39.7 22.9l3.1-1.7l-3-1.7l-3.1 1.7l3 1.7Zm-5.3-3.1l3-1.7l-3-1.7l-3 1.7l3 1.7Zm.3-6.3l3-1.8l-3-1.7l-3 1.8l3 1.7Zm24.8-57.6l3-1.8l-2.9-1.7l-3.1 1.7l3 1.8Z" fill="#2af6ff" opacity=".2" style="mix-blend-mode: screen;"/><path d="M87.8 77.9l3-1.8l-3-1.7l-3 1.8l3 1.7Zm45.4-26.2l3-1.7l-3-1.8l-3 1.8l3 1.7Zm11.3-6.5l3-1.8l-3-1.7l-3 1.7l3 1.8Zm-5.7 3.2l3-1.7l-3-1.7l-3 1.7l3 1.7Zm-22.6 13.1l3-1.7l-3-1.7l-3 1.7l3 1.7Zm11.3-6.5l3-1.8l-3-1.7l-3 1.8l3 1.7Zm-22.7 13.1l3-1.8l-3-1.7l-3 1.7l3 1.8Zm23-19.5l3-1.7l-3-1.7l-3 1.7l3 1.7Zm-5.7 3.3l3-1.7l-2.9-1.8l-3.1 1.8l3 1.7Zm-5.6 3.3l3-1.8l-3-1.7l-3 1.7l3 1.8Zm-11.4 6.5l3-1.7l-3-1.8l-3 1.8l3 1.7Zm-17 9.8l3.1-1.7l-3-1.7l-3.1 1.7l3 1.7Zm-5.6 3.3l3-1.8l-3-1.7l-3 1.8l3 1.7Zm-5.7 3.3l3-1.8l-3-1.7l-3 1.7l3 1.8Z" fill="#2af6ff" opacity=".2" style="mix-blend-mode: screen;"/><path d="M99.8 58.6l3-1.7l-3-1.8l-3 1.8l3 1.7Zm-11.4 6.6l3.1-1.8l-3-1.7l-3 1.7l2.9 1.8Zm-17 9.8l3.1-1.8l-3-1.7l-3.1 1.7l3 1.8Zm57-39.1l3-1.7l-3-1.8l-3 1.8l3 1.7Zm-5.6 3.3l3-1.8l-3-1.7l-3 1.7l3 1.8Zm-34 19.6l3-1.7l-3-1.8l-3 1.8l3 1.7Zm45-19.8l3-1.7l-3-1.8l-3 1.8l3 1.7Z" fill="#2af6ff" opacity=".5" style="mix-blend-mode: screen; animation: .6s linear infinite both a7_o;"/><path d="M83.1 62.1l3-1.8l-3-1.7l-3 1.7l3 1.8Zm-26.2-28.2l3.1-1.8l-3-1.7l-3.1 1.8l3 1.7Zm-6.9 28.7l3-1.7l-2.9-1.8l-3.1 1.8l3 1.7Zm28-10l3.1-1.7l-3-1.8l-3.1 1.8l3 1.7Zm-11.3 6.6l3-1.8l-3-1.7l-3 1.7l3 1.8Z" fill="#ff63ce" opacity=".5" style="mix-blend-mode: screen; animation: 1s linear infinite both a8_o;"/><path d="M99.5 65l3-1.8l-3-1.7l-3 1.8l3 1.7Zm-16.7 3.4l3-1.7l-3-1.7l-3 1.7l3 1.7Zm-22.4 6.8l3-1.8l-2.9-1.7l-3.1 1.7l3 1.8Zm-37.5-21.7l3.1-1.7l-3-1.8l-3 1.8l2.9 1.7Zm67.7-32.9l3-1.7l-3-1.8l-3 1.8l3 1.7Zm-28.3 16.4l3-1.8l-3-1.7l-3 1.7l3 1.8Zm49.7-4l3.1-1.8l-3-1.7l-3.1 1.8l3 1.7Zm-62.3 36l3-1.8l-3-1.7l-3 1.7l3 1.8Zm33.7-13.3l3-1.7l-3-1.8l-3 1.8l3 1.7Zm-22.7 13.1l3.1-1.7l-3-1.8l-3.1 1.8l3 1.7Zm35.6-51.5l3-1.7l-3-1.7l-3 1.7l3 1.7Zm-62.3 36l3-1.7l-3-1.7l-3 1.7l3 1.7Zm73-29.8l3-1.7l-3-1.7l-3 1.7l3 1.7Zm-0.3 6.4l3-1.7l-3-1.8l-3 1.8l3 1.7Zm11-0.2l3-1.7l-3-1.8l-3 1.8l3 1.7Zm-40 29.3l3.1-1.8l-3-1.7l-3.1 1.7l3 1.8Zm-8.5-50.7l3-1.8l-3-1.7l-3 1.7l3 1.8Zm-11.3 6.5l3-1.7l-3-1.8l-3 1.8l3 1.7Zm-22.7 13.1l3-1.8l-3-1.7l-3 1.8l3 1.7Zm22.4-6.7l3-1.8l-3-1.7l-3 1.7l3 1.8Zm-11.4 6.5l3-1.7l-2.9-1.8l-3.1 1.8l3 1.7Zm-22.6 13.1l3-1.8l-3-1.7l-3 1.8l3 1.7Zm56.3-26.4l3-1.7l-3-1.7l-3 1.7l3 1.7Zm-5.7 3.3l3.1-1.7l-3-1.8l-3.1 1.8l3 1.7Zm-17 9.8l3.1-1.7l-3-1.7l-3 1.7l2.9 1.7Zm-33.9 19.6l3-1.7l-3-1.7l-3 1.7l3 1.7Z" fill="#2af6ff" style="mix-blend-mode: screen; animation: 4.6s linear infinite both a9_o;"/><path d="M133.5 45.4l3-1.8l-3-1.7l-3 1.7l3 1.8Zm-56.4 26.3l3-1.7l-3-1.8l-3 1.8l3 1.7Zm45.3-26.2l3.1-1.7l-3-1.7l-3.1 1.7l3 1.7Zm-17 9.8l3.1-1.7l-3-1.7l-3.1 1.7l3 1.8Zm-25.8-34.5l3-1.7l-3-1.8l-3 1.8l3 1.7Zm-5.7 3.3l3.1-1.8l-3-1.7l-3.1 1.7l3 1.8Zm-5.6 3.2l3-1.7l-3-1.7l-3 1.7l3 1.7Zm16.7-3.4l3-1.8l-3-1.7l-3 1.8l3 1.7Zm-17 9.8l3-1.7l-3-1.8l-3 1.8l3 1.7Zm-11.4 6.5l3.1-1.7l-3-1.7l-3.1 1.7l3 1.7Zm33.7-13.2l3-1.8l-3-1.7l-3 1.8l3 1.7Zm-17.6 22.5l3-1.7l-3-1.7l-3 1.7l3 1.7Zm-17 9.8l3-1.7l-3-1.7l-3 1.7l3 1.7Zm33.7-13.2l3-1.8l-3-1.7l-3 1.7l3 1.8Zm-28.3 16.3l3-1.7l-3-1.7l-3 1.7l3 1.7Zm5.3 3.1l3-1.7l-3-1.8l-3 1.8l3 1.7Z" fill="#ff63ce" style="mix-blend-mode: screen; animation: 2s linear infinite both a10_o;"/><path d="M85.3 17.5l3-1.7l-3-1.7l-3 1.7l3 1.7Zm-56.7 32.7l3-1.7l-3-1.7l-3 1.7l3 1.7Zm-0.3 6.4l3-1.7l-3-1.8l-3 1.8l3 1.7Zm73.3-36.2l3.1-1.7l-3-1.7l-3.1 1.7l3 1.7Zm-34 19.7l3.1-1.8l-3-1.7l-3 1.7l2.9 1.8Zm-28.3 16.3l3-1.7l-3-1.7l-3 1.7l3 1.7Zm-0.3 6.4l3-1.8l-3-1.7l-3 1.8l3 1.7Zm73.4-36.2l3-1.7l-3-1.7l-3 1.7l3 1.7Zm-34 19.7l3-1.8l-3-1.7l-3 1.7l3 1.8Zm-34 19.6l3-1.8l-3-1.7l-3 1.7l3 1.8Zm11-0.2l3-1.7l-3-1.8l-3 1.8l3 1.7Zm67.7-32.9l3-1.7l-3-1.8l-3 1.8l3 1.7Zm-5.7 3.3l3-1.8l-3-1.7l-3 1.8l3 1.7Zm-45.3 26.2l3-1.8l-3-1.7l-3 1.7l3 1.8Zm-17 9.8l3-1.8l-3-1.7l-3 1.7l3 1.8Zm19.8-67.1l3-1.8l-3-1.7l-3 1.8l3 1.7Zm-11.4 6.5l3.1-1.7l-3-1.7l-3.1 1.7l3 1.7Zm-11.3 6.6l3-1.8l-3-1.7l-3 1.7l3 1.8Zm-11.3 6.5l3-1.7l-3-1.8l-3 1.8l3 1.7Zm-11.4 6.6l3.1-1.8l-3-1.7l-3.1 1.7l3 1.8Zm-5.6 3.2l3-1.7l-3-1.7l-3 1.7l3 1.7Zm-11.4 6.6l3.1-1.8l-3-1.7l-3 1.7l2.9 1.8Zm67.7-32.9l3-1.8l-3-1.7l-3 1.7l3 1.8Zm-5.6 3.3l3-1.8l-3-1.7l-3 1.7l3 1.8Zm-11.4 6.5l3-1.7l-3-1.8l-3 1.8l3 1.7Zm-11.3 6.5l3-1.7l-3-1.7l-3 1.7l3 1.7Zm-11.3 6.6l3-1.8l-3-1.7l-3 1.7l3 1.8Zm-5.7 3.2l3-1.7l-3-1.7l-3 1.7l3 1.7Zm-5.7 3.3l3-1.7l-3-1.8l-3 1.8l3 1.7Zm-11.3 6.6l3-1.8l-3-1.7l-3 1.7l3 1.8Zm-5.7 3.2l3.1-1.7l-3-1.7l-3.1 1.7l3 1.7Zm73.4-36.1l3-1.8l-3-1.7l-3 1.7l3 1.8Zm-17 9.8l3-1.8l-3-1.7l-3 1.8l3 1.7Zm-5.7 3.3l3-1.8l-3-1.7l-3 1.7l3 1.8Zm-11.3 6.5l3-1.7l-3-1.8l-3 1.8l3 1.7Zm-5.7 3.3l3-1.8l-3-1.7l-3 1.7l3 1.8Zm-17 9.8l3-1.8l-3-1.7l-3 1.7l3 1.8Z" fill="#2af6ff" style="mix-blend-mode: screen; animation: 2.7s linear infinite both a11_o;"/><path d="M139.1 42.1l3-1.8l-3-1.7l-3 1.8l3 1.7Zm-11 .2l3-1.8l-3-1.7l-3 1.7l3 1.8Zm-11 .1l3-1.7l-3-1.7l-3 1.7l3 1.7Zm-54.5-11.8l3-1.7l-3-1.8l-3 1.8l3 1.7Zm-11.3 6.6l3-1.8l-3-1.7l-3 1.7l3 1.8Zm-11.7 12.9l3-1.8l-3-1.7l-3 1.7l3 1.8Zm22.4-6.8l3-1.7l-3-1.7l-3 1.7l3 1.7Zm-17 9.9l3-1.8l-3-1.7l-3 1.7l3 1.8Zm50.7-23.1l3-1.8l-3-1.7l-3 1.7l3 1.8Zm-17 9.8l3-1.7l-3-1.8l-3 1.8l3 1.7Zm-11.4 6.5l3.1-1.7l-3-1.7l-3.1 1.7l3 1.7Zm33.7-13.2l3-1.8l-3-1.7l-3 1.7l3 1.8Zm-17 9.8l3-1.8l-3-1.7l-3 1.8l3 1.7Z" fill="#ff63ce" style="mix-blend-mode: screen; animation: 2.8s linear infinite both a12_o;"/><path d="M82.2 81.2l3-1.8l-3-1.7l-3 1.7l3 1.8Zm39.6-22.9l3-1.8l-3-1.7l-3 1.7l3 1.8Zm-28.3 16.3l3-1.7l-3-1.8l-3 1.8l3 1.7Zm17-9.8l3-1.7l-3-1.8l-3 1.8l3 1.7Zm-16.4-2.9l3-1.8l-3-1.7l-3 1.8l3 1.7Zm-47.6-40.6l3.1-1.7l-3-1.7l-3.1 1.7l3 1.7Zm-28.3 16.4l3-1.7l-3-1.8l-3 1.8l3 1.7Zm-11.3 6.5l3-1.7l-3-1.7l-3 1.7l3 1.7Zm62-29.6l3-1.7l-3-1.8l-3 1.8l3 1.7Z" fill="#2af6ff" style="mix-blend-mode: screen; animation: 3s linear infinite both a13_o;"/></g></g></svg>