<svg xmlns="http://www.w3.org/2000/svg" width="160" height="164" fill="none" viewBox="0 0 160 164">
  <defs/>
  <rect width="100" height="100" x="60" y="50.5" fill="#DAE0EE" rx="20"/>
  <circle cx="40" cy="70.5" r="40" fill="#AAB7DC" fill-opacity=".45"/>
  <path fill="#D39CF1" d="M83.85 59.21l-8.74-8.74v-10.2c0-4.32-3.5-7.82-7.82-7.82H42.77a7.81 7.81 0 00-7.82 7.82v17.18c0 4.32 3.5 7.82 7.82 7.82h24.52a7.81 7.81 0 007.62-6.06h8.94z"/>
  <path fill="#8BD87C" d="M82.15 101.79l8.74 8.74v10.2c0 4.32 3.5 7.82 7.82 7.82h24.52c4.32 0 7.82-3.5 7.82-7.82v-17.18c0-4.32-3.5-7.82-7.82-7.82H98.71a7.81 7.81 0 00-7.61 6.06h-8.95z"/>
  <path fill="#FADF6B" d="M66.84 104.02h-15.7a16.18 16.18 0 00-16.19 16.18v8.35h48.07v-8.35c0-8.94-7.24-16.18-16.18-16.18z"/>
  <path fill="#fff" d="M67.96 104.02L58.99 113l-8.97-8.97h17.94z"/>
  <path fill="#5CC1FF" d="M56.46 75.83h13.1v6.5a6.1 6.1 0 01-6.1 6.1H48.4v-4.55c0-4.44 3.6-8.05 8.05-8.05z"/>
  <path fill="#FFCDAC" d="M69.56 88.44v5a10.58 10.58 0 11-21.15 0v-5h21.15z"/>
  <path fill="#D39CF1" d="M114.86 60.64h-15.7a16.18 16.18 0 00-16.18 16.18v8.35h48.07v-8.35c0-8.93-7.25-16.18-16.19-16.18z"/>
  <path fill="#fff" d="M115.98 60.64L107 69.61l-8.97-8.97h17.94z"/>
  <path fill="#FADF6B" d="M104.49 32.45h13.1v6.5a6.1 6.1 0 01-6.1 6.11H96.43V40.5c0-4.44 3.6-8.05 8.05-8.05z"/>
  <path fill="#F7CEB0" d="M117.59 45.06v5a10.58 10.58 0 01-21.15 0v-5h21.15z"/>
  <path fill="#1F3474" d="M68.5 102.14a1.92 1.92 0 00-.44-.07 12.48 12.48 0 003.46-8.63V83.17l-.02-.28.02-.56v-6.5c0-1.08-.88-1.95-1.96-1.95h-13.1c-5.51 0-10 4.49-10 10v9.56c0 3.35 1.32 6.38 3.46 8.63-.15.01-.3.03-.43.07A18.16 18.16 0 0033 120.2v8.35c0 1.08.87 1.95 1.95 1.95h48.07c1.08 0 1.96-.87 1.96-1.95v-8.35c0-9.44-7.26-17.22-16.49-18.06zM50.36 90.4h13.09a8 8 0 004.15-1.15v4.2a8.63 8.63 0 01-17.24 0V90.4zm12.87 15.58l-4.25 4.25-4.25-4.25h8.5zM50.37 83.88a6.1 6.1 0 016.1-6.1H67.6v4.55a4.16 4.16 0 01-4.15 4.15h-13.1v-2.6zm30.7 42.71H36.91v-3.9H45a1.95 1.95 0 100-3.9h-8.03a14.25 14.25 0 0112.35-12.7l8.28 8.28a1.95 1.95 0 002.76 0l8.28-8.28c7 .9 12.42 6.88 12.42 14.11v6.4zM116.52 58.77a1.95 1.95 0 00-.44-.08 12.48 12.48 0 003.46-8.62V39.79c0-.1 0-.18-.02-.27l.02-.57v-6.5c0-1.08-.87-1.95-1.95-1.95h-13.1c-5.52 0-10 4.49-10 10v9.57c0 3.34 1.3 6.38 3.45 8.62-.15.01-.3.03-.43.08a18.16 18.16 0 00-16.49 18.05v8.35c0 1.08.88 1.95 1.96 1.95h15.71a1.95 1.95 0 100-3.9H84.93v-6.4c0-7.23 5.43-13.22 12.42-14.1l8.28 8.27a1.95 1.95 0 002.76 0l8.28-8.28c7 .9 12.42 6.88 12.42 14.11v6.4h-14.38a1.95 1.95 0 100 3.9h16.34c1.08 0 1.95-.87 1.95-1.95v-8.35c0-9.44-7.26-17.22-16.48-18.05zm-18.13-8.7V47h13.1a8 8 0 004.14-1.15v4.2a8.63 8.63 0 01-17.24 0zm0-9.57a6.1 6.1 0 016.1-6.1h11.14v4.55a4.16 4.16 0 01-4.15 4.16h-13.1V40.5zM107 66.85l-4.25-4.25h8.5l-4.25 4.25z"/>
  <path fill="#1F3474" d="M108.4 86.55a1.97 1.97 0 000-2.76 1.96 1.96 0 00-3.33 1.38 1.96 1.96 0 003.32 1.38zM42.77 67.22h24.52a9.71 9.71 0 009.04-6.06h7.52a1.95 1.95 0 001.38-3.33l-8.17-8.17v-9.4a9.78 9.78 0 00-9.77-9.76H42.77A9.78 9.78 0 0033 40.27v17.18a9.78 9.78 0 009.77 9.77zM36.9 40.27a5.87 5.87 0 015.86-5.86h24.52a5.87 5.87 0 015.86 5.86v10.2c0 .52.2 1.02.57 1.38l5.41 5.4h-4.22c-.91 0-1.7.64-1.9 1.52a5.83 5.83 0 01-5.72 4.54H42.77a5.87 5.87 0 01-5.86-5.86V40.27zM123.23 93.78H98.71a9.71 9.71 0 00-9.04 6.06h-7.52a1.95 1.95 0 00-1.38 3.33l8.17 8.17v9.4a9.78 9.78 0 009.77 9.76h24.52a9.78 9.78 0 009.77-9.77v-17.18a9.78 9.78 0 00-9.77-9.77zm5.86 26.95a5.87 5.87 0 01-5.86 5.86H98.71a5.87 5.87 0 01-5.86-5.86v-10.2c0-.52-.2-1.02-.58-1.38l-5.4-5.4h4.22c.91 0 1.7-.64 1.9-1.52a5.83 5.83 0 015.72-4.54h24.52a5.87 5.87 0 015.86 5.86v17.18z"/>
  <path fill="#fff" d="M116.99 106.94l-5.2 5.2-2.4-2.42a1.96 1.96 0 00-2.77 2.76l3.8 3.8a1.94 1.94 0 002.76 0l6.57-6.57a1.95 1.95 0 10-2.76-2.77zM52.34 45.87c1.07 0 1.95-.87 1.95-1.95a2.84 2.84 0 013.07-2.86 2.87 2.87 0 01.42 5.66 3.28 3.28 0 00-2.58 3.21v1.04a1.95 1.95 0 103.9 0v-.57a6.79 6.79 0 10-6.57-11.44 6.8 6.8 0 00-2.15 4.96c0 1.08.88 1.95 1.96 1.95zM57.15 56.5a1.96 1.96 0 00-1.95 1.95 1.96 1.96 0 003.34 1.38 1.97 1.97 0 000-2.76 1.97 1.97 0 00-1.39-.58z"/>
  <path fill="#1F3474" d="M52.82 118.78a1.97 1.97 0 00-1.95 1.95 1.97 1.97 0 001.95 1.96 1.97 1.97 0 001.96-1.96 1.97 1.97 0 00-1.96-1.95zM15 30.86v85.24s0 2.4 2.02 2.4c2.1 0 2.1-2.4 2.1-2.4V30.86c0-6.73 4.25-13.21 10.97-13.21h102.6c10.19 0 13.19 6.48 13.19 13.21v18.88c0 2.24-.19 3.07 2.06 3.07 2.24 0 2.06-.83 2.06-3.07V30.86c0-11.22-6.12-17.36-17.31-17.36H33.3c-11.2 0-18.3 6.14-18.3 17.36z"/>
</svg>
