<svg width="512" height="512" viewBox="0 0 512 512" fill="none" xmlns="http://www.w3.org/2000/svg">
<g clip-path="url(#clip0_920_3936)">
<path d="M256 512C397.385 512 512 397.385 512 256C512 114.615 397.385 0 256 0C114.615 0 0 114.615 0 256C0 397.385 114.615 512 256 512Z" fill="#F0F0F0"/>
<path d="M509.833 222.609H200.348V6.08496C177.021 11.253 154.539 19.6833 133.565 31.127V222.608H2.167C0.742 233.539 0 244.683 0 256C0 267.317 0.742 278.461 2.167 289.391H133.565V480.872C154.539 492.316 177.021 500.746 200.348 505.914V289.392H509.833C511.256 278.461 512 267.317 512 256C512 244.683 511.256 233.539 509.833 222.609Z" fill="#0052B4"/>
</g>
<defs>
<clipPath id="clip0_920_3936">
<rect width="512" height="512" fill="white"/>
</clipPath>
</defs>
</svg>
