<svg width="512" height="512" viewBox="0 0 512 512" fill="none" xmlns="http://www.w3.org/2000/svg">
<g clip-path="url(#clip0_920_3952)">
<path d="M256 512C397.385 512 512 397.385 512 256C512 114.615 397.385 0 256 0C114.615 0 0 114.615 0 256C0 397.385 114.615 512 256 512Z" fill="#FFDA44"/>
<path d="M200.349 222.609H509.833C493.47 97.002 386.067 9.2545e-06 256 9.2545e-06C237.283 -0.00501464 218.622 2.03543 200.348 6.08501L200.349 222.609ZM133.565 222.608V31.127C63.271 69.481 12.95 139.832 2.16699 222.609L133.565 222.608ZM133.564 289.391H2.16699C12.95 372.168 63.271 442.519 133.565 480.872L133.564 289.391ZM200.348 289.392V505.915C218.622 509.965 237.283 512.005 256 512C386.067 512 493.47 414.998 509.833 289.391H200.348V289.392Z" fill="#0052B4"/>
</g>
<defs>
<clipPath id="clip0_920_3952">
<rect width="512" height="512" fill="white"/>
</clipPath>
</defs>
</svg>
